STARTFONT 2.1
COMMENT
COMMENT Converted from OpenType font "Q:\font stuff\winfont\lucida.ttf" by "otf2bdf 3.0".
COMMENT
FONT -FreeType-Lucida Sans Unicode-Medium-R-Normal--20-200-72-72-P-109-ISO10646-1
SIZE 20 72 72
FONTBOUNDINGBOX 41 31 -12 -8
STARTPROPERTIES 19
FOUNDRY "FreeType"
FAMILY_NAME "Lucida Sans Unicode"
WEIGHT_NAME "Medium"
SLANT "R"
SETWIDTH_NAME "Normal"
ADD_STYLE_NAME ""
PIXEL_SIZE 20
POINT_SIZE 200
RESOLUTION_X 72
RESOLUTION_Y 72
SPACING "P"
AVERAGE_WIDTH 109
CHARSET_REGISTRY "ISO10646"
CHARSET_ENCODING "1"
FONT_ASCENT 21
FONT_DESCENT 8
COPYRIGHT "Copyright © 1993 Bigelow & Holmes Inc. All rights reserved. Pat. Des. 289,420. Pats. Pend."
_OTF_FONTFILE "Q:\font stuff\winfont\lucida.ttf"
_OTF_PSNAME "LucidaSansUnicode"
ENDPROPERTIES
CHARS 1753
STARTCHAR 0020
ENCODING 32
SWIDTH 300 0
DWIDTH 6 0
BBX 0 0 0 0
BITMAP
ENDCHAR
STARTCHAR 0021
ENCODING 33
SWIDTH 300 0
DWIDTH 6 0
BBX 2 14 2 0
BITMAP
C0
C0
C0
C0
C0
C0
C0
C0
C0
C0
C0
00
00
C0
ENDCHAR
STARTCHAR 0022
ENCODING 34
SWIDTH 350 0
DWIDTH 7 0
BBX 5 4 1 11
BITMAP
D8
D8
D8
D8
ENDCHAR
STARTCHAR 0023
ENCODING 35
SWIDTH 650 0
DWIDTH 13 0
BBX 12 14 0 0
BITMAP
0240
06C0
0480
0480
7FF0
0900
0900
0900
0900
FFE0
1200
1200
3600
2400
ENDCHAR
STARTCHAR 0024
ENCODING 36
SWIDTH 650 0
DWIDTH 13 0
BBX 8 16 2 -1
BITMAP
08
3E
69
C8
C8
C8
78
38
0E
0F
0B
0B
0B
8E
7C
08
ENDCHAR
STARTCHAR 0025
ENCODING 37
SWIDTH 650 0
DWIDTH 13 0
BBX 13 15 0 0
BITMAP
0010
7830
CC20
CC40
CC80
CD80
CD00
7A00
04F0
0D98
1998
1198
2198
6198
C0F0
ENDCHAR
STARTCHAR 0026
ENCODING 38
SWIDTH 700 0
DWIDTH 14 0
BBX 12 14 1 0
BITMAP
0F00
3180
3180
3180
1B00
1E00
7C00
6E30
C630
C330
C1E0
E0C0
71E0
3E70
ENDCHAR
STARTCHAR 0027
ENCODING 39
SWIDTH 250 0
DWIDTH 5 0
BBX 2 5 1 10
BITMAP
C0
C0
C0
C0
C0
ENDCHAR
STARTCHAR 0028
ENCODING 40
SWIDTH 350 0
DWIDTH 7 0
BBX 5 18 1 -3
BITMAP
08
18
30
20
60
40
C0
C0
C0
C0
C0
C0
40
60
20
30
18
08
ENDCHAR
STARTCHAR 0029
ENCODING 41
SWIDTH 350 0
DWIDTH 7 0
BBX 5 18 1 -3
BITMAP
80
C0
60
20
30
10
18
18
18
18
18
18
10
30
20
60
C0
80
ENDCHAR
STARTCHAR 002A
ENCODING 42
SWIDTH 500 0
DWIDTH 10 0
BBX 7 8 1 5
BITMAP
10
10
D6
EE
00
28
6C
40
ENDCHAR
STARTCHAR 002B
ENCODING 43
SWIDTH 800 0
DWIDTH 16 0
BBX 11 11 2 0
BITMAP
0400
0400
0400
0400
0400
FFE0
0400
0400
0400
0400
0400
ENDCHAR
STARTCHAR 002C
ENCODING 44
SWIDTH 300 0
DWIDTH 6 0
BBX 2 5 2 -3
BITMAP
C0
C0
40
40
80
ENDCHAR
STARTCHAR 002D
ENCODING 45
SWIDTH 600 0
DWIDTH 12 0
BBX 9 1 1 5
BITMAP
FF80
ENDCHAR
STARTCHAR 002E
ENCODING 46
SWIDTH 300 0
DWIDTH 6 0
BBX 2 2 2 0
BITMAP
C0
C0
ENDCHAR
STARTCHAR 002F
ENCODING 47
SWIDTH 500 0
DWIDTH 10 0
BBX 6 17 2 -3
BITMAP
04
04
08
08
08
10
10
10
20
20
20
20
40
40
40
80
80
ENDCHAR
STARTCHAR 0030
ENCODING 48
SWIDTH 650 0
DWIDTH 13 0
BBX 11 14 1 0
BITMAP
1F00
3180
60C0
60C0
C060
C060
C060
C060
C060
C060
60C0
60C0
3180
1F00
ENDCHAR
STARTCHAR 0031
ENCODING 49
SWIDTH 650 0
DWIDTH 13 0
BBX 4 14 3 0
BITMAP
F0
30
30
30
30
30
30
30
30
30
30
30
30
30
ENDCHAR
STARTCHAR 0032
ENCODING 50
SWIDTH 650 0
DWIDTH 13 0
BBX 9 14 2 0
BITMAP
7E00
8300
0180
0180
0180
0180
0300
0600
0C00
1800
3000
6000
C000
FF80
ENDCHAR
STARTCHAR 0033
ENCODING 51
SWIDTH 650 0
DWIDTH 13 0
BBX 8 14 2 0
BITMAP
7C
86
03
03
03
06
78
06
03
03
03
03
86
7C
ENDCHAR
STARTCHAR 0034
ENCODING 52
SWIDTH 650 0
DWIDTH 13 0
BBX 10 14 1 0
BITMAP
0300
0700
0B00
0B00
1300
2300
2300
4300
8300
FFC0
0300
0300
0300
0300
ENDCHAR
STARTCHAR 0035
ENCODING 53
SWIDTH 650 0
DWIDTH 13 0
BBX 8 14 2 0
BITMAP
FF
C0
C0
C0
C0
F8
0E
06
03
03
03
03
06
FC
ENDCHAR
STARTCHAR 0036
ENCODING 54
SWIDTH 650 0
DWIDTH 13 0
BBX 10 14 1 0
BITMAP
1F00
3080
6000
4000
C000
DF00
E180
C0C0
C0C0
C0C0
40C0
60C0
3180
1F00
ENDCHAR
STARTCHAR 0037
ENCODING 55
SWIDTH 650 0
DWIDTH 13 0
BBX 9 14 2 0
BITMAP
FF80
0180
0300
0200
0600
0400
0C00
1800
1800
3000
3000
3000
6000
6000
ENDCHAR
STARTCHAR 0038
ENCODING 56
SWIDTH 650 0
DWIDTH 13 0
BBX 10 14 2 0
BITMAP
1E00
3300
6180
6180
6180
3B00
1E00
7780
6380
C0C0
C0C0
C0C0
6180
3F00
ENDCHAR
STARTCHAR 0039
ENCODING 57
SWIDTH 650 0
DWIDTH 13 0
BBX 10 14 2 0
BITMAP
3E00
6300
C180
C080
C0C0
C0C0
C0C0
61C0
3EC0
00C0
0180
0180
0300
7E00
ENDCHAR
STARTCHAR 003A
ENCODING 58
SWIDTH 300 0
DWIDTH 6 0
BBX 2 11 2 0
BITMAP
C0
00
00
00
00
00
00
00
00
00
C0
ENDCHAR
STARTCHAR 003B
ENCODING 59
SWIDTH 300 0
DWIDTH 6 0
BBX 2 14 2 -3
BITMAP
C0
00
00
00
00
00
00
00
00
00
C0
40
40
80
ENDCHAR
STARTCHAR 003C
ENCODING 60
SWIDTH 800 0
DWIDTH 16 0
BBX 12 11 2 0
BITMAP
0010
0060
0180
0E00
3000
C000
3000
0C00
0380
0060
0010
ENDCHAR
STARTCHAR 003D
ENCODING 61
SWIDTH 800 0
DWIDTH 16 0
BBX 12 4 2 4
BITMAP
FFF0
0000
0000
FFF0
ENDCHAR
STARTCHAR 003E
ENCODING 62
SWIDTH 800 0
DWIDTH 16 0
BBX 12 11 2 0
BITMAP
8000
6000
1800
0700
00C0
0030
00C0
0300
1C00
6000
8000
ENDCHAR
STARTCHAR 003F
ENCODING 63
SWIDTH 400 0
DWIDTH 8 0
BBX 8 14 0 0
BITMAP
7C
86
03
03
07
06
0C
18
30
30
30
00
00
30
ENDCHAR
STARTCHAR 0040
ENCODING 64
SWIDTH 850 0
DWIDTH 17 0
BBX 15 14 1 0
BITMAP
03E0
0C18
1004
21E6
4222
4622
8462
8C62
8CE4
8D64
8678
4000
3080
1F00
ENDCHAR
STARTCHAR 0041
ENCODING 65
SWIDTH 700 0
DWIDTH 14 0
BBX 13 14 0 0
BITMAP
0300
0700
0580
0980
0980
10C0
10C0
10C0
2060
3FE0
4030
4030
4030
8018
ENDCHAR
STARTCHAR 0042
ENCODING 66
SWIDTH 600 0
DWIDTH 12 0
BBX 9 14 2 0
BITMAP
FC00
C600
C300
C300
C300
C600
F800
C700
C300
C180
C180
C180
C300
FE00
ENDCHAR
STARTCHAR 0043
ENCODING 67
SWIDTH 700 0
DWIDTH 14 0
BBX 12 14 1 0
BITMAP
0FC0
3830
6000
6000
C000
C000
C000
C000
C000
C000
6000
6000
3810
0FE0
ENDCHAR
STARTCHAR 0044
ENCODING 68
SWIDTH 750 0
DWIDTH 15 0
BBX 12 14 2 0
BITMAP
FF00
C1C0
C060
C060
C030
C030
C030
C030
C030
C030
C060
C060
C1C0
FF00
ENDCHAR
STARTCHAR 0045
ENCODING 69
SWIDTH 550 0
DWIDTH 11 0
BBX 9 14 2 0
BITMAP
FF80
C000
C000
C000
C000
C000
FF00
C000
C000
C000
C000
C000
C000
FF80
ENDCHAR
STARTCHAR 0046
ENCODING 70
SWIDTH 550 0
DWIDTH 11 0
BBX 8 14 2 0
BITMAP
FF
C0
C0
C0
C0
C0
FE
C0
C0
C0
C0
C0
C0
C0
ENDCHAR
STARTCHAR 0047
ENCODING 71
SWIDTH 700 0
DWIDTH 14 0
BBX 12 14 1 0
BITMAP
0FC0
3830
6000
6000
C000
C000
C000
C000
C030
C030
6030
6030
3830
0FE0
ENDCHAR
STARTCHAR 0048
ENCODING 72
SWIDTH 750 0
DWIDTH 15 0
BBX 11 14 2 0
BITMAP
C060
C060
C060
C060
C060
C060
FFE0
C060
C060
C060
C060
C060
C060
C060
ENDCHAR
STARTCHAR 0049
ENCODING 73
SWIDTH 300 0
DWIDTH 6 0
BBX 2 14 2 0
BITMAP
C0
C0
C0
C0
C0
C0
C0
C0
C0
C0
C0
C0
C0
C0
ENDCHAR
STARTCHAR 004A
ENCODING 74
SWIDTH 300 0
DWIDTH 6 0
BBX 6 17 -2 -3
BITMAP
0C
0C
0C
0C
0C
0C
0C
0C
0C
0C
0C
0C
0C
0C
0C
18
F0
ENDCHAR
STARTCHAR 004B
ENCODING 75
SWIDTH 650 0
DWIDTH 13 0
BBX 10 14 2 0
BITMAP
C080
C100
C200
C400
C800
D000
E000
F000
D800
CC00
C600
C300
C180
C0C0
ENDCHAR
STARTCHAR 004C
ENCODING 76
SWIDTH 550 0
DWIDTH 11 0
BBX 9 14 2 0
BITMAP
C000
C000
C000
C000
C000
C000
C000
C000
C000
C000
C000
C000
C000
FF80
ENDCHAR
STARTCHAR 004D
ENCODING 77
SWIDTH 850 0
DWIDTH 17 0
BBX 14 14 2 0
BITMAP
C01C
E01C
E02C
B02C
B02C
B04C
984C
988C
8C8C
8C8C
8D0C
870C
870C
800C
ENDCHAR
STARTCHAR 004E
ENCODING 78
SWIDTH 750 0
DWIDTH 15 0
BBX 11 14 2 0
BITMAP
C020
E020
F020
B020
9820
9C20
8C20
8620
8720
8320
81A0
81E0
80E0
8060
ENDCHAR
STARTCHAR 004F
ENCODING 79
SWIDTH 800 0
DWIDTH 16 0
BBX 14 14 1 0
BITMAP
0FC0
3870
6018
6018
C00C
C00C
C00C
C00C
C00C
C00C
6018
6018
3870
0FC0
ENDCHAR
STARTCHAR 0050
ENCODING 80
SWIDTH 550 0
DWIDTH 11 0
BBX 9 14 2 0
BITMAP
FE00
C300
C180
C180
C180
C300
C700
FC00
C000
C000
C000
C000
C000
C000
ENDCHAR
STARTCHAR 0051
ENCODING 81
SWIDTH 800 0
DWIDTH 16 0
BBX 14 17 1 -3
BITMAP
0FC0
3870
6018
6018
C00C
C00C
C00C
C00C
C00C
C00C
6018
6018
3870
0FC0
0070
001C
0004
ENDCHAR
STARTCHAR 0052
ENCODING 82
SWIDTH 650 0
DWIDTH 13 0
BBX 11 14 2 0
BITMAP
FE00
C300
C180
C180
C180
C300
C600
FC00
C600
C300
C100
C180
C0C0
C060
ENDCHAR
STARTCHAR 0053
ENCODING 83
SWIDTH 550 0
DWIDTH 11 0
BBX 9 14 1 0
BITMAP
3E00
6100
C000
C000
E000
7000
3C00
0F00
0380
0180
0180
0180
8300
7E00
ENDCHAR
STARTCHAR 0054
ENCODING 84
SWIDTH 650 0
DWIDTH 13 0
BBX 12 14 0 0
BITMAP
FFF0
0600
0600
0600
0600
0600
0600
0600
0600
0600
0600
0600
0600
0600
ENDCHAR
STARTCHAR 0055
ENCODING 85
SWIDTH 700 0
DWIDTH 14 0
BBX 10 14 2 0
BITMAP
C0C0
C0C0
C0C0
C0C0
C0C0
C0C0
C0C0
C0C0
C0C0
C0C0
C0C0
C0C0
6180
3F00
ENDCHAR
STARTCHAR 0056
ENCODING 86
SWIDTH 650 0
DWIDTH 13 0
BBX 13 14 0 0
BITMAP
C008
6010
6010
6010
3020
3020
1840
1840
0C40
0C80
0C80
0780
0700
0300
ENDCHAR
STARTCHAR 0057
ENCODING 87
SWIDTH 850 0
DWIDTH 17 0
BBX 17 14 0 0
BITMAP
C0C080
E0C080
61E100
616100
616100
316200
316200
323200
3A3200
1A3400
1A3400
1A3400
0C1800
0C1800
ENDCHAR
STARTCHAR 0058
ENCODING 88
SWIDTH 650 0
DWIDTH 13 0
BBX 12 14 0 0
BITMAP
E010
6020
3040
3880
1C80
0D00
0E00
0700
0B00
1380
11C0
20C0
4060
8070
ENDCHAR
STARTCHAR 0059
ENCODING 89
SWIDTH 600 0
DWIDTH 12 0
BBX 12 14 0 0
BITMAP
C010
6020
3040
3040
1880
1880
0D00
0600
0600
0600
0600
0600
0600
0600
ENDCHAR
STARTCHAR 005A
ENCODING 90
SWIDTH 600 0
DWIDTH 12 0
BBX 10 14 1 0
BITMAP
FFC0
00C0
0180
0300
0300
0600
0C00
0C00
1800
3000
3000
6000
C000
FFC0
ENDCHAR
STARTCHAR 005B
ENCODING 91
SWIDTH 350 0
DWIDTH 7 0
BBX 4 18 2 -3
BITMAP
F0
C0
C0
C0
C0
C0
C0
C0
C0
C0
C0
C0
C0
C0
C0
C0
C0
F0
ENDCHAR
STARTCHAR 005C
ENCODING 92
SWIDTH 500 0
DWIDTH 10 0
BBX 6 17 2 -3
BITMAP
80
80
40
40
40
20
20
20
20
10
10
10
08
08
08
04
04
ENDCHAR
STARTCHAR 005D
ENCODING 93
SWIDTH 350 0
DWIDTH 7 0
BBX 4 18 1 -3
BITMAP
F0
30
30
30
30
30
30
30
30
30
30
30
30
30
30
30
30
F0
ENDCHAR
STARTCHAR 005E
ENCODING 94
SWIDTH 650 0
DWIDTH 13 0
BBX 11 11 1 3
BITMAP
0400
0400
0E00
0A00
1B00
1100
3180
2080
60C0
4040
C060
ENDCHAR
STARTCHAR 005F
ENCODING 95
SWIDTH 500 0
DWIDTH 10 0
BBX 8 1 1 -1
BITMAP
FF
ENDCHAR
STARTCHAR 0060
ENCODING 96
SWIDTH 600 0
DWIDTH 12 0
BBX 4 3 5 13
BITMAP
C0
60
30
ENDCHAR
STARTCHAR 0061
ENCODING 97
SWIDTH 550 0
DWIDTH 11 0
BBX 10 11 1 0
BITMAP
3E00
4300
0300
0300
0300
3F00
6300
C300
C300
C700
79C0
ENDCHAR
STARTCHAR 0062
ENCODING 98
SWIDTH 650 0
DWIDTH 13 0
BBX 11 15 2 0
BITMAP
C000
C000
C000
C000
CF00
D0C0
E040
C060
C060
C060
C060
C060
C0C0
E180
DF00
ENDCHAR
STARTCHAR 0063
ENCODING 99
SWIDTH 500 0
DWIDTH 10 0
BBX 8 11 1 0
BITMAP
1F
70
60
C0
C0
C0
C0
C0
60
71
1E
ENDCHAR
STARTCHAR 0064
ENCODING 100
SWIDTH 650 0
DWIDTH 13 0
BBX 11 15 1 0
BITMAP
0060
0060
0060
0060
1F60
30E0
6060
C060
C060
C060
C060
C060
4060
61E0
1E60
ENDCHAR
STARTCHAR 0065
ENCODING 101
SWIDTH 550 0
DWIDTH 11 0
BBX 10 11 1 0
BITMAP
1F00
7180
60C0
C0C0
FFC0
C000
C000
C000
6000
7040
1F80
ENDCHAR
STARTCHAR 0066
ENCODING 102
SWIDTH 350 0
DWIDTH 7 0
BBX 8 15 0 0
BITMAP
1F
30
30
30
FE
30
30
30
30
30
30
30
30
30
30
ENDCHAR
STARTCHAR 0067
ENCODING 103
SWIDTH 600 0
DWIDTH 12 0
BBX 11 15 1 -4
BITMAP
1F60
30E0
6060
C060
C060
C060
C060
C060
60E0
6160
1E60
0060
0040
40C0
3F00
ENDCHAR
STARTCHAR 0068
ENCODING 104
SWIDTH 600 0
DWIDTH 12 0
BBX 9 15 2 0
BITMAP
C000
C000
C000
C000
CF00
D180
E180
C180
C180
C180
C180
C180
C180
C180
C180
ENDCHAR
STARTCHAR 0069
ENCODING 105
SWIDTH 300 0
DWIDTH 6 0
BBX 2 14 2 0
BITMAP
C0
00
00
C0
C0
C0
C0
C0
C0
C0
C0
C0
C0
C0
ENDCHAR
STARTCHAR 006A
ENCODING 106
SWIDTH 300 0
DWIDTH 6 0
BBX 6 18 -1 -4
BITMAP
0C
00
00
0C
0C
0C
0C
0C
0C
0C
0C
0C
0C
0C
0C
0C
08
F0
ENDCHAR
STARTCHAR 006B
ENCODING 107
SWIDTH 600 0
DWIDTH 12 0
BBX 9 15 2 0
BITMAP
C000
C000
C000
C000
C100
C200
C400
C800
D000
F000
D800
CC00
C600
C300
C180
ENDCHAR
STARTCHAR 006C
ENCODING 108
SWIDTH 300 0
DWIDTH 6 0
BBX 2 15 2 0
BITMAP
C0
C0
C0
C0
C0
C0
C0
C0
C0
C0
C0
C0
C0
C0
C0
ENDCHAR
STARTCHAR 006D
ENCODING 109
SWIDTH 950 0
DWIDTH 19 0
BBX 16 11 2 0
BITMAP
CF1E
D1A3
E1C3
C183
C183
C183
C183
C183
C183
C183
C183
ENDCHAR
STARTCHAR 006E
ENCODING 110
SWIDTH 600 0
DWIDTH 12 0
BBX 9 11 2 0
BITMAP
CF00
D180
E180
C180
C180
C180
C180
C180
C180
C180
C180
ENDCHAR
STARTCHAR 006F
ENCODING 111
SWIDTH 600 0
DWIDTH 12 0
BBX 11 11 1 0
BITMAP
1F00
71C0
60C0
C060
C060
C060
C060
C060
60C0
71C0
1F00
ENDCHAR
STARTCHAR 0070
ENCODING 112
SWIDTH 650 0
DWIDTH 13 0
BBX 11 15 2 -4
BITMAP
CF00
D0C0
E040
C060
C060
C060
C060
C060
C0C0
E180
DF00
C000
C000
C000
C000
ENDCHAR
STARTCHAR 0071
ENCODING 113
SWIDTH 650 0
DWIDTH 13 0
BBX 11 15 1 -4
BITMAP
1F60
30E0
6060
C060
C060
C060
C060
C060
4060
61E0
1E60
0060
0060
0060
0060
ENDCHAR
STARTCHAR 0072
ENCODING 114
SWIDTH 400 0
DWIDTH 8 0
BBX 6 11 2 0
BITMAP
CC
D0
E0
C0
C0
C0
C0
C0
C0
C0
C0
ENDCHAR
STARTCHAR 0073
ENCODING 115
SWIDTH 500 0
DWIDTH 10 0
BBX 7 11 2 0
BITMAP
7C
C0
C0
C0
F0
3C
0E
06
06
8C
78
ENDCHAR
STARTCHAR 0074
ENCODING 116
SWIDTH 350 0
DWIDTH 7 0
BBX 6 13 1 0
BITMAP
60
60
FC
60
60
60
60
60
60
60
60
60
3C
ENDCHAR
STARTCHAR 0075
ENCODING 117
SWIDTH 600 0
DWIDTH 12 0
BBX 9 11 2 0
BITMAP
C180
C180
C180
C180
C180
C180
C180
C180
C380
C580
7980
ENDCHAR
STARTCHAR 0076
ENCODING 118
SWIDTH 500 0
DWIDTH 10 0
BBX 10 11 0 0
BITMAP
C040
6080
6080
6080
3100
3100
3100
1A00
1A00
1C00
0C00
ENDCHAR
STARTCHAR 0077
ENCODING 119
SWIDTH 750 0
DWIDTH 15 0
BBX 15 11 0 0
BITMAP
C182
C182
6384
62C4
62C4
64C4
3468
3468
3468
1830
1830
ENDCHAR
STARTCHAR 0078
ENCODING 120
SWIDTH 600 0
DWIDTH 12 0
BBX 11 11 1 0
BITMAP
E020
7040
3080
1900
0E00
0400
0E00
1300
2180
41C0
80E0
ENDCHAR
STARTCHAR 0079
ENCODING 121
SWIDTH 500 0
DWIDTH 10 0
BBX 10 15 0 -4
BITMAP
C040
6080
6080
6080
3100
3100
3100
1A00
1A00
1C00
0C00
0C00
0800
0800
1800
ENDCHAR
STARTCHAR 007A
ENCODING 122
SWIDTH 550 0
DWIDTH 11 0
BBX 9 11 1 0
BITMAP
FF80
0180
0300
0600
0C00
1C00
1800
3000
6000
C000
FF80
ENDCHAR
STARTCHAR 007B
ENCODING 123
SWIDTH 350 0
DWIDTH 7 0
BBX 5 18 1 -3
BITMAP
18
20
60
60
70
30
30
30
20
C0
20
30
30
70
60
60
60
18
ENDCHAR
STARTCHAR 007C
ENCODING 124
SWIDTH 350 0
DWIDTH 7 0
BBX 1 18 3 -3
BITMAP
80
80
80
80
80
80
80
80
80
80
80
80
80
80
80
80
80
80
ENDCHAR
STARTCHAR 007D
ENCODING 125
SWIDTH 350 0
DWIDTH 7 0
BBX 5 18 1 -3
BITMAP
C0
20
30
30
70
60
60
60
20
18
20
60
60
70
30
30
30
C0
ENDCHAR
STARTCHAR 007E
ENCODING 126
SWIDTH 650 0
DWIDTH 13 0
BBX 11 4 1 4
BITMAP
7060
C860
C660
C1C0
ENDCHAR
STARTCHAR 00A0
ENCODING 160
SWIDTH 300 0
DWIDTH 6 0
BBX 0 0 0 0
BITMAP
ENDCHAR
STARTCHAR 00A1
ENCODING 161
SWIDTH 300 0
DWIDTH 6 0
BBX 2 15 2 -4
BITMAP
C0
00
00
C0
C0
C0
C0
C0
C0
C0
C0
C0
C0
C0
C0
ENDCHAR
STARTCHAR 00A2
ENCODING 162
SWIDTH 650 0
DWIDTH 13 0
BBX 8 14 3 0
BITMAP
08
08
3F
68
C8
C8
C8
C8
C8
C8
69
3E
08
08
ENDCHAR
STARTCHAR 00A3
ENCODING 163
SWIDTH 650 0
DWIDTH 13 0
BBX 9 14 2 0
BITMAP
0F80
1800
3000
3000
3000
3000
FE00
3000
3000
3000
3000
2000
6000
FF80
ENDCHAR
STARTCHAR 00A4
ENCODING 164
SWIDTH 650 0
DWIDTH 13 0
BBX 11 11 1 2
BITMAP
8020
5F40
3180
60C0
60C0
60C0
60C0
60C0
3180
5F40
8020
ENDCHAR
STARTCHAR 00A5
ENCODING 165
SWIDTH 650 0
DWIDTH 13 0
BBX 12 14 1 0
BITMAP
E030
7020
3040
18C0
1C80
0D00
0600
3FC0
0600
0600
3FC0
0600
0600
0600
ENDCHAR
STARTCHAR 00A6
ENCODING 166
SWIDTH 350 0
DWIDTH 7 0
BBX 1 18 3 -3
BITMAP
80
80
80
80
80
80
80
00
00
00
00
80
80
80
80
80
80
80
ENDCHAR
STARTCHAR 00A7
ENCODING 167
SWIDTH 650 0
DWIDTH 13 0
BBX 9 17 2 -3
BITMAP
3E00
6100
C000
C000
F000
7C00
5F00
C380
C180
E180
7D00
1F00
0780
0180
0180
8300
7E00
ENDCHAR
STARTCHAR 00A8
ENCODING 168
SWIDTH 600 0
DWIDTH 12 0
BBX 6 1 3 13
BITMAP
CC
ENDCHAR
STARTCHAR 00A9
ENCODING 169
SWIDTH 850 0
DWIDTH 17 0
BBX 15 14 1 0
BITMAP
07C0
1830
2008
43E4
C606
8C02
8C02
8C02
8C02
C606
43E4
2008
1830
07C0
ENDCHAR
STARTCHAR 00AA
ENCODING 170
SWIDTH 400 0
DWIDTH 8 0
BBX 7 6 1 9
BITMAP
78
0C
7C
CC
CC
7E
ENDCHAR
STARTCHAR 00AB
ENCODING 171
SWIDTH 500 0
DWIDTH 10 0
BBX 9 9 1 1
BITMAP
0880
1100
3300
6600
CC00
6600
3300
1100
0880
ENDCHAR
STARTCHAR 00AC
ENCODING 172
SWIDTH 800 0
DWIDTH 16 0
BBX 12 5 2 3
BITMAP
FFF0
0010
0010
0010
0010
ENDCHAR
STARTCHAR 00AD
ENCODING 173
SWIDTH 350 0
DWIDTH 7 0
BBX 4 1 1 5
BITMAP
F0
ENDCHAR
STARTCHAR 00AE
ENCODING 174
SWIDTH 650 0
DWIDTH 13 0
BBX 9 9 2 5
BITMAP
3E00
4100
9E80
9280
9C80
9480
9280
4100
3600
ENDCHAR
STARTCHAR 00AF
ENCODING 175
SWIDTH 500 0
DWIDTH 10 0
BBX 8 1 1 14
BITMAP
FF
ENDCHAR
STARTCHAR 00B0
ENCODING 176
SWIDTH 300 0
DWIDTH 6 0
BBX 4 4 1 10
BITMAP
60
90
90
60
ENDCHAR
STARTCHAR 00B1
ENCODING 177
SWIDTH 800 0
DWIDTH 16 0
BBX 11 12 2 0
BITMAP
0400
0400
0400
0400
FFE0
0400
0400
0400
0400
0000
0000
FFE0
ENDCHAR
STARTCHAR 00B2
ENCODING 178
SWIDTH 400 0
DWIDTH 8 0
BBX 6 9 1 6
BITMAP
78
8C
0C
0C
18
30
60
C0
FC
ENDCHAR
STARTCHAR 00B3
ENCODING 179
SWIDTH 400 0
DWIDTH 8 0
BBX 5 9 2 6
BITMAP
F0
18
18
10
60
18
18
18
F0
ENDCHAR
STARTCHAR 00B4
ENCODING 180
SWIDTH 600 0
DWIDTH 12 0
BBX 4 3 4 13
BITMAP
30
60
C0
ENDCHAR
STARTCHAR 00B5
ENCODING 181
SWIDTH 650 0
DWIDTH 13 0
BBX 9 15 2 -4
BITMAP
C180
C180
C180
C180
C180
C180
C180
C180
C380
E580
D980
C000
C000
C000
C000
ENDCHAR
STARTCHAR 00B6
ENCODING 182
SWIDTH 650 0
DWIDTH 13 0
BBX 8 17 2 -3
BITMAP
7F
FB
FB
FB
FB
7B
7B
1B
1B
1B
1B
1B
1B
1B
1B
1B
1B
ENDCHAR
STARTCHAR 00B7
ENCODING 183
SWIDTH 650 0
DWIDTH 13 0
BBX 2 2 5 5
BITMAP
C0
C0
ENDCHAR
STARTCHAR 00B8
ENCODING 184
SWIDTH 600 0
DWIDTH 12 0
BBX 3 4 5 -4
BITMAP
40
E0
20
E0
ENDCHAR
STARTCHAR 00B9
ENCODING 185
SWIDTH 400 0
DWIDTH 8 0
BBX 3 9 2 6
BITMAP
E0
60
60
60
60
60
60
60
60
ENDCHAR
STARTCHAR 00BA
ENCODING 186
SWIDTH 400 0
DWIDTH 8 0
BBX 6 6 1 9
BITMAP
78
CC
CC
CC
CC
78
ENDCHAR
STARTCHAR 00BB
ENCODING 187
SWIDTH 500 0
DWIDTH 10 0
BBX 9 9 0 1
BITMAP
8800
4400
6600
3300
1980
3300
6600
4400
8800
ENDCHAR
STARTCHAR 00BC
ENCODING 188
SWIDTH 800 0
DWIDTH 16 0
BBX 15 15 0 0
BITMAP
E008
6010
6020
6040
6040
6080
610C
621C
621C
042C
082C
084C
107E
200C
400C
ENDCHAR
STARTCHAR 00BD
ENCODING 189
SWIDTH 800 0
DWIDTH 16 0
BBX 16 15 0 0
BITMAP
E004
6008
6010
6020
6020
6040
609E
6123
6103
0203
0406
040C
0818
1030
203F
ENDCHAR
STARTCHAR 00BE
ENCODING 190
SWIDTH 800 0
DWIDTH 16 0
BBX 14 15 1 0
BITMAP
F008
1810
1820
1040
6040
1880
1918
1A38
F238
0458
0858
0898
10FC
2018
4018
ENDCHAR
STARTCHAR 00BF
ENCODING 191
SWIDTH 400 0
DWIDTH 8 0
BBX 8 15 0 -4
BITMAP
0C
00
00
0C
0C
0C
18
38
70
60
C0
C0
C0
61
3E
ENDCHAR
STARTCHAR 00C0
ENCODING 192
SWIDTH 700 0
DWIDTH 14 0
BBX 13 18 0 0
BITMAP
0C00
0600
0300
0000
0300
0700
0580
0980
0980
10C0
10C0
10C0
2060
3FE0
4030
4030
4030
8018
ENDCHAR
STARTCHAR 00C1
ENCODING 193
SWIDTH 700 0
DWIDTH 14 0
BBX 13 18 0 0
BITMAP
00C0
0180
0300
0000
0300
0700
0580
0980
0980
10C0
10C0
10C0
2060
3FE0
4030
4030
4030
8018
ENDCHAR
STARTCHAR 00C2
ENCODING 194
SWIDTH 700 0
DWIDTH 14 0
BBX 13 18 0 0
BITMAP
0700
0D80
18C0
0000
0300
0700
0580
0980
0980
10C0
10C0
10C0
2060
3FE0
4030
4030
4030
8018
ENDCHAR
STARTCHAR 00C3
ENCODING 195
SWIDTH 700 0
DWIDTH 14 0
BBX 13 17 0 0
BITMAP
1CC0
1BC0
0000
0300
0700
0580
0980
0980
10C0
10C0
10C0
2060
3FE0
4030
4030
4030
8018
ENDCHAR
STARTCHAR 00C4
ENCODING 196
SWIDTH 700 0
DWIDTH 14 0
BBX 13 16 0 0
BITMAP
0CC0
0000
0300
0700
0580
0980
0980
10C0
10C0
10C0
2060
3FE0
4030
4030
4030
8018
ENDCHAR
STARTCHAR 00C5
ENCODING 197
SWIDTH 700 0
DWIDTH 14 0
BBX 13 19 0 0
BITMAP
0300
0480
0480
0300
0000
0300
0700
0580
0980
0980
10C0
10C0
10C0
2060
3FE0
4030
4030
4030
8018
ENDCHAR
STARTCHAR 00C6
ENCODING 198
SWIDTH 900 0
DWIDTH 18 0
BBX 17 14 0 0
BITMAP
00FF80
01E000
016000
036000
026000
046000
0C7F00
086000
186000
1FE000
206000
606000
406000
807F80
ENDCHAR
STARTCHAR 00C7
ENCODING 199
SWIDTH 700 0
DWIDTH 14 0
BBX 12 18 1 -4
BITMAP
0FC0
3830
6000
6000
C000
C000
C000
C000
C000
C000
6000
6000
3810
0FE0
0100
0380
0080
0380
ENDCHAR
STARTCHAR 00C8
ENCODING 200
SWIDTH 550 0
DWIDTH 11 0
BBX 9 18 2 0
BITMAP
6000
3000
1800
0000
FF80
C000
C000
C000
C000
C000
FF00
C000
C000
C000
C000
C000
C000
FF80
ENDCHAR
STARTCHAR 00C9
ENCODING 201
SWIDTH 550 0
DWIDTH 11 0
BBX 9 18 2 0
BITMAP
0C00
1800
3000
0000
FF80
C000
C000
C000
C000
C000
FF00
C000
C000
C000
C000
C000
C000
FF80
ENDCHAR
STARTCHAR 00CA
ENCODING 202
SWIDTH 550 0
DWIDTH 11 0
BBX 9 18 2 0
BITMAP
1C00
3600
6300
0000
FF80
C000
C000
C000
C000
C000
FF00
C000
C000
C000
C000
C000
C000
FF80
ENDCHAR
STARTCHAR 00CB
ENCODING 203
SWIDTH 550 0
DWIDTH 11 0
BBX 9 16 2 0
BITMAP
6600
0000
FF80
C000
C000
C000
C000
C000
FF00
C000
C000
C000
C000
C000
C000
FF80
ENDCHAR
STARTCHAR 00CC
ENCODING 204
SWIDTH 300 0
DWIDTH 6 0
BBX 4 18 0 0
BITMAP
C0
60
30
00
30
30
30
30
30
30
30
30
30
30
30
30
30
30
ENDCHAR
STARTCHAR 00CD
ENCODING 205
SWIDTH 300 0
DWIDTH 6 0
BBX 4 18 2 0
BITMAP
30
60
C0
00
C0
C0
C0
C0
C0
C0
C0
C0
C0
C0
C0
C0
C0
C0
ENDCHAR
STARTCHAR 00CE
ENCODING 206
SWIDTH 300 0
DWIDTH 6 0
BBX 7 18 -1 0
BITMAP
38
6C
C6
00
18
18
18
18
18
18
18
18
18
18
18
18
18
18
ENDCHAR
STARTCHAR 00CF
ENCODING 207
SWIDTH 300 0
DWIDTH 6 0
BBX 6 16 0 0
BITMAP
CC
00
30
30
30
30
30
30
30
30
30
30
30
30
30
30
ENDCHAR
STARTCHAR 00D0
ENCODING 208
SWIDTH 750 0
DWIDTH 15 0
BBX 14 14 0 0
BITMAP
3FC0
3070
3018
3018
300C
300C
300C
FE0C
300C
300C
3018
3018
3070
3FC0
ENDCHAR
STARTCHAR 00D1
ENCODING 209
SWIDTH 750 0
DWIDTH 15 0
BBX 11 17 2 0
BITMAP
3980
3780
0000
C020
E020
F020
B020
9820
9C20
8C20
8620
8720
8320
81A0
81E0
80E0
8060
ENDCHAR
STARTCHAR 00D2
ENCODING 210
SWIDTH 800 0
DWIDTH 16 0
BBX 14 18 1 0
BITMAP
0C00
0600
0300
0000
0FC0
3870
6018
6018
C00C
C00C
C00C
C00C
C00C
C00C
6018
6018
3870
0FC0
ENDCHAR
STARTCHAR 00D3
ENCODING 211
SWIDTH 800 0
DWIDTH 16 0
BBX 14 18 1 0
BITMAP
00C0
0180
0300
0000
0FC0
3870
6018
6018
C00C
C00C
C00C
C00C
C00C
C00C
6018
6018
3870
0FC0
ENDCHAR
STARTCHAR 00D4
ENCODING 212
SWIDTH 800 0
DWIDTH 16 0
BBX 14 18 1 0
BITMAP
0700
0D80
18C0
0000
0FC0
3870
6018
6018
C00C
C00C
C00C
C00C
C00C
C00C
6018
6018
3870
0FC0
ENDCHAR
STARTCHAR 00D5
ENCODING 213
SWIDTH 800 0
DWIDTH 16 0
BBX 14 17 1 0
BITMAP
1CC0
1BC0
0000
0FC0
3870
6018
6018
C00C
C00C
C00C
C00C
C00C
C00C
6018
6018
3870
0FC0
ENDCHAR
STARTCHAR 00D6
ENCODING 214
SWIDTH 800 0
DWIDTH 16 0
BBX 14 16 1 0
BITMAP
0CC0
0000
0FC0
3870
6018
6018
C00C
C00C
C00C
C00C
C00C
C00C
6018
6018
3870
0FC0
ENDCHAR
STARTCHAR 00D7
ENCODING 215
SWIDTH 800 0
DWIDTH 16 0
BBX 11 11 2 0
BITMAP
8020
4040
2080
1100
0A00
0400
0A00
1100
2080
4040
8020
ENDCHAR
STARTCHAR 00D8
ENCODING 216
SWIDTH 800 0
DWIDTH 16 0
BBX 14 14 1 0
BITMAP
0FCC
3838
6018
6038
C04C
C08C
C10C
C20C
C40C
C80C
7018
6018
7070
CFC0
ENDCHAR
STARTCHAR 00D9
ENCODING 217
SWIDTH 700 0
DWIDTH 14 0
BBX 10 18 2 0
BITMAP
3000
1800
0C00
0000
C0C0
C0C0
C0C0
C0C0
C0C0
C0C0
C0C0
C0C0
C0C0
C0C0
C0C0
C0C0
6180
3F00
ENDCHAR
STARTCHAR 00DA
ENCODING 218
SWIDTH 700 0
DWIDTH 14 0
BBX 10 18 2 0
BITMAP
0300
0600
0C00
0000
C0C0
C0C0
C0C0
C0C0
C0C0
C0C0
C0C0
C0C0
C0C0
C0C0
C0C0
C0C0
6180
3F00
ENDCHAR
STARTCHAR 00DB
ENCODING 219
SWIDTH 700 0
DWIDTH 14 0
BBX 10 18 2 0
BITMAP
1C00
3600
6300
0000
C0C0
C0C0
C0C0
C0C0
C0C0
C0C0
C0C0
C0C0
C0C0
C0C0
C0C0
C0C0
6180
3F00
ENDCHAR
STARTCHAR 00DC
ENCODING 220
SWIDTH 700 0
DWIDTH 14 0
BBX 10 16 2 0
BITMAP
3300
0000
C0C0
C0C0
C0C0
C0C0
C0C0
C0C0
C0C0
C0C0
C0C0
C0C0
C0C0
C0C0
6180
3F00
ENDCHAR
STARTCHAR 00DD
ENCODING 221
SWIDTH 600 0
DWIDTH 12 0
BBX 12 18 0 0
BITMAP
0180
0300
0600
0000
C010
6020
3040
3040
1880
1880
0D00
0600
0600
0600
0600
0600
0600
0600
ENDCHAR
STARTCHAR 00DE
ENCODING 222
SWIDTH 550 0
DWIDTH 11 0
BBX 9 14 2 0
BITMAP
C000
C000
C000
FE00
C300
C180
C180
C180
C300
C700
FC00
C000
C000
C000
ENDCHAR
STARTCHAR 00DF
ENCODING 223
SWIDTH 600 0
DWIDTH 12 0
BBX 9 15 2 0
BITMAP
7C00
C600
C600
C600
CC00
C800
D800
DC00
CE00
C700
C380
C180
C180
D180
CF00
ENDCHAR
STARTCHAR 00E0
ENCODING 224
SWIDTH 550 0
DWIDTH 11 0
BBX 10 16 1 0
BITMAP
1800
0C00
0600
0000
0000
3E00
4300
0300
0300
0300
3F00
6300
C300
C300
C700
79C0
ENDCHAR
STARTCHAR 00E1
ENCODING 225
SWIDTH 550 0
DWIDTH 11 0
BBX 10 16 1 0
BITMAP
0C00
1800
3000
0000
0000
3E00
4300
0300
0300
0300
3F00
6300
C300
C300
C700
79C0
ENDCHAR
STARTCHAR 00E2
ENCODING 226
SWIDTH 550 0
DWIDTH 11 0
BBX 10 16 1 0
BITMAP
1C00
3600
6300
0000
0000
3E00
4300
0300
0300
0300
3F00
6300
C300
C300
C700
79C0
ENDCHAR
STARTCHAR 00E3
ENCODING 227
SWIDTH 550 0
DWIDTH 11 0
BBX 10 15 1 0
BITMAP
7300
6F00
0000
0000
3E00
4300
0300
0300
0300
3F00
6300
C300
C300
C700
79C0
ENDCHAR
STARTCHAR 00E4
ENCODING 228
SWIDTH 550 0
DWIDTH 11 0
BBX 10 14 1 0
BITMAP
3300
0000
0000
3E00
4300
0300
0300
0300
3F00
6300
C300
C300
C700
79C0
ENDCHAR
STARTCHAR 00E5
ENCODING 229
SWIDTH 550 0
DWIDTH 11 0
BBX 10 17 1 0
BITMAP
0C00
1200
1200
0C00
0000
0000
3E00
4300
0300
0300
0300
3F00
6300
C300
C300
C700
79C0
ENDCHAR
STARTCHAR 00E6
ENCODING 230
SWIDTH 850 0
DWIDTH 17 0
BBX 15 11 1 0
BITMAP
3E78
478C
0306
0306
03FE
3F00
6300
C300
C380
C5C2
787C
ENDCHAR
STARTCHAR 00E7
ENCODING 231
SWIDTH 500 0
DWIDTH 10 0
BBX 8 15 1 -4
BITMAP
1F
70
60
C0
C0
C0
C0
C0
60
71
1E
08
1C
04
1C
ENDCHAR
STARTCHAR 00E8
ENCODING 232
SWIDTH 550 0
DWIDTH 11 0
BBX 10 16 1 0
BITMAP
3000
1800
0C00
0000
0000
1F00
7180
60C0
C0C0
FFC0
C000
C000
C000
6000
7040
1F80
ENDCHAR
STARTCHAR 00E9
ENCODING 233
SWIDTH 550 0
DWIDTH 11 0
BBX 10 16 1 0
BITMAP
0300
0600
0C00
0000
0000
1F00
7180
60C0
C0C0
FFC0
C000
C000
C000
6000
7040
1F80
ENDCHAR
STARTCHAR 00EA
ENCODING 234
SWIDTH 550 0
DWIDTH 11 0
BBX 10 16 1 0
BITMAP
1C00
3600
6300
0000
0000
1F00
7180
60C0
C0C0
FFC0
C000
C000
C000
6000
7040
1F80
ENDCHAR
STARTCHAR 00EB
ENCODING 235
SWIDTH 550 0
DWIDTH 11 0
BBX 10 14 1 0
BITMAP
3300
0000
0000
1F00
7180
60C0
C0C0
FFC0
C000
C000
C000
6000
7040
1F80
ENDCHAR
STARTCHAR 00EC
ENCODING 236
SWIDTH 300 0
DWIDTH 6 0
BBX 4 16 0 0
BITMAP
C0
60
30
00
00
30
30
30
30
30
30
30
30
30
30
30
ENDCHAR
STARTCHAR 00ED
ENCODING 237
SWIDTH 300 0
DWIDTH 6 0
BBX 4 16 2 0
BITMAP
30
60
C0
00
00
C0
C0
C0
C0
C0
C0
C0
C0
C0
C0
C0
ENDCHAR
STARTCHAR 00EE
ENCODING 238
SWIDTH 300 0
DWIDTH 6 0
BBX 7 16 -1 0
BITMAP
38
6C
C6
00
00
18
18
18
18
18
18
18
18
18
18
18
ENDCHAR
STARTCHAR 00EF
ENCODING 239
SWIDTH 300 0
DWIDTH 6 0
BBX 6 14 0 0
BITMAP
CC
00
00
30
30
30
30
30
30
30
30
30
30
30
ENDCHAR
STARTCHAR 00F0
ENCODING 240
SWIDTH 600 0
DWIDTH 12 0
BBX 10 16 1 0
BITMAP
0400
EC00
3800
7E00
0300
1F00
6180
6180
C0C0
C0C0
C0C0
C0C0
C0C0
6180
6180
1E00
ENDCHAR
STARTCHAR 00F1
ENCODING 241
SWIDTH 600 0
DWIDTH 12 0
BBX 9 15 2 0
BITMAP
7300
6F00
0000
0000
CF00
D180
E180
C180
C180
C180
C180
C180
C180
C180
C180
ENDCHAR
STARTCHAR 00F2
ENCODING 242
SWIDTH 600 0
DWIDTH 12 0
BBX 11 16 1 0
BITMAP
3000
1800
0C00
0000
0000
1F00
71C0
60C0
C060
C060
C060
C060
C060
60C0
71C0
1F00
ENDCHAR
STARTCHAR 00F3
ENCODING 243
SWIDTH 600 0
DWIDTH 12 0
BBX 11 16 1 0
BITMAP
0180
0300
0600
0000
0000
1F00
71C0
60C0
C060
C060
C060
C060
C060
60C0
71C0
1F00
ENDCHAR
STARTCHAR 00F4
ENCODING 244
SWIDTH 600 0
DWIDTH 12 0
BBX 11 16 1 0
BITMAP
0E00
1B00
3180
0000
0000
1F00
71C0
60C0
C060
C060
C060
C060
C060
60C0
71C0
1F00
ENDCHAR
STARTCHAR 00F5
ENCODING 245
SWIDTH 600 0
DWIDTH 12 0
BBX 11 15 1 0
BITMAP
3980
3780
0000
0000
1F00
71C0
60C0
C060
C060
C060
C060
C060
60C0
71C0
1F00
ENDCHAR
STARTCHAR 00F6
ENCODING 246
SWIDTH 600 0
DWIDTH 12 0
BBX 11 14 1 0
BITMAP
1980
0000
0000
1F00
71C0
60C0
C060
C060
C060
C060
C060
60C0
71C0
1F00
ENDCHAR
STARTCHAR 00F7
ENCODING 247
SWIDTH 800 0
DWIDTH 16 0
BBX 12 7 2 2
BITMAP
0600
0000
0000
FFF0
0000
0000
0600
ENDCHAR
STARTCHAR 00F8
ENCODING 248
SWIDTH 600 0
DWIDTH 12 0
BBX 11 11 1 0
BITMAP
1F60
71C0
61C0
C360
C660
C460
CC60
D860
70C0
71C0
DF00
ENDCHAR
STARTCHAR 00F9
ENCODING 249
SWIDTH 600 0
DWIDTH 12 0
BBX 9 16 2 0
BITMAP
6000
3000
1800
0000
0000
C180
C180
C180
C180
C180
C180
C180
C180
C380
C580
7980
ENDCHAR
STARTCHAR 00FA
ENCODING 250
SWIDTH 600 0
DWIDTH 12 0
BBX 9 16 2 0
BITMAP
0300
0600
0C00
0000
0000
C180
C180
C180
C180
C180
C180
C180
C180
C380
C580
7980
ENDCHAR
STARTCHAR 00FB
ENCODING 251
SWIDTH 600 0
DWIDTH 12 0
BBX 9 16 2 0
BITMAP
1C00
3600
6300
0000
0000
C180
C180
C180
C180
C180
C180
C180
C180
C380
C580
7980
ENDCHAR
STARTCHAR 00FC
ENCODING 252
SWIDTH 600 0
DWIDTH 12 0
BBX 9 14 2 0
BITMAP
3300
0000
0000
C180
C180
C180
C180
C180
C180
C180
C180
C380
C580
7980
ENDCHAR
STARTCHAR 00FD
ENCODING 253
SWIDTH 500 0
DWIDTH 10 0
BBX 10 20 0 -4
BITMAP
0300
0600
0C00
0000
0000
C040
6080
6080
6080
3100
3100
3100
1A00
1A00
1C00
0C00
0C00
0800
0800
1800
ENDCHAR
STARTCHAR 00FE
ENCODING 254
SWIDTH 650 0
DWIDTH 13 0
BBX 11 19 2 -4
BITMAP
C000
C000
C000
C000
CF80
D0C0
E040
C060
C060
C060
C060
C060
C0C0
F180
DF00
C000
C000
C000
C000
ENDCHAR
STARTCHAR 00FF
ENCODING 255
SWIDTH 500 0
DWIDTH 10 0
BBX 10 18 0 -4
BITMAP
3300
0000
0000
C040
6080
6080
6080
3100
3100
3100
1A00
1A00
1C00
0C00
0C00
0800
0800
1800
ENDCHAR
STARTCHAR 0100
ENCODING 256
SWIDTH 700 0
DWIDTH 14 0
BBX 13 16 0 0
BITMAP
0FC0
0000
0300
0700
0580
0980
0980
10C0
10C0
10C0
2060
3FE0
4030
4030
4030
8018
ENDCHAR
STARTCHAR 0101
ENCODING 257
SWIDTH 550 0
DWIDTH 11 0
BBX 10 14 1 0
BITMAP
3F00
0000
0000
3E00
4300
0300
0300
0300
3F00
6300
C300
C300
C700
79C0
ENDCHAR
STARTCHAR 0102
ENCODING 258
SWIDTH 700 0
DWIDTH 14 0
BBX 13 18 0 0
BITMAP
18C0
0880
0700
0000
0300
0700
0580
0980
0980
10C0
10C0
10C0
2060
3FE0
4030
4030
4030
8018
ENDCHAR
STARTCHAR 0103
ENCODING 259
SWIDTH 550 0
DWIDTH 11 0
BBX 10 16 1 0
BITMAP
6300
2200
1C00
0000
0000
3E00
4300
0300
0300
0300
3F00
6300
C300
C300
C700
79C0
ENDCHAR
STARTCHAR 0104
ENCODING 260
SWIDTH 700 0
DWIDTH 14 0
BBX 13 18 0 -4
BITMAP
0300
0700
0580
0980
0980
10C0
10C0
10C0
2060
3FE0
4030
4030
4030
8018
0020
0040
0040
0030
ENDCHAR
STARTCHAR 0105
ENCODING 261
SWIDTH 550 0
DWIDTH 11 0
BBX 10 15 1 -4
BITMAP
3E00
4300
0300
0300
0300
3F00
6300
C300
C300
C700
79C0
0100
0200
0200
0180
ENDCHAR
STARTCHAR 0106
ENCODING 262
SWIDTH 700 0
DWIDTH 14 0
BBX 12 18 1 0
BITMAP
00C0
0180
0300
0000
0FC0
3830
6000
6000
C000
C000
C000
C000
C000
C000
6000
6000
3810
0FE0
ENDCHAR
STARTCHAR 0107
ENCODING 263
SWIDTH 500 0
DWIDTH 10 0
BBX 8 16 1 0
BITMAP
03
06
0C
00
00
1F
70
60
C0
C0
C0
C0
C0
60
71
1E
ENDCHAR
STARTCHAR 0108
ENCODING 264
SWIDTH 700 0
DWIDTH 14 0
BBX 12 18 1 0
BITMAP
0380
06C0
0C60
0000
0FC0
3830
6000
6000
C000
C000
C000
C000
C000
C000
6000
6000
3810
0FE0
ENDCHAR
STARTCHAR 0109
ENCODING 265
SWIDTH 500 0
DWIDTH 10 0
BBX 9 16 1 0
BITMAP
0E00
1B00
3180
0000
0000
1F00
7000
6000
C000
C000
C000
C000
C000
6000
7100
1E00
ENDCHAR
STARTCHAR 010A
ENCODING 266
SWIDTH 700 0
DWIDTH 14 0
BBX 12 16 1 0
BITMAP
0300
0000
0FC0
3830
6000
6000
C000
C000
C000
C000
C000
C000
6000
6000
3810
0FE0
ENDCHAR
STARTCHAR 010B
ENCODING 267
SWIDTH 500 0
DWIDTH 10 0
BBX 8 14 1 0
BITMAP
0C
00
00
1F
70
60
C0
C0
C0
C0
C0
60
71
1E
ENDCHAR
STARTCHAR 010C
ENCODING 268
SWIDTH 700 0
DWIDTH 14 0
BBX 12 18 1 0
BITMAP
0C60
06C0
0380
0000
0FC0
3830
6000
6000
C000
C000
C000
C000
C000
C000
6000
6000
3810
0FE0
ENDCHAR
STARTCHAR 010D
ENCODING 269
SWIDTH 500 0
DWIDTH 10 0
BBX 9 16 1 0
BITMAP
3180
1B00
0E00
0000
0000
1F00
7000
6000
C000
C000
C000
C000
C000
6000
7100
1E00
ENDCHAR
STARTCHAR 010E
ENCODING 270
SWIDTH 750 0
DWIDTH 15 0
BBX 12 18 2 0
BITMAP
18C0
0D80
0700
0000
FF00
C1C0
C060
C060
C030
C030
C030
C030
C030
C030
C060
C060
C1C0
FF00
ENDCHAR
STARTCHAR 010F
ENCODING 271
SWIDTH 750 0
DWIDTH 15 0
BBX 14 15 1 0
BITMAP
006C
0064
0064
0068
1F60
30E0
6060
C060
C060
C060
C060
C060
4060
61E0
1E60
ENDCHAR
STARTCHAR 0110
ENCODING 272
SWIDTH 750 0
DWIDTH 15 0
BBX 14 14 0 0
BITMAP
3FC0
3070
3018
3018
300C
300C
300C
FE0C
300C
300C
3018
3018
3070
3FC0
ENDCHAR
STARTCHAR 0111
ENCODING 273
SWIDTH 650 0
DWIDTH 13 0
BBX 13 15 1 0
BITMAP
0060
0060
03F8
0060
1F60
30E0
6060
C060
C060
C060
C060
C060
4060
61E0
1E60
ENDCHAR
STARTCHAR 0112
ENCODING 274
SWIDTH 550 0
DWIDTH 11 0
BBX 9 16 2 0
BITMAP
7E00
0000
FF80
C000
C000
C000
C000
C000
FF00
C000
C000
C000
C000
C000
C000
FF80
ENDCHAR
STARTCHAR 0113
ENCODING 275
SWIDTH 550 0
DWIDTH 11 0
BBX 10 14 1 0
BITMAP
3F00
0000
0000
1F00
7180
60C0
C0C0
FFC0
C000
C000
C000
6000
7040
1F80
ENDCHAR
STARTCHAR 0114
ENCODING 276
SWIDTH 550 0
DWIDTH 11 0
BBX 9 18 2 0
BITMAP
6300
2200
1C00
0000
FF80
C000
C000
C000
C000
C000
FF00
C000
C000
C000
C000
C000
C000
FF80
ENDCHAR
STARTCHAR 0115
ENCODING 277
SWIDTH 550 0
DWIDTH 11 0
BBX 10 16 1 0
BITMAP
3180
1100
0E00
0000
0000
1F00
7180
60C0
C0C0
FFC0
C000
C000
C000
6000
7040
1F80
ENDCHAR
STARTCHAR 0116
ENCODING 278
SWIDTH 550 0
DWIDTH 11 0
BBX 9 16 2 0
BITMAP
1800
0000
FF80
C000
C000
C000
C000
C000
FF00
C000
C000
C000
C000
C000
C000
FF80
ENDCHAR
STARTCHAR 0117
ENCODING 279
SWIDTH 550 0
DWIDTH 11 0
BBX 10 14 1 0
BITMAP
0C00
0000
0000
1F00
7180
60C0
C0C0
FFC0
C000
C000
C000
6000
7040
1F80
ENDCHAR
STARTCHAR 0118
ENCODING 280
SWIDTH 550 0
DWIDTH 11 0
BBX 9 18 2 -4
BITMAP
FF80
C000
C000
C000
C000
C000
FF00
C000
C000
C000
C000
C000
C000
FF80
0100
0200
0200
0180
ENDCHAR
STARTCHAR 0119
ENCODING 281
SWIDTH 550 0
DWIDTH 11 0
BBX 10 15 1 -4
BITMAP
1F00
7180
60C0
C0C0
FFC0
C000
C000
C000
6000
7040
1F80
0200
0400
0400
0300
ENDCHAR
STARTCHAR 011A
ENCODING 282
SWIDTH 550 0
DWIDTH 11 0
BBX 9 18 2 0
BITMAP
6300
3600
1C00
0000
FF80
C000
C000
C000
C000
C000
FF00
C000
C000
C000
C000
C000
C000
FF80
ENDCHAR
STARTCHAR 011B
ENCODING 283
SWIDTH 550 0
DWIDTH 11 0
BBX 10 16 1 0
BITMAP
3180
1B00
0E00
0000
0000
1F00
7180
60C0
C0C0
FFC0
C000
C000
C000
6000
7040
1F80
ENDCHAR
STARTCHAR 011C
ENCODING 284
SWIDTH 700 0
DWIDTH 14 0
BBX 12 18 1 0
BITMAP
0380
06C0
0C60
0000
0FC0
3830
6000
6000
C000
C000
C000
C000
C030
C030
6030
6030
3830
0FE0
ENDCHAR
STARTCHAR 011D
ENCODING 285
SWIDTH 600 0
DWIDTH 12 0
BBX 11 20 1 -4
BITMAP
0E00
1B00
3180
0000
0000
1F60
30E0
6060
C060
C060
C060
C060
C060
60E0
6160
1E60
0060
0040
40C0
3F00
ENDCHAR
STARTCHAR 011E
ENCODING 286
SWIDTH 700 0
DWIDTH 14 0
BBX 12 18 1 0
BITMAP
0C60
0440
0380
0000
0FC0
3830
6000
6000
C000
C000
C000
C000
C030
C030
6030
6030
3830
0FE0
ENDCHAR
STARTCHAR 011F
ENCODING 287
SWIDTH 600 0
DWIDTH 12 0
BBX 11 20 1 -4
BITMAP
3180
1100
0E00
0000
0000
1F60
30E0
6060
C060
C060
C060
C060
C060
60E0
6160
1E60
0060
0040
40C0
3F00
ENDCHAR
STARTCHAR 0120
ENCODING 288
SWIDTH 700 0
DWIDTH 14 0
BBX 12 16 1 0
BITMAP
0300
0000
0FC0
3830
6000
6000
C000
C000
C000
C000
C030
C030
6030
6030
3830
0FE0
ENDCHAR
STARTCHAR 0121
ENCODING 289
SWIDTH 600 0
DWIDTH 12 0
BBX 11 18 1 -4
BITMAP
0C00
0000
0000
1F60
30E0
6060
C060
C060
C060
C060
C060
60E0
6160
1E60
0060
0040
40C0
3F00
ENDCHAR
STARTCHAR 0122
ENCODING 290
SWIDTH 700 0
DWIDTH 14 0
BBX 12 18 1 -4
BITMAP
0FC0
3830
6000
6000
C000
C000
C000
C000
C030
C030
6030
6030
3830
0FE0
0100
0380
0080
0380
ENDCHAR
STARTCHAR 0123
ENCODING 291
SWIDTH 600 0
DWIDTH 12 0
BBX 11 21 1 -4
BITMAP
0400
0800
0800
0C00
0000
0000
1F60
30E0
6060
C060
C060
C060
C060
C060
60E0
6160
1E60
0060
0040
40C0
3F00
ENDCHAR
STARTCHAR 0124
ENCODING 292
SWIDTH 750 0
DWIDTH 15 0
BBX 11 18 2 0
BITMAP
0E00
1B00
3180
0000
C060
C060
C060
C060
C060
C060
FFE0
C060
C060
C060
C060
C060
C060
C060
ENDCHAR
STARTCHAR 0125
ENCODING 293
SWIDTH 600 0
DWIDTH 12 0
BBX 12 20 -1 0
BITMAP
3800
6C00
C600
0000
0000
1800
1800
1800
1800
19E0
1A30
1C30
1830
1830
1830
1830
1830
1830
1830
1830
ENDCHAR
STARTCHAR 0126
ENCODING 294
SWIDTH 800 0
DWIDTH 16 0
BBX 15 14 0 0
BITMAP
3018
3018
3018
FFFE
3018
3018
3FF8
3018
3018
3018
3018
3018
3018
3018
ENDCHAR
STARTCHAR 0127
ENCODING 295
SWIDTH 600 0
DWIDTH 12 0
BBX 11 15 0 0
BITMAP
3000
3000
FE00
3000
33C0
3460
3860
3060
3060
3060
3060
3060
3060
3060
3060
ENDCHAR
STARTCHAR 0128
ENCODING 296
SWIDTH 300 0
DWIDTH 6 0
BBX 7 18 -1 0
BITMAP
E6
DE
00
00
18
18
18
18
18
18
18
18
18
18
18
18
18
18
ENDCHAR
STARTCHAR 0129
ENCODING 297
SWIDTH 300 0
DWIDTH 6 0
BBX 7 15 -1 0
BITMAP
E6
DE
00
00
18
18
18
18
18
18
18
18
18
18
18
ENDCHAR
STARTCHAR 012A
ENCODING 298
SWIDTH 300 0
DWIDTH 6 0
BBX 6 17 0 0
BITMAP
FC
00
00
30
30
30
30
30
30
30
30
30
30
30
30
30
30
ENDCHAR
STARTCHAR 012B
ENCODING 299
SWIDTH 300 0
DWIDTH 6 0
BBX 6 14 0 0
BITMAP
FC
00
00
30
30
30
30
30
30
30
30
30
30
30
ENDCHAR
STARTCHAR 012C
ENCODING 300
SWIDTH 300 0
DWIDTH 6 0
BBX 7 19 -1 0
BITMAP
C6
44
38
00
00
18
18
18
18
18
18
18
18
18
18
18
18
18
18
ENDCHAR
STARTCHAR 012D
ENCODING 301
SWIDTH 300 0
DWIDTH 6 0
BBX 7 16 -1 0
BITMAP
C6
44
38
00
00
18
18
18
18
18
18
18
18
18
18
18
ENDCHAR
STARTCHAR 012E
ENCODING 302
SWIDTH 300 0
DWIDTH 6 0
BBX 3 18 2 -4
BITMAP
C0
C0
C0
C0
C0
C0
C0
C0
C0
C0
C0
C0
C0
C0
40
80
80
60
ENDCHAR
STARTCHAR 012F
ENCODING 303
SWIDTH 300 0
DWIDTH 6 0
BBX 3 18 2 -4
BITMAP
C0
00
00
C0
C0
C0
C0
C0
C0
C0
C0
C0
C0
C0
40
80
80
60
ENDCHAR
STARTCHAR 0130
ENCODING 304
SWIDTH 300 0
DWIDTH 6 0
BBX 2 17 2 0
BITMAP
C0
00
00
C0
C0
C0
C0
C0
C0
C0
C0
C0
C0
C0
C0
C0
C0
ENDCHAR
STARTCHAR 0131
ENCODING 305
SWIDTH 300 0
DWIDTH 6 0
BBX 2 11 2 0
BITMAP
C0
C0
C0
C0
C0
C0
C0
C0
C0
C0
C0
ENDCHAR
STARTCHAR 0132
ENCODING 306
SWIDTH 600 0
DWIDTH 12 0
BBX 8 17 2 -3
BITMAP
C3
C3
C3
C3
C3
C3
C3
C3
C3
C3
C3
C3
C3
C3
03
06
3C
ENDCHAR
STARTCHAR 0133
ENCODING 307
SWIDTH 600 0
DWIDTH 12 0
BBX 8 18 2 -4
BITMAP
C3
00
00
C3
C3
C3
C3
C3
C3
C3
C3
C3
C3
C3
03
03
02
3C
ENDCHAR
STARTCHAR 0134
ENCODING 308
SWIDTH 300 0
DWIDTH 6 0
BBX 8 22 -2 -3
BITMAP
1C
36
63
00
00
0C
0C
0C
0C
0C
0C
0C
0C
0C
0C
0C
0C
0C
0C
0C
18
F0
ENDCHAR
STARTCHAR 0135
ENCODING 309
SWIDTH 300 0
DWIDTH 6 0
BBX 8 20 -1 -4
BITMAP
1C
36
63
00
00
0C
0C
0C
0C
0C
0C
0C
0C
0C
0C
0C
0C
0C
08
F0
ENDCHAR
STARTCHAR 0136
ENCODING 310
SWIDTH 650 0
DWIDTH 13 0
BBX 10 18 2 -4
BITMAP
C080
C100
C200
C400
C800
D000
E000
F000
D800
CC00
C600
C300
C180
C0C0
0400
0E00
0200
0E00
ENDCHAR
STARTCHAR 0137
ENCODING 311
SWIDTH 600 0
DWIDTH 12 0
BBX 9 19 2 -4
BITMAP
C000
C000
C000
C000
C100
C200
C400
C800
D000
F000
D800
CC00
C600
C300
C180
0800
1C00
0400
1C00
ENDCHAR
STARTCHAR 0138
ENCODING 312
SWIDTH 600 0
DWIDTH 12 0
BBX 9 11 2 0
BITMAP
C180
C300
C600
CC00
DC00
F800
D800
CC00
C600
C300
C180
ENDCHAR
STARTCHAR 0139
ENCODING 313
SWIDTH 550 0
DWIDTH 11 0
BBX 10 18 1 0
BITMAP
3000
6000
C000
0000
6000
6000
6000
6000
6000
6000
6000
6000
6000
6000
6000
6000
6000
7FC0
ENDCHAR
STARTCHAR 013A
ENCODING 314
SWIDTH 300 0
DWIDTH 6 0
BBX 4 20 1 0
BITMAP
30
60
C0
00
00
60
60
60
60
60
60
60
60
60
60
60
60
60
60
60
ENDCHAR
STARTCHAR 013B
ENCODING 315
SWIDTH 550 0
DWIDTH 11 0
BBX 9 18 2 -4
BITMAP
C000
C000
C000
C000
C000
C000
C000
C000
C000
C000
C000
C000
C000
FF80
0800
1C00
0400
1C00
ENDCHAR
STARTCHAR 013C
ENCODING 316
SWIDTH 300 0
DWIDTH 6 0
BBX 3 19 2 -4
BITMAP
C0
C0
C0
C0
C0
C0
C0
C0
C0
C0
C0
C0
C0
C0
C0
40
E0
20
E0
ENDCHAR
STARTCHAR 013D
ENCODING 317
SWIDTH 550 0
DWIDTH 11 0
BBX 9 14 2 0
BITMAP
C600
C200
C200
C400
C000
C000
C000
C000
C000
C000
C000
C000
C000
FF80
ENDCHAR
STARTCHAR 013E
ENCODING 318
SWIDTH 300 0
DWIDTH 6 0
BBX 6 15 2 0
BITMAP
CC
C4
C4
C8
C0
C0
C0
C0
C0
C0
C0
C0
C0
C0
C0
ENDCHAR
STARTCHAR 013F
ENCODING 319
SWIDTH 550 0
DWIDTH 11 0
BBX 9 14 2 0
BITMAP
C000
C000
C000
C000
C000
C000
CC00
C000
C000
C000
C000
C000
C000
FF80
ENDCHAR
STARTCHAR 0140
ENCODING 320
SWIDTH 300 0
DWIDTH 6 0
BBX 6 15 2 0
BITMAP
C0
C0
C0
C0
C0
C0
C0
CC
C0
C0
C0
C0
C0
C0
C0
ENDCHAR
STARTCHAR 0141
ENCODING 321
SWIDTH 550 0
DWIDTH 11 0
BBX 11 14 0 0
BITMAP
3000
3000
3000
3000
3400
3800
3000
7000
B000
3000
3000
3000
3000
3FE0
ENDCHAR
STARTCHAR 0142
ENCODING 322
SWIDTH 300 0
DWIDTH 6 0
BBX 6 15 0 0
BITMAP
30
30
30
30
30
34
38
30
70
B0
30
30
30
30
30
ENDCHAR
STARTCHAR 0143
ENCODING 323
SWIDTH 750 0
DWIDTH 15 0
BBX 11 18 2 0
BITMAP
0600
0C00
1800
0000
C020
E020
F020
B020
9820
9C20
8C20
8620
8720
8320
81A0
81E0
80E0
8060
ENDCHAR
STARTCHAR 0144
ENCODING 324
SWIDTH 600 0
DWIDTH 12 0
BBX 9 16 2 0
BITMAP
0C00
1800
3000
0000
0000
CF00
D180
E180
C180
C180
C180
C180
C180
C180
C180
C180
ENDCHAR
STARTCHAR 0145
ENCODING 325
SWIDTH 750 0
DWIDTH 15 0
BBX 11 18 2 -4
BITMAP
C020
E020
F020
B020
9820
9C20
8C20
8620
8720
8320
81A0
81E0
80E0
8060
0400
0E00
0200
0E00
ENDCHAR
STARTCHAR 0146
ENCODING 326
SWIDTH 600 0
DWIDTH 12 0
BBX 9 15 2 -4
BITMAP
CF00
D180
E180
C180
C180
C180
C180
C180
C180
C180
C180
0800
1C00
0400
1C00
ENDCHAR
STARTCHAR 0147
ENCODING 327
SWIDTH 750 0
DWIDTH 15 0
BBX 11 18 2 0
BITMAP
3180
1B00
0E00
0000
C020
E020
F020
B020
9820
9C20
8C20
8620
8720
8320
81A0
81E0
80E0
8060
ENDCHAR
STARTCHAR 0148
ENCODING 328
SWIDTH 600 0
DWIDTH 12 0
BBX 9 16 2 0
BITMAP
6300
3600
1C00
0000
0000
CF00
D180
E180
C180
C180
C180
C180
C180
C180
C180
C180
ENDCHAR
STARTCHAR 0149
ENCODING 329
SWIDTH 600 0
DWIDTH 12 0
BBX 12 15 1 0
BITMAP
C000
4000
4000
8000
19E0
1A30
1C30
1830
1830
1830
1830
1830
1830
1830
1830
ENDCHAR
STARTCHAR 014A
ENCODING 330
SWIDTH 750 0
DWIDTH 15 0
BBX 11 18 2 -4
BITMAP
C020
E020
F020
B820
9820
8C20
8E20
8620
8320
83A0
81E0
80E0
8060
8060
0020
0020
0020
03C0
ENDCHAR
STARTCHAR 014B
ENCODING 331
SWIDTH 600 0
DWIDTH 12 0
BBX 9 15 2 -4
BITMAP
CF00
D180
E180
C180
C180
C180
C180
C180
C180
C180
C180
0180
0180
0180
0F00
ENDCHAR
STARTCHAR 014C
ENCODING 332
SWIDTH 800 0
DWIDTH 16 0
BBX 14 16 1 0
BITMAP
0FC0
0000
0FC0
3870
6018
6018
C00C
C00C
C00C
C00C
C00C
C00C
6018
6018
3870
0FC0
ENDCHAR
STARTCHAR 014D
ENCODING 333
SWIDTH 600 0
DWIDTH 12 0
BBX 11 14 1 0
BITMAP
1F80
0000
0000
1F00
71C0
60C0
C060
C060
C060
C060
C060
60C0
71C0
1F00
ENDCHAR
STARTCHAR 014E
ENCODING 334
SWIDTH 800 0
DWIDTH 16 0
BBX 14 18 1 0
BITMAP
18C0
0880
0700
0000
0FC0
3870
6018
6018
C00C
C00C
C00C
C00C
C00C
C00C
6018
6018
3870
0FC0
ENDCHAR
STARTCHAR 014F
ENCODING 335
SWIDTH 600 0
DWIDTH 12 0
BBX 11 16 1 0
BITMAP
3180
1100
0E00
0000
0000
1F00
71C0
60C0
C060
C060
C060
C060
C060
60C0
71C0
1F00
ENDCHAR
STARTCHAR 0150
ENCODING 336
SWIDTH 800 0
DWIDTH 16 0
BBX 14 18 1 0
BITMAP
01B0
0360
06C0
0000
0FC0
3870
6018
6018
C00C
C00C
C00C
C00C
C00C
C00C
6018
6018
3870
0FC0
ENDCHAR
STARTCHAR 0151
ENCODING 337
SWIDTH 600 0
DWIDTH 12 0
BBX 11 16 1 0
BITMAP
0360
06C0
0D80
0000
0000
1F00
71C0
60C0
C060
C060
C060
C060
C060
60C0
71C0
1F00
ENDCHAR
STARTCHAR 0152
ENCODING 338
SWIDTH 1000 0
DWIDTH 20 0
BBX 19 14 1 0
BITMAP
0FBFE0
387000
607000
603000
C03000
C03000
C03FC0
C03000
C03000
C03000
603000
607000
387000
0FBFE0
ENDCHAR
STARTCHAR 0153
ENCODING 339
SWIDTH 950 0
DWIDTH 19 0
BBX 17 11 1 0
BITMAP
1E3E00
71E300
60C180
C0C180
C0FF80
C0C000
C0C000
C0C000
61E000
71F080
1E1F00
ENDCHAR
STARTCHAR 0154
ENCODING 340
SWIDTH 650 0
DWIDTH 13 0
BBX 11 18 2 0
BITMAP
0300
0600
0C00
0000
FE00
C300
C180
C180
C180
C300
C600
FC00
C600
C300
C100
C180
C0C0
C060
ENDCHAR
STARTCHAR 0155
ENCODING 341
SWIDTH 400 0
DWIDTH 8 0
BBX 6 16 2 0
BITMAP
30
60
C0
00
00
CC
D0
E0
C0
C0
C0
C0
C0
C0
C0
C0
ENDCHAR
STARTCHAR 0156
ENCODING 342
SWIDTH 650 0
DWIDTH 13 0
BBX 11 18 2 -4
BITMAP
FE00
C300
C180
C180
C180
C300
C600
FC00
C600
C300
C100
C180
C0C0
C060
0800
1C00
0400
1C00
ENDCHAR
STARTCHAR 0157
ENCODING 343
SWIDTH 400 0
DWIDTH 8 0
BBX 6 15 2 -4
BITMAP
CC
D0
E0
C0
C0
C0
C0
C0
C0
C0
C0
40
E0
20
E0
ENDCHAR
STARTCHAR 0158
ENCODING 344
SWIDTH 650 0
DWIDTH 13 0
BBX 11 18 2 0
BITMAP
6300
3600
1C00
0000
FE00
C300
C180
C180
C180
C300
C600
FC00
C600
C300
C100
C180
C0C0
C060
ENDCHAR
STARTCHAR 0159
ENCODING 345
SWIDTH 400 0
DWIDTH 8 0
BBX 7 16 1 0
BITMAP
C6
6C
38
00
00
66
68
70
60
60
60
60
60
60
60
60
ENDCHAR
STARTCHAR 015A
ENCODING 346
SWIDTH 550 0
DWIDTH 11 0
BBX 9 18 1 0
BITMAP
0300
0600
0C00
0000
3E00
6100
C000
C000
E000
7000
3C00
0F00
0380
0180
0180
0180
8300
7E00
ENDCHAR
STARTCHAR 015B
ENCODING 347
SWIDTH 500 0
DWIDTH 10 0
BBX 7 16 2 0
BITMAP
18
30
60
00
00
7C
C0
C0
C0
F0
3C
0E
06
06
8C
78
ENDCHAR
STARTCHAR 015C
ENCODING 348
SWIDTH 550 0
DWIDTH 11 0
BBX 9 18 1 0
BITMAP
1C00
3600
6300
0000
3E00
6100
C000
C000
E000
7000
3C00
0F00
0380
0180
0180
0180
8300
7E00
ENDCHAR
STARTCHAR 015D
ENCODING 349
SWIDTH 500 0
DWIDTH 10 0
BBX 7 16 2 0
BITMAP
38
6C
C6
00
00
7C
C0
C0
C0
F0
3C
0E
06
06
8C
78
ENDCHAR
STARTCHAR 015E
ENCODING 350
SWIDTH 550 0
DWIDTH 11 0
BBX 9 18 1 -4
BITMAP
3E00
6100
C000
C000
E000
7000
3C00
0F00
0380
0180
0180
0180
8300
7E00
0800
1C00
0400
1C00
ENDCHAR
STARTCHAR 015F
ENCODING 351
SWIDTH 500 0
DWIDTH 10 0
BBX 7 15 2 -4
BITMAP
7C
C0
C0
C0
F0
3C
0E
06
06
8C
78
10
38
08
38
ENDCHAR
STARTCHAR 0160
ENCODING 352
SWIDTH 550 0
DWIDTH 11 0
BBX 9 18 1 0
BITMAP
6300
3600
1C00
0000
3E00
6100
C000
C000
E000
7000
3C00
0F00
0380
0180
0180
0180
8300
7E00
ENDCHAR
STARTCHAR 0161
ENCODING 353
SWIDTH 500 0
DWIDTH 10 0
BBX 8 16 1 0
BITMAP
C6
6C
38
00
00
3E
60
60
60
78
1E
07
03
03
46
3C
ENDCHAR
STARTCHAR 0162
ENCODING 354
SWIDTH 650 0
DWIDTH 13 0
BBX 12 18 0 -4
BITMAP
FFF0
0600
0600
0600
0600
0600
0600
0600
0600
0600
0600
0600
0600
0600
0400
0E00
0200
0E00
ENDCHAR
STARTCHAR 0163
ENCODING 355
SWIDTH 350 0
DWIDTH 7 0
BBX 6 17 1 -4
BITMAP
60
60
FC
60
60
60
60
60
60
60
60
60
3C
10
38
08
38
ENDCHAR
STARTCHAR 0164
ENCODING 356
SWIDTH 650 0
DWIDTH 13 0
BBX 12 18 0 0
BITMAP
3180
1B00
0E00
0000
FFF0
0600
0600
0600
0600
0600
0600
0600
0600
0600
0600
0600
0600
0600
ENDCHAR
STARTCHAR 0165
ENCODING 357
SWIDTH 600 0
DWIDTH 12 0
BBX 7 17 1 0
BITMAP
06
02
02
04
60
60
FC
60
60
60
60
60
60
60
60
60
3C
ENDCHAR
STARTCHAR 0166
ENCODING 358
SWIDTH 650 0
DWIDTH 13 0
BBX 12 14 0 0
BITMAP
FFF0
0600
0600
0600
0600
0600
3FC0
0600
0600
0600
0600
0600
0600
0600
ENDCHAR
STARTCHAR 0167
ENCODING 359
SWIDTH 350 0
DWIDTH 7 0
BBX 7 13 0 0
BITMAP
30
30
7E
30
30
30
FE
30
30
30
30
30
1E
ENDCHAR
STARTCHAR 0168
ENCODING 360
SWIDTH 700 0
DWIDTH 14 0
BBX 10 17 2 0
BITMAP
7300
6F00
0000
C0C0
C0C0
C0C0
C0C0
C0C0
C0C0
C0C0
C0C0
C0C0
C0C0
C0C0
C0C0
6180
3F00
ENDCHAR
STARTCHAR 0169
ENCODING 361
SWIDTH 600 0
DWIDTH 12 0
BBX 9 15 2 0
BITMAP
7300
6F00
0000
0000
C180
C180
C180
C180
C180
C180
C180
C180
C380
C580
7980
ENDCHAR
STARTCHAR 016A
ENCODING 362
SWIDTH 700 0
DWIDTH 14 0
BBX 10 16 2 0
BITMAP
3F00
0000
C0C0
C0C0
C0C0
C0C0
C0C0
C0C0
C0C0
C0C0
C0C0
C0C0
C0C0
C0C0
6180
3F00
ENDCHAR
STARTCHAR 016B
ENCODING 363
SWIDTH 600 0
DWIDTH 12 0
BBX 9 14 2 0
BITMAP
3F00
0000
0000
C180
C180
C180
C180
C180
C180
C180
C180
C380
C580
7980
ENDCHAR
STARTCHAR 016C
ENCODING 364
SWIDTH 700 0
DWIDTH 14 0
BBX 10 18 2 0
BITMAP
6300
2200
1C00
0000
C0C0
C0C0
C0C0
C0C0
C0C0
C0C0
C0C0
C0C0
C0C0
C0C0
C0C0
C0C0
6180
3F00
ENDCHAR
STARTCHAR 016D
ENCODING 365
SWIDTH 600 0
DWIDTH 12 0
BBX 9 16 2 0
BITMAP
6300
2200
1C00
0000
0000
C180
C180
C180
C180
C180
C180
C180
C180
C380
C580
7980
ENDCHAR
STARTCHAR 016E
ENCODING 366
SWIDTH 700 0
DWIDTH 14 0
BBX 10 19 2 0
BITMAP
0C00
1200
1200
0C00
0000
C0C0
C0C0
C0C0
C0C0
C0C0
C0C0
C0C0
C0C0
C0C0
C0C0
C0C0
C0C0
6180
3F00
ENDCHAR
STARTCHAR 016F
ENCODING 367
SWIDTH 600 0
DWIDTH 12 0
BBX 9 17 2 0
BITMAP
0C00
1200
1200
0C00
0000
0000
C180
C180
C180
C180
C180
C180
C180
C180
C380
C580
7980
ENDCHAR
STARTCHAR 0170
ENCODING 368
SWIDTH 700 0
DWIDTH 14 0
BBX 10 18 2 0
BITMAP
06C0
0D80
1B00
0000
C0C0
C0C0
C0C0
C0C0
C0C0
C0C0
C0C0
C0C0
C0C0
C0C0
C0C0
C0C0
6180
3F00
ENDCHAR
STARTCHAR 0171
ENCODING 369
SWIDTH 600 0
DWIDTH 12 0
BBX 9 16 2 0
BITMAP
0D80
1B00
3600
0000
0000
C180
C180
C180
C180
C180
C180
C180
C180
C380
C580
7980
ENDCHAR
STARTCHAR 0172
ENCODING 370
SWIDTH 700 0
DWIDTH 14 0
BBX 10 18 2 -4
BITMAP
C0C0
C0C0
C0C0
C0C0
C0C0
C0C0
C0C0
C0C0
C0C0
C0C0
C0C0
C0C0
6180
3F00
0200
0400
0400
0300
ENDCHAR
STARTCHAR 0173
ENCODING 371
SWIDTH 600 0
DWIDTH 12 0
BBX 9 15 2 -4
BITMAP
C180
C180
C180
C180
C180
C180
C180
C180
C380
C580
7980
0100
0200
0200
0180
ENDCHAR
STARTCHAR 0174
ENCODING 372
SWIDTH 850 0
DWIDTH 17 0
BBX 17 18 0 0
BITMAP
01C000
036000
063000
000000
C0C080
E0C080
61E100
616100
616100
316200
316200
323200
3A3200
1A3400
1A3400
1A3400
0C1800
0C1800
ENDCHAR
STARTCHAR 0175
ENCODING 373
SWIDTH 750 0
DWIDTH 15 0
BBX 15 16 0 0
BITMAP
0380
06C0
0C60
0000
0000
C182
C182
6384
62C4
62C4
64C4
3468
3468
3468
1830
1830
ENDCHAR
STARTCHAR 0176
ENCODING 374
SWIDTH 600 0
DWIDTH 12 0
BBX 12 18 0 0
BITMAP
0700
0D80
18C0
0000
C010
6020
3040
3040
1880
1880
0D00
0600
0600
0600
0600
0600
0600
0600
ENDCHAR
STARTCHAR 0177
ENCODING 375
SWIDTH 500 0
DWIDTH 10 0
BBX 10 20 0 -4
BITMAP
0E00
1B00
3180
0000
0000
C040
6080
6080
6080
3100
3100
3100
1A00
1A00
1C00
0C00
0C00
0800
0800
1800
ENDCHAR
STARTCHAR 0178
ENCODING 376
SWIDTH 600 0
DWIDTH 12 0
BBX 12 16 0 0
BITMAP
1980
0000
C010
6020
3040
3040
1880
1880
0D00
0600
0600
0600
0600
0600
0600
0600
ENDCHAR
STARTCHAR 0179
ENCODING 377
SWIDTH 600 0
DWIDTH 12 0
BBX 10 18 1 0
BITMAP
0300
0600
0C00
0000
FFC0
00C0
0180
0300
0300
0600
0C00
0C00
1800
3000
3000
6000
C000
FFC0
ENDCHAR
STARTCHAR 017A
ENCODING 378
SWIDTH 550 0
DWIDTH 11 0
BBX 9 16 1 0
BITMAP
0300
0600
0C00
0000
0000
FF80
0180
0300
0600
0C00
1C00
1800
3000
6000
C000
FF80
ENDCHAR
STARTCHAR 017B
ENCODING 379
SWIDTH 600 0
DWIDTH 12 0
BBX 10 16 1 0
BITMAP
0C00
0000
FFC0
00C0
0180
0300
0300
0600
0C00
0C00
1800
3000
3000
6000
C000
FFC0
ENDCHAR
STARTCHAR 017C
ENCODING 380
SWIDTH 550 0
DWIDTH 11 0
BBX 9 14 1 0
BITMAP
0C00
0000
0000
FF80
0180
0300
0600
0C00
1C00
1800
3000
6000
C000
FF80
ENDCHAR
STARTCHAR 017D
ENCODING 381
SWIDTH 600 0
DWIDTH 12 0
BBX 10 18 1 0
BITMAP
3180
1B00
0E00
0000
FFC0
00C0
0180
0300
0300
0600
0C00
0C00
1800
3000
3000
6000
C000
FFC0
ENDCHAR
STARTCHAR 017E
ENCODING 382
SWIDTH 550 0
DWIDTH 11 0
BBX 9 16 1 0
BITMAP
6300
3600
1C00
0000
0000
FF80
0180
0300
0600
0C00
1C00
1800
3000
6000
C000
FF80
ENDCHAR
STARTCHAR 017F
ENCODING 383
SWIDTH 350 0
DWIDTH 7 0
BBX 8 15 0 0
BITMAP
1F
30
30
30
F0
30
30
30
30
30
30
30
30
30
30
ENDCHAR
STARTCHAR 0180
ENCODING 384
SWIDTH 650 0
DWIDTH 13 0
BBX 12 15 0 0
BITMAP
3000
3000
FE00
3000
33C0
3C60
3020
3030
3030
3030
3030
3030
3060
3860
3780
ENDCHAR
STARTCHAR 0181
ENCODING 385
SWIDTH 700 0
DWIDTH 14 0
BBX 13 14 0 0
BITMAP
7FC0
CC70
CC30
CC30
0C30
0C60
0F80
0C70
0C30
0C18
0C18
0C18
0C30
0FE0
ENDCHAR
STARTCHAR 0182
ENCODING 386
SWIDTH 600 0
DWIDTH 12 0
BBX 9 14 2 0
BITMAP
FF00
C000
C000
C000
C000
C000
FE00
C300
C180
C180
C180
C180
C300
FC00
ENDCHAR
STARTCHAR 0183
ENCODING 387
SWIDTH 650 0
DWIDTH 13 0
BBX 10 15 2 0
BITMAP
FF00
C000
C000
C000
CF00
F180
C0C0
C0C0
C0C0
C0C0
C0C0
C0C0
C180
E180
DE00
ENDCHAR
STARTCHAR 0184
ENCODING 388
SWIDTH 550 0
DWIDTH 11 0
BBX 9 14 2 0
BITMAP
C000
C000
C000
C000
C000
C000
FE00
C300
C180
C180
C180
C180
C300
FC00
ENDCHAR
STARTCHAR 0185
ENCODING 389
SWIDTH 500 0
DWIDTH 10 0
BBX 7 11 2 0
BITMAP
C0
C0
C0
C0
F8
CE
C6
C6
C6
CC
F8
ENDCHAR
STARTCHAR 0186
ENCODING 390
SWIDTH 700 0
DWIDTH 14 0
BBX 12 14 1 0
BITMAP
7F00
81C0
00E0
0060
0030
0030
0030
0030
0030
0030
0060
0060
C1C0
3F00
ENDCHAR
STARTCHAR 0187
ENCODING 391
SWIDTH 700 0
DWIDTH 14 0
BBX 15 19 1 0
BITMAP
000E
0010
0030
0030
0030
0FF0
3830
6000
6000
C000
C000
C000
C000
C000
C000
6000
7000
3810
0FE0
ENDCHAR
STARTCHAR 0188
ENCODING 392
SWIDTH 550 0
DWIDTH 11 0
BBX 11 15 1 0
BITMAP
01E0
0300
0300
0300
3F00
7000
6000
C000
C000
C000
C000
C000
6000
7100
1E00
ENDCHAR
STARTCHAR 0189
ENCODING 393
SWIDTH 750 0
DWIDTH 15 0
BBX 14 14 0 0
BITMAP
3FC0
3070
3018
3018
300C
300C
300C
FE0C
300C
300C
3018
3018
3070
3FC0
ENDCHAR
STARTCHAR 018A
ENCODING 394
SWIDTH 850 0
DWIDTH 17 0
BBX 16 14 0 0
BITMAP
7FF0
CC1C
CC06
CC06
0C03
0C03
0C03
0C03
0C03
0C03
0C06
0C06
0C1C
0FF0
ENDCHAR
STARTCHAR 018B
ENCODING 395
SWIDTH 600 0
DWIDTH 12 0
BBX 9 14 1 0
BITMAP
7F80
0180
0180
0180
0180
0180
3F80
6180
C180
C180
C180
C180
6180
1F80
ENDCHAR
STARTCHAR 018C
ENCODING 396
SWIDTH 650 0
DWIDTH 13 0
BBX 10 15 1 0
BITMAP
3FC0
00C0
00C0
00C0
1EC0
61C0
60C0
C0C0
C0C0
C0C0
C0C0
C0C0
C0C0
63C0
3CC0
ENDCHAR
STARTCHAR 018D
ENCODING 397
SWIDTH 600 0
DWIDTH 12 0
BBX 10 15 1 0
BITMAP
1E00
6180
4080
C0C0
C0C0
C0C0
C1C0
6380
3F00
1E00
0780
01C0
00C0
00C0
3F00
ENDCHAR
STARTCHAR 018E
ENCODING 398
SWIDTH 550 0
DWIDTH 11 0
BBX 8 14 0 0
BITMAP
FF
03
03
03
03
03
03
7F
03
03
03
03
03
FF
ENDCHAR
STARTCHAR 018F
ENCODING 399
SWIDTH 700 0
DWIDTH 14 0
BBX 11 14 1 0
BITMAP
7E00
8380
01C0
00C0
0060
0060
0060
FFE0
C060
C060
C0C0
60C0
6180
1E00
ENDCHAR
STARTCHAR 0190
ENCODING 400
SWIDTH 550 0
DWIDTH 11 0
BBX 8 14 1 0
BITMAP
3E
E1
C0
C0
C0
60
3C
70
C0
C0
C0
C0
61
3E
ENDCHAR
STARTCHAR 0191
ENCODING 401
SWIDTH 550 0
DWIDTH 11 0
BBX 10 18 0 -4
BITMAP
3FC0
3000
3000
3000
3000
3000
3F80
3000
3000
3000
3000
3000
3000
3000
3000
3000
3000
E000
ENDCHAR
STARTCHAR 0192
ENCODING 402
SWIDTH 400 0
DWIDTH 8 0
BBX 10 19 -1 -4
BITMAP
07C0
0C00
0C00
0C00
3F80
0C00
0C00
0C00
0C00
0C00
0C00
0C00
0C00
0C00
0C00
0C00
0C00
0800
F000
ENDCHAR
STARTCHAR 0193
ENCODING 403
SWIDTH 700 0
DWIDTH 14 0
BBX 15 19 1 0
BITMAP
000E
0010
0030
0030
0030
0FF0
3830
6000
6000
C000
C000
C000
C000
C030
C030
6030
7030
3830
0FE0
ENDCHAR
STARTCHAR 0194
ENCODING 404
SWIDTH 650 0
DWIDTH 13 0
BBX 13 18 0 -4
BITMAP
C018
6030
6030
3060
3060
18C0
18C0
0C80
0D80
0780
0700
0300
0700
0780
0D80
0D80
0D80
0700
ENDCHAR
STARTCHAR 0195
ENCODING 405
SWIDTH 900 0
DWIDTH 18 0
BBX 15 15 2 0
BITMAP
C000
C000
C000
C000
CF06
D186
E186
C186
C186
C186
C186
C184
C18C
C188
C0F0
ENDCHAR
STARTCHAR 0196
ENCODING 406
SWIDTH 400 0
DWIDTH 8 0
BBX 6 14 2 0
BITMAP
C0
C0
C0
C0
C0
C0
C0
C0
C0
C0
C0
C0
60
3C
ENDCHAR
STARTCHAR 0197
ENCODING 407
SWIDTH 350 0
DWIDTH 7 0
BBX 6 14 1 0
BITMAP
30
30
30
30
30
30
FC
30
30
30
30
30
30
30
ENDCHAR
STARTCHAR 0198
ENCODING 408
SWIDTH 650 0
DWIDTH 13 0
BBX 12 14 2 0
BITMAP
C0E0
C390
C600
CC00
CC00
D800
F000
D800
DC00
CE00
C700
C380
C1C0
C0E0
ENDCHAR
STARTCHAR 0199
ENCODING 409
SWIDTH 600 0
DWIDTH 12 0
BBX 9 15 2 0
BITMAP
1F00
6000
4000
C000
C100
C200
C400
C800
D000
F800
DC00
CE00
C600
C300
C180
ENDCHAR
STARTCHAR 019A
ENCODING 410
SWIDTH 350 0
DWIDTH 7 0
BBX 6 15 1 0
BITMAP
30
30
30
30
30
30
30
FC
30
30
30
30
30
30
30
ENDCHAR
STARTCHAR 019B
ENCODING 411
SWIDTH 600 0
DWIDTH 12 0
BBX 11 15 0 0
BITMAP
7000
0900
0600
1C00
6600
0E00
0E00
1D00
1900
1980
3080
3080
6040
6040
C020
ENDCHAR
STARTCHAR 019C
ENCODING 412
SWIDTH 1050 0
DWIDTH 21 0
BBX 18 14 2 0
BITMAP
C0C0C0
C0C0C0
C0C0C0
C0C0C0
C0C0C0
C0C0C0
C0C0C0
C0C0C0
C0C0C0
C0C0C0
C0C0C0
C1C1C0
6262C0
3C3CC0
ENDCHAR
STARTCHAR 019D
ENCODING 413
SWIDTH 750 0
DWIDTH 15 0
BBX 14 18 -1 -4
BITMAP
1804
1C04
1E04
1604
1304
1384
1184
10C4
10E4
1064
1034
103C
101C
100C
1000
1000
1000
E000
ENDCHAR
STARTCHAR 019E
ENCODING 414
SWIDTH 600 0
DWIDTH 12 0
BBX 9 11 2 0
BITMAP
CF00
D180
E180
C180
C180
C180
C180
C180
C180
C180
C180
ENDCHAR
STARTCHAR 019F
ENCODING 415
SWIDTH 800 0
DWIDTH 16 0
BBX 14 14 1 0
BITMAP
0FC0
3870
6018
6018
C00C
C00C
FFFC
C00C
C00C
C00C
6018
7038
3870
0FC0
ENDCHAR
STARTCHAR 01A0
ENCODING 416
SWIDTH 800 0
DWIDTH 16 0
BBX 14 17 1 0
BITMAP
000C
000C
000C
0FF8
3870
6018
6018
C00C
C00C
C00C
C00C
C00C
C00C
6018
6018
3870
0FC0
ENDCHAR
STARTCHAR 01A1
ENCODING 417
SWIDTH 650 0
DWIDTH 13 0
BBX 11 14 1 0
BITMAP
0060
0060
0060
1FC0
6180
6180
C0C0
C0C0
C0C0
C0C0
C0C0
6180
6180
1E00
ENDCHAR
STARTCHAR 01A2
ENCODING 418
SWIDTH 1050 0
DWIDTH 21 0
BBX 19 18 1 -4
BITMAP
0FC780
387CC0
601860
601860
C00C60
C00C60
C00C60
C00C60
C00C60
C00C60
601860
601860
387060
0FC060
000060
000060
000060
000060
ENDCHAR
STARTCHAR 01A3
ENCODING 419
SWIDTH 900 0
DWIDTH 18 0
BBX 15 15 1 -4
BITMAP
1E78
61CC
6186
C0C6
C0C6
C0C6
C0C6
C0C6
6186
6186
1E06
0006
0006
0006
0006
ENDCHAR
STARTCHAR 01A4
ENCODING 420
SWIDTH 700 0
DWIDTH 14 0
BBX 13 14 0 0
BITMAP
7FE0
CC30
CC18
CC18
0C18
0C38
0C70
0FC0
0C00
0C00
0C00
0C00
0C00
0C00
ENDCHAR
STARTCHAR 01A5
ENCODING 421
SWIDTH 650 0
DWIDTH 13 0
BBX 10 19 2 -4
BITMAP
1F00
6000
4000
C000
CF00
F180
C0C0
C0C0
C0C0
C0C0
C0C0
C0C0
C180
E180
DE00
C000
C000
C000
C000
ENDCHAR
STARTCHAR 01A6
ENCODING 422
SWIDTH 650 0
DWIDTH 13 0
BBX 11 19 2 -3
BITMAP
C000
C000
FE00
C300
C180
C180
C180
C300
C700
FC00
CC00
C600
C700
C300
C380
C180
01C0
00C0
00E0
ENDCHAR
STARTCHAR 01A7
ENCODING 423
SWIDTH 550 0
DWIDTH 11 0
BBX 9 14 1 0
BITMAP
3E00
4300
0180
0180
0380
0700
1E00
7800
E000
C000
C000
C000
6080
3F00
ENDCHAR
STARTCHAR 01A8
ENCODING 424
SWIDTH 500 0
DWIDTH 10 0
BBX 7 11 2 0
BITMAP
7C
06
06
06
1E
78
E0
C0
C0
62
3C
ENDCHAR
STARTCHAR 01A9
ENCODING 425
SWIDTH 600 0
DWIDTH 12 0
BBX 11 14 0 0
BITMAP
FFE0
E000
7000
3800
1800
0C00
0600
0600
0C00
1800
3000
6000
C000
FFE0
ENDCHAR
STARTCHAR 01AA
ENCODING 426
SWIDTH 550 0
DWIDTH 11 0
BBX 11 19 0 -4
BITMAP
7800
C400
C600
C600
7E00
0600
0600
0600
0600
0600
0600
0600
0600
0600
0600
0600
0600
0300
01E0
ENDCHAR
STARTCHAR 01AB
ENCODING 427
SWIDTH 350 0
DWIDTH 7 0
BBX 6 17 1 -4
BITMAP
60
60
FC
60
60
60
60
60
60
60
60
70
3C
0C
0C
0C
78
ENDCHAR
STARTCHAR 01AC
ENCODING 428
SWIDTH 650 0
DWIDTH 13 0
BBX 13 14 0 0
BITMAP
7FF8
C300
C300
C300
0300
0300
0300
0300
0300
0300
0300
0300
0300
0300
ENDCHAR
STARTCHAR 01AD
ENCODING 429
SWIDTH 350 0
DWIDTH 7 0
BBX 6 15 1 0
BITMAP
3C
60
60
60
FC
60
60
60
60
60
60
60
60
70
3C
ENDCHAR
STARTCHAR 01AE
ENCODING 430
SWIDTH 650 0
DWIDTH 13 0
BBX 12 18 0 -4
BITMAP
FFF0
0600
0600
0600
0600
0600
0600
0600
0600
0600
0600
0600
0600
0600
0600
0600
0600
03C0
ENDCHAR
STARTCHAR 01AF
ENCODING 431
SWIDTH 800 0
DWIDTH 16 0
BBX 14 17 2 0
BITMAP
000C
000C
000C
C0F8
C0C0
C0C0
C0C0
C0C0
C0C0
C0C0
C0C0
C0C0
C0C0
C0C0
C0C0
6180
3F00
ENDCHAR
STARTCHAR 01B0
ENCODING 432
SWIDTH 750 0
DWIDTH 15 0
BBX 13 14 2 0
BITMAP
0018
0018
0018
C1F0
C1C0
C180
C180
C180
C180
C180
C180
C380
C580
7980
ENDCHAR
STARTCHAR 01B1
ENCODING 433
SWIDTH 800 0
DWIDTH 16 0
BBX 14 14 1 0
BITMAP
FCFC
1860
3030
6018
6018
C00C
C00C
C00C
C00C
C00C
6018
6018
3870
0FC0
ENDCHAR
STARTCHAR 01B2
ENCODING 434
SWIDTH 700 0
DWIDTH 14 0
BBX 11 14 2 0
BITMAP
C0C0
C0C0
C060
C060
C060
C060
C060
C060
C060
C060
C0C0
60C0
6180
1F00
ENDCHAR
STARTCHAR 01B3
ENCODING 435
SWIDTH 650 0
DWIDTH 13 0
BBX 12 14 1 0
BITMAP
E010
3020
3040
1840
1880
0D80
0D00
0600
0600
0600
0600
0600
0600
0600
ENDCHAR
STARTCHAR 01B4
ENCODING 436
SWIDTH 650 0
DWIDTH 13 0
BBX 14 18 0 -4
BITMAP
001C
0020
0020
C040
6040
6080
6080
3080
3100
3900
1A00
1A00
0E00
0C00
0C00
0800
0800
1800
ENDCHAR
STARTCHAR 01B5
ENCODING 437
SWIDTH 600 0
DWIDTH 12 0
BBX 10 14 1 0
BITMAP
FFC0
01C0
0180
0300
0700
0600
7F80
1C00
1800
3800
3000
6000
E000
FFC0
ENDCHAR
STARTCHAR 01B6
ENCODING 438
SWIDTH 550 0
DWIDTH 11 0
BBX 9 11 1 0
BITMAP
FF80
0380
0700
0600
0C00
7F80
1800
3000
7000
E000
FF80
ENDCHAR
STARTCHAR 01B7
ENCODING 439
SWIDTH 550 0
DWIDTH 11 0
BBX 9 14 1 0
BITMAP
FF80
0300
0600
0C00
1800
3000
7C00
0700
0380
0180
0180
0180
8300
7C00
ENDCHAR
STARTCHAR 01B8
ENCODING 440
SWIDTH 550 0
DWIDTH 11 0
BBX 9 14 1 0
BITMAP
FF80
6000
3000
1800
0C00
0600
1F00
7000
E000
C000
C000
C000
6080
1F00
ENDCHAR
STARTCHAR 01B9
ENCODING 441
SWIDTH 500 0
DWIDTH 10 0
BBX 9 15 1 -4
BITMAP
FF80
6000
3000
1800
0C00
0600
1F00
7800
6000
C000
C000
C000
C000
6000
1F80
ENDCHAR
STARTCHAR 01BA
ENCODING 442
SWIDTH 500 0
DWIDTH 10 0
BBX 8 15 1 -4
BITMAP
FF
06
0C
38
70
7E
07
03
03
0E
3C
F0
C0
C2
7C
ENDCHAR
STARTCHAR 01BB
ENCODING 443
SWIDTH 650 0
DWIDTH 13 0
BBX 9 14 2 0
BITMAP
7E00
8300
0180
0180
0180
0380
0300
FF80
1800
3000
6000
6000
C000
FF80
ENDCHAR
STARTCHAR 01BC
ENCODING 444
SWIDTH 650 0
DWIDTH 13 0
BBX 8 14 2 0
BITMAP
FF
C0
C0
C0
C0
F8
0E
06
03
03
03
03
06
FC
ENDCHAR
STARTCHAR 01BD
ENCODING 445
SWIDTH 500 0
DWIDTH 10 0
BBX 6 11 2 0
BITMAP
FC
C0
C0
C0
F0
18
0C
0C
0C
18
F0
ENDCHAR
STARTCHAR 01BE
ENCODING 446
SWIDTH 450 0
DWIDTH 9 0
BBX 8 15 1 0
BITMAP
30
30
30
30
FE
30
30
18
0C
06
03
03
03
87
7C
ENDCHAR
STARTCHAR 01BF
ENCODING 447
SWIDTH 600 0
DWIDTH 12 0
BBX 9 15 2 -4
BITMAP
CF00
D180
E180
C180
C180
C300
C300
C600
CC00
D800
E000
C000
C000
C000
C000
ENDCHAR
STARTCHAR 01C0
ENCODING 448
SWIDTH 300 0
DWIDTH 6 0
BBX 2 15 2 0
BITMAP
C0
C0
C0
C0
C0
C0
C0
C0
C0
C0
C0
C0
C0
C0
C0
ENDCHAR
STARTCHAR 01C1
ENCODING 449
SWIDTH 450 0
DWIDTH 9 0
BBX 5 15 2 0
BITMAP
D8
D8
D8
D8
D8
D8
D8
D8
D8
D8
D8
D8
D8
D8
D8
ENDCHAR
STARTCHAR 01C2
ENCODING 450
SWIDTH 650 0
DWIDTH 13 0
BBX 10 15 2 0
BITMAP
0C00
0C00
0C00
0C00
FFC0
0C00
0C00
0C00
FFC0
0C00
0C00
0C00
0C00
0C00
0C00
ENDCHAR
STARTCHAR 01C3
ENCODING 451
SWIDTH 300 0
DWIDTH 6 0
BBX 2 14 2 0
BITMAP
C0
C0
C0
C0
C0
C0
C0
C0
C0
C0
C0
00
00
C0
ENDCHAR
STARTCHAR 01C4
ENCODING 452
SWIDTH 1250 0
DWIDTH 25 0
BBX 22 18 2 0
BITMAP
000318
0001B0
0000E0
000000
FF0FFC
C1C00C
C06018
C06030
C03030
C03060
C030C0
C030C0
C03180
C03300
C06300
C06600
C1CC00
FF0FFC
ENDCHAR
STARTCHAR 01C5
ENCODING 453
SWIDTH 1300 0
DWIDTH 26 0
BBX 22 16 2 0
BITMAP
000318
0001B0
FF00E0
C1C000
C06000
C067FC
C0300C
C03018
C03030
C03060
C030E0
C030C0
C06180
C06300
C1C600
FF07FC
ENDCHAR
STARTCHAR 01C6
ENCODING 454
SWIDTH 1150 0
DWIDTH 23 0
BBX 20 16 1 0
BITMAP
000C60
0066C0
006380
006000
006000
1F7FF0
30E030
606060
C060C0
C06180
C06380
C06300
C06600
406C00
61F800
1E7FF0
ENDCHAR
STARTCHAR 01C7
ENCODING 455
SWIDTH 850 0
DWIDTH 17 0
BBX 12 17 2 -3
BITMAP
C030
C030
C030
C030
C030
C030
C030
C030
C030
C030
C030
C030
C030
FFB0
0030
0060
03C0
ENDCHAR
STARTCHAR 01C8
ENCODING 456
SWIDTH 800 0
DWIDTH 16 0
BBX 13 18 2 -4
BITMAP
C018
C000
C000
C018
C018
C018
C018
C018
C018
C018
C018
C018
C018
FF98
0018
0018
0010
01E0
ENDCHAR
STARTCHAR 01C9
ENCODING 457
SWIDTH 550 0
DWIDTH 11 0
BBX 8 19 2 -4
BITMAP
C0
C3
C0
C0
C3
C3
C3
C3
C3
C3
C3
C3
C3
C3
C3
03
03
02
3C
ENDCHAR
STARTCHAR 01CA
ENCODING 458
SWIDTH 1000 0
DWIDTH 20 0
BBX 16 17 2 -3
BITMAP
C023
E023
F023
B023
9823
9C23
8C23
8623
8723
8323
81A3
81E3
80E3
8063
0003
0006
003C
ENDCHAR
STARTCHAR 01CB
ENCODING 459
SWIDTH 1000 0
DWIDTH 20 0
BBX 17 18 2 -4
BITMAP
C02180
E02000
F02000
B02180
982180
9C2180
8C2180
862180
872180
832180
81A180
81E180
80E180
806180
000180
000180
000100
001E00
ENDCHAR
STARTCHAR 01CC
ENCODING 460
SWIDTH 850 0
DWIDTH 17 0
BBX 14 18 2 -4
BITMAP
000C
0000
0000
CF0C
D18C
E18C
C18C
C18C
C18C
C18C
C18C
C18C
C18C
C18C
000C
000C
0008
00F0
ENDCHAR
STARTCHAR 01CD
ENCODING 461
SWIDTH 700 0
DWIDTH 14 0
BBX 13 18 0 0
BITMAP
18C0
0D80
0700
0000
0300
0700
0580
0980
0980
10C0
10C0
10C0
2060
3FE0
4030
4030
4030
8018
ENDCHAR
STARTCHAR 01CE
ENCODING 462
SWIDTH 550 0
DWIDTH 11 0
BBX 10 16 1 0
BITMAP
6300
3600
1C00
0000
0000
3E00
4300
0300
0300
0300
3F00
6300
C300
C300
C700
79C0
ENDCHAR
STARTCHAR 01CF
ENCODING 463
SWIDTH 300 0
DWIDTH 6 0
BBX 7 19 -1 0
BITMAP
C6
6C
38
00
00
18
18
18
18
18
18
18
18
18
18
18
18
18
18
ENDCHAR
STARTCHAR 01D0
ENCODING 464
SWIDTH 300 0
DWIDTH 6 0
BBX 7 16 -1 0
BITMAP
C6
6C
38
00
00
18
18
18
18
18
18
18
18
18
18
18
ENDCHAR
STARTCHAR 01D1
ENCODING 465
SWIDTH 800 0
DWIDTH 16 0
BBX 14 18 1 0
BITMAP
18C0
0D80
0700
0000
0FC0
3870
6018
6018
C00C
C00C
C00C
C00C
C00C
C00C
6018
6018
3870
0FC0
ENDCHAR
STARTCHAR 01D2
ENCODING 466
SWIDTH 600 0
DWIDTH 12 0
BBX 11 16 1 0
BITMAP
3180
1B00
0E00
0000
0000
1F00
71C0
60C0
C060
C060
C060
C060
C060
60C0
71C0
1F00
ENDCHAR
STARTCHAR 01D3
ENCODING 467
SWIDTH 700 0
DWIDTH 14 0
BBX 10 18 2 0
BITMAP
6300
3600
1C00
0000
C0C0
C0C0
C0C0
C0C0
C0C0
C0C0
C0C0
C0C0
C0C0
C0C0
C0C0
C0C0
6180
3F00
ENDCHAR
STARTCHAR 01D4
ENCODING 468
SWIDTH 600 0
DWIDTH 12 0
BBX 9 16 2 0
BITMAP
6300
3600
1C00
0000
0000
C180
C180
C180
C180
C180
C180
C180
C180
C380
C580
7980
ENDCHAR
STARTCHAR 01D5
ENCODING 469
SWIDTH 700 0
DWIDTH 14 0
BBX 10 19 2 0
BITMAP
3F00
0000
0000
3300
0000
C0C0
C0C0
C0C0
C0C0
C0C0
C0C0
C0C0
C0C0
C0C0
C0C0
C0C0
C0C0
6180
3F00
ENDCHAR
STARTCHAR 01D6
ENCODING 470
SWIDTH 600 0
DWIDTH 12 0
BBX 9 17 2 0
BITMAP
3F00
0000
0000
3300
0000
0000
C180
C180
C180
C180
C180
C180
C180
C180
C380
C580
7980
ENDCHAR
STARTCHAR 01D7
ENCODING 471
SWIDTH 700 0
DWIDTH 14 0
BBX 10 21 2 0
BITMAP
0300
0600
0C00
0000
0000
3300
0000
C0C0
C0C0
C0C0
C0C0
C0C0
C0C0
C0C0
C0C0
C0C0
C0C0
C0C0
C0C0
6180
3F00
ENDCHAR
STARTCHAR 01D8
ENCODING 472
SWIDTH 600 0
DWIDTH 12 0
BBX 9 19 2 0
BITMAP
0600
0C00
1800
0000
0000
3300
0000
0000
C180
C180
C180
C180
C180
C180
C180
C180
C380
C580
7980
ENDCHAR
STARTCHAR 01D9
ENCODING 473
SWIDTH 700 0
DWIDTH 14 0
BBX 10 21 2 0
BITMAP
6300
3600
1C00
0000
0000
6300
0000
C0C0
C0C0
C0C0
C0C0
C0C0
C0C0
C0C0
C0C0
C0C0
C0C0
C0C0
C0C0
6180
3F00
ENDCHAR
STARTCHAR 01DA
ENCODING 474
SWIDTH 600 0
DWIDTH 12 0
BBX 9 19 2 0
BITMAP
6300
3600
1C00
0000
0000
6300
0000
0000
C180
C180
C180
C180
C180
C180
C180
C180
C380
C580
7980
ENDCHAR
STARTCHAR 01DB
ENCODING 475
SWIDTH 700 0
DWIDTH 14 0
BBX 10 21 2 0
BITMAP
1800
0C00
0600
0000
0000
3300
0000
C0C0
C0C0
C0C0
C0C0
C0C0
C0C0
C0C0
C0C0
C0C0
C0C0
C0C0
C0C0
6180
3F00
ENDCHAR
STARTCHAR 01DC
ENCODING 476
SWIDTH 600 0
DWIDTH 12 0
BBX 9 19 2 0
BITMAP
3000
1800
0C00
0000
0000
3300
0000
0000
C180
C180
C180
C180
C180
C180
C180
C180
C380
C580
7980
ENDCHAR
STARTCHAR 01DD
ENCODING 477
SWIDTH 550 0
DWIDTH 11 0
BBX 9 11 1 0
BITMAP
7C00
8600
0300
0380
0180
0180
FF80
C180
C100
6300
3C00
ENDCHAR
STARTCHAR 01DE
ENCODING 478
SWIDTH 700 0
DWIDTH 14 0
BBX 13 19 0 0
BITMAP
0FC0
0000
0000
0CC0
0000
0300
0700
0580
0980
0980
10C0
10C0
10C0
2060
3FE0
4030
4030
4030
8018
ENDCHAR
STARTCHAR 01DF
ENCODING 479
SWIDTH 550 0
DWIDTH 11 0
BBX 10 17 1 0
BITMAP
7E00
0000
0000
6600
0000
0000
3E00
4300
0300
0300
0300
3F00
6300
C300
C300
C700
79C0
ENDCHAR
STARTCHAR 01E0
ENCODING 480
SWIDTH 700 0
DWIDTH 14 0
BBX 13 19 0 0
BITMAP
0FC0
0000
0000
0300
0000
0300
0700
0580
0980
0980
10C0
10C0
10C0
2060
3FE0
4030
4030
4030
8018
ENDCHAR
STARTCHAR 01E1
ENCODING 481
SWIDTH 550 0
DWIDTH 11 0
BBX 10 17 1 0
BITMAP
3F00
0000
0000
0600
0000
0000
3E00
4300
0300
0300
0300
3F00
6300
C300
C300
C700
79C0
ENDCHAR
STARTCHAR 01E2
ENCODING 482
SWIDTH 900 0
DWIDTH 18 0
BBX 17 16 0 0
BITMAP
003F00
000000
00FF80
01E000
016000
036000
026000
046000
0C7F00
086000
186000
1FE000
206000
606000
406000
807F80
ENDCHAR
STARTCHAR 01E3
ENCODING 483
SWIDTH 850 0
DWIDTH 17 0
BBX 15 14 1 0
BITMAP
07E0
0000
0000
3E78
478C
0306
0306
03FE
3F00
6300
C300
C380
C5C2
787C
ENDCHAR
STARTCHAR 01E4
ENCODING 484
SWIDTH 800 0
DWIDTH 16 0
BBX 14 14 1 0
BITMAP
0FE0
3830
6000
6000
C000
C000
C000
C030
C030
C0FC
6030
7030
3830
0FE0
ENDCHAR
STARTCHAR 01E5
ENCODING 485
SWIDTH 700 0
DWIDTH 14 0
BBX 12 15 1 -4
BITMAP
1EC0
61C0
60C0
C0C0
C7F0
C0C0
C0C0
C0C0
41C0
63C0
3CC0
00C0
0080
4180
3E00
ENDCHAR
STARTCHAR 01E6
ENCODING 486
SWIDTH 700 0
DWIDTH 14 0
BBX 12 18 1 0
BITMAP
0C60
06C0
0380
0000
0FC0
3830
6000
6000
C000
C000
C000
C000
C030
C030
6030
6030
3830
0FE0
ENDCHAR
STARTCHAR 01E7
ENCODING 487
SWIDTH 600 0
DWIDTH 12 0
BBX 11 20 1 -4
BITMAP
3180
1B00
0E00
0000
0000
1F60
30E0
6060
C060
C060
C060
C060
C060
60E0
6160
1E60
0060
0040
40C0
3F00
ENDCHAR
STARTCHAR 01E8
ENCODING 488
SWIDTH 650 0
DWIDTH 13 0
BBX 10 18 2 0
BITMAP
3180
1B00
0E00
0000
C080
C100
C200
C400
C800
D000
E000
F000
D800
CC00
C600
C300
C180
C0C0
ENDCHAR
STARTCHAR 01E9
ENCODING 489
SWIDTH 600 0
DWIDTH 12 0
BBX 9 18 2 0
BITMAP
6300
3600
1C00
C000
C000
C000
C000
C100
C200
C400
C800
D000
F000
D800
CC00
C600
C300
C180
ENDCHAR
STARTCHAR 01EA
ENCODING 490
SWIDTH 800 0
DWIDTH 16 0
BBX 14 18 1 -4
BITMAP
0FC0
3870
6018
6018
C00C
C00C
C00C
C00C
C00C
C00C
6018
6018
3870
0FC0
0200
0400
0400
0300
ENDCHAR
STARTCHAR 01EB
ENCODING 491
SWIDTH 600 0
DWIDTH 12 0
BBX 11 15 1 -4
BITMAP
1F00
71C0
60C0
C060
C060
C060
C060
C060
60C0
71C0
1F00
0400
0800
0800
0600
ENDCHAR
STARTCHAR 01EC
ENCODING 492
SWIDTH 800 0
DWIDTH 16 0
BBX 14 20 1 -4
BITMAP
0FC0
0000
0FC0
3870
6018
6018
C00C
C00C
C00C
C00C
C00C
C00C
6018
6018
3870
0FC0
0080
0100
0100
00C0
ENDCHAR
STARTCHAR 01ED
ENCODING 493
SWIDTH 600 0
DWIDTH 12 0
BBX 11 18 1 -4
BITMAP
1F80
0000
0000
1F00
71C0
60C0
C060
C060
C060
C060
C060
60C0
71C0
1F00
0200
0400
0400
0300
ENDCHAR
STARTCHAR 01EE
ENCODING 494
SWIDTH 550 0
DWIDTH 11 0
BBX 9 18 1 0
BITMAP
6300
3600
1C00
0000
FF80
0300
0600
0C00
1800
3000
7C00
0700
0380
0180
0180
0180
8300
7C00
ENDCHAR
STARTCHAR 01EF
ENCODING 495
SWIDTH 500 0
DWIDTH 10 0
BBX 9 20 1 -4
BITMAP
6300
3600
1C00
0000
0000
FF80
0300
0600
0C00
1800
3000
7C00
0F00
0300
0180
0180
0180
0180
0300
FC00
ENDCHAR
STARTCHAR 01F0
ENCODING 496
SWIDTH 300 0
DWIDTH 6 0
BBX 8 20 -1 -4
BITMAP
63
36
1C
00
00
0C
0C
0C
0C
0C
0C
0C
0C
0C
0C
0C
0C
0C
08
F0
ENDCHAR
STARTCHAR 01FA
ENCODING 506
SWIDTH 700 0
DWIDTH 14 0
BBX 13 23 0 0
BITMAP
00C0
0180
0300
0000
0300
0480
0480
0300
0000
0300
0700
0580
0980
0980
10C0
10C0
10C0
2060
3FE0
4030
4030
4030
8018
ENDCHAR
STARTCHAR 01FB
ENCODING 507
SWIDTH 550 0
DWIDTH 11 0
BBX 10 21 1 0
BITMAP
0600
0C00
1800
0000
0000
1800
2400
2400
1800
0000
3E00
4300
0300
0300
0300
3F00
6300
C300
C300
C700
79C0
ENDCHAR
STARTCHAR 01FC
ENCODING 508
SWIDTH 900 0
DWIDTH 18 0
BBX 17 19 0 0
BITMAP
000C00
001800
003000
000000
000000
00FF80
01E000
016000
036000
026000
046000
0C7F00
086000
186000
1FE000
206000
606000
406000
807F80
ENDCHAR
STARTCHAR 01FD
ENCODING 509
SWIDTH 850 0
DWIDTH 17 0
BBX 15 16 1 0
BITMAP
00C0
0180
0300
0000
0000
3E78
478C
0306
0306
03FE
3F00
6300
C300
C380
C5C2
787C
ENDCHAR
STARTCHAR 01FE
ENCODING 510
SWIDTH 800 0
DWIDTH 16 0
BBX 14 19 1 0
BITMAP
0180
0300
0600
0000
0000
0FCC
3838
6018
6038
C04C
C08C
C10C
C20C
C40C
C80C
7018
6018
7070
CFC0
ENDCHAR
STARTCHAR 01FF
ENCODING 511
SWIDTH 600 0
DWIDTH 12 0
BBX 11 16 1 0
BITMAP
0300
0600
0C00
0000
0000
1F60
71C0
61C0
C360
C660
C460
CC60
D860
70C0
71C0
DF00
ENDCHAR
STARTCHAR 0218
ENCODING 536
SWIDTH 550 0
DWIDTH 11 0
BBX 9 20 1 -6
BITMAP
3E00
6100
C000
C000
E000
7000
3C00
0F00
0380
0180
0180
0180
8300
7E00
0000
0000
1800
0800
0800
1000
ENDCHAR
STARTCHAR 0219
ENCODING 537
SWIDTH 500 0
DWIDTH 10 0
BBX 7 17 2 -6
BITMAP
7C
C0
C0
C0
F0
3C
0E
06
06
8C
78
00
00
18
08
08
10
ENDCHAR
STARTCHAR 021A
ENCODING 538
SWIDTH 650 0
DWIDTH 13 0
BBX 12 20 0 -6
BITMAP
FFF0
0600
0600
0600
0600
0600
0600
0600
0600
0600
0600
0600
0600
0600
0000
0000
0600
0200
0200
0400
ENDCHAR
STARTCHAR 021B
ENCODING 539
SWIDTH 350 0
DWIDTH 7 0
BBX 6 19 1 -6
BITMAP
60
60
FC
60
60
60
60
60
60
60
60
60
3C
00
00
30
10
10
20
ENDCHAR
STARTCHAR 0250
ENCODING 592
SWIDTH 550 0
DWIDTH 11 0
BBX 10 11 0 0
BITMAP
E780
38C0
30C0
30C0
3180
3F00
3000
3000
3000
3880
1F00
ENDCHAR
STARTCHAR 0251
ENCODING 593
SWIDTH 600 0
DWIDTH 12 0
BBX 9 11 1 0
BITMAP
1F80
3180
6180
6180
C180
C180
C180
C380
C380
6580
7980
ENDCHAR
STARTCHAR 0252
ENCODING 594
SWIDTH 600 0
DWIDTH 12 0
BBX 9 11 2 0
BITMAP
CF00
D300
E180
E180
C180
C180
C180
C300
C300
C600
FC00
ENDCHAR
STARTCHAR 0253
ENCODING 595
SWIDTH 650 0
DWIDTH 13 0
BBX 10 15 2 0
BITMAP
3F00
6100
C000
C000
CF00
F180
C0C0
C0C0
C0C0
C0C0
C0C0
C0C0
C180
E180
DE00
ENDCHAR
STARTCHAR 0254
ENCODING 596
SWIDTH 500 0
DWIDTH 10 0
BBX 8 11 1 0
BITMAP
78
8E
06
03
03
03
03
03
06
0E
F8
ENDCHAR
STARTCHAR 0255
ENCODING 597
SWIDTH 550 0
DWIDTH 11 0
BBX 9 13 1 -2
BITMAP
1F00
7000
6000
C000
C000
C000
C700
D980
7180
3380
6F00
6000
6000
ENDCHAR
STARTCHAR 0256
ENCODING 598
SWIDTH 650 0
DWIDTH 13 0
BBX 13 19 1 -4
BITMAP
00C0
00C0
00C0
00C0
1EC0
61C0
60C0
C0C0
C0C0
C0C0
C0C0
C0C0
C0C0
63C0
3CC0
00C0
00C0
00C0
0078
ENDCHAR
STARTCHAR 0257
ENCODING 599
SWIDTH 650 0
DWIDTH 13 0
BBX 13 15 1 0
BITMAP
0078
00C0
00C0
00C0
1EC0
61C0
60C0
C0C0
C0C0
C0C0
C0C0
C0C0
C0C0
63C0
3CC0
ENDCHAR
STARTCHAR 0258
ENCODING 600
SWIDTH 550 0
DWIDTH 11 0
BBX 9 11 1 0
BITMAP
3C00
6300
C100
C180
FF80
0180
0180
0380
0300
8600
7C00
ENDCHAR
STARTCHAR 0259
ENCODING 601
SWIDTH 550 0
DWIDTH 11 0
BBX 9 11 1 0
BITMAP
7C00
8600
0300
0380
0180
0180
FF80
C180
C100
6300
3C00
ENDCHAR
STARTCHAR 025A
ENCODING 602
SWIDTH 800 0
DWIDTH 16 0
BBX 15 11 1 0
BITMAP
7C00
8600
0300
0118
01F8
3F98
C198
C18E
C100
6300
3C00
ENDCHAR
STARTCHAR 025B
ENCODING 603
SWIDTH 500 0
DWIDTH 10 0
BBX 7 11 1 0
BITMAP
3E
60
60
70
3C
60
C0
C0
C0
60
3E
ENDCHAR
STARTCHAR 025C
ENCODING 604
SWIDTH 500 0
DWIDTH 10 0
BBX 7 11 1 0
BITMAP
F8
0C
0C
1C
78
0C
06
06
06
0C
F8
ENDCHAR
STARTCHAR 025D
ENCODING 605
SWIDTH 650 0
DWIDTH 13 0
BBX 12 11 1 0
BITMAP
F8C0
0FC0
0CC0
1CC0
78C0
0C70
0600
0600
0600
8C00
7800
ENDCHAR
STARTCHAR 025E
ENCODING 606
SWIDTH 600 0
DWIDTH 12 0
BBX 10 11 1 0
BITMAP
1F00
71C0
60C0
C0C0
C180
CF00
C1C0
C0C0
60C0
7180
1F00
ENDCHAR
STARTCHAR 025F
ENCODING 607
SWIDTH 400 0
DWIDTH 8 0
BBX 8 15 -1 -4
BITMAP
0C
0C
0C
0C
7F
0C
0C
0C
0C
0C
0C
0C
0C
88
F0
ENDCHAR
STARTCHAR 0260
ENCODING 608
SWIDTH 600 0
DWIDTH 12 0
BBX 13 19 1 -4
BITMAP
0078
00C0
00C0
00C0
1EC0
61C0
60C0
C0C0
C0C0
C0C0
C0C0
C0C0
41C0
63C0
3CC0
00C0
0080
4180
3E00
ENDCHAR
STARTCHAR 0261
ENCODING 609
SWIDTH 600 0
DWIDTH 12 0
BBX 11 15 1 -4
BITMAP
1F60
30E0
6060
C060
C060
C060
C060
C060
60E0
6160
1E60
0060
0040
40C0
3F00
ENDCHAR
STARTCHAR 0262
ENCODING 610
SWIDTH 600 0
DWIDTH 12 0
BBX 9 11 1 0
BITMAP
1F80
7000
6000
C000
C000
C000
C180
C180
6180
7180
1F80
ENDCHAR
STARTCHAR 0263
ENCODING 611
SWIDTH 550 0
DWIDTH 11 0
BBX 10 15 0 -4
BITMAP
C0C0
60C0
3180
3980
1B00
1F00
0E00
0E00
1E00
1E00
3300
3300
3300
3300
1E00
ENDCHAR
STARTCHAR 0264
ENCODING 612
SWIDTH 550 0
DWIDTH 11 0
BBX 11 11 0 0
BITMAP
E060
3180
1B00
1E00
0E00
1E00
3300
2100
2100
2300
1E00
ENDCHAR
STARTCHAR 0265
ENCODING 613
SWIDTH 600 0
DWIDTH 12 0
BBX 9 15 2 -4
BITMAP
C180
C180
C180
C180
C180
C180
C180
C180
C380
C580
7980
0180
0180
0180
0180
ENDCHAR
STARTCHAR 0266
ENCODING 614
SWIDTH 600 0
DWIDTH 12 0
BBX 9 15 2 0
BITMAP
1F00
6100
4000
C000
CF00
D180
E180
C180
C180
C180
C180
C180
C180
C180
C180
ENDCHAR
STARTCHAR 0267
ENCODING 615
SWIDTH 600 0
DWIDTH 12 0
BBX 9 19 2 -4
BITMAP
1F00
6100
4000
C000
CF00
D180
E180
C180
C180
C180
C180
C180
C180
C180
C180
0180
0180
0180
0F00
ENDCHAR
STARTCHAR 0268
ENCODING 616
SWIDTH 400 0
DWIDTH 8 0
BBX 6 14 1 0
BITMAP
30
00
00
30
30
30
30
FC
30
30
30
30
30
30
ENDCHAR
STARTCHAR 0269
ENCODING 617
SWIDTH 350 0
DWIDTH 7 0
BBX 5 11 2 0
BITMAP
C0
C0
C0
C0
C0
C0
C0
C0
C0
C0
78
ENDCHAR
STARTCHAR 026A
ENCODING 618
SWIDTH 400 0
DWIDTH 8 0
BBX 6 11 1 0
BITMAP
FC
30
30
30
30
30
30
30
30
30
FC
ENDCHAR
STARTCHAR 026B
ENCODING 619
SWIDTH 500 0
DWIDTH 10 0
BBX 10 15 0 0
BITMAP
0C00
0C00
0C00
0C00
0CC0
7CC0
CCC0
CF80
CC00
0C00
0C00
0C00
0C00
0C00
0C00
ENDCHAR
STARTCHAR 026C
ENCODING 620
SWIDTH 500 0
DWIDTH 10 0
BBX 10 15 0 0
BITMAP
0600
0600
0600
0600
7600
CE00
C600
7FC0
0600
0600
0600
0600
0600
0600
0600
ENDCHAR
STARTCHAR 026D
ENCODING 621
SWIDTH 300 0
DWIDTH 6 0
BBX 5 19 2 -4
BITMAP
C0
C0
C0
C0
C0
C0
C0
C0
C0
C0
C0
C0
C0
C0
C0
C0
C0
C0
78
ENDCHAR
STARTCHAR 026E
ENCODING 622
SWIDTH 650 0
DWIDTH 13 0
BBX 10 19 2 -4
BITMAP
C000
C000
C000
C000
FFC0
C0C0
C180
C300
C600
CC00
CF00
C380
C1C0
C0C0
C0C0
00C0
0080
0180
3E00
ENDCHAR
STARTCHAR 026F
ENCODING 623
SWIDTH 950 0
DWIDTH 19 0
BBX 14 12 2 -1
BITMAP
C30C
C30C
C30C
C30C
C30C
C30C
C30C
C30C
C71C
C72C
79CC
3000
ENDCHAR
STARTCHAR 0270
ENCODING 624
SWIDTH 950 0
DWIDTH 19 0
BBX 14 15 2 -4
BITMAP
C30C
C30C
C30C
C30C
C30C
C30C
C30C
C30C
C71C
CB2C
71CC
000C
000C
000C
000C
ENDCHAR
STARTCHAR 0271
ENCODING 625
SWIDTH 950 0
DWIDTH 19 0
BBX 16 15 2 -4
BITMAP
CF1E
D1A3
E1C3
C183
C183
C183
C183
C183
C183
C183
C183
0003
0003
0003
001E
ENDCHAR
STARTCHAR 0272
ENCODING 626
SWIDTH 650 0
DWIDTH 13 0
BBX 12 15 -1 -4
BITMAP
19E0
1A30
1C30
1830
1830
1830
1830
1830
1830
1830
1830
1800
1800
1800
F000
ENDCHAR
STARTCHAR 0273
ENCODING 627
SWIDTH 650 0
DWIDTH 13 0
BBX 12 15 2 -4
BITMAP
CF00
D180
E180
C180
C180
C180
C180
C180
C180
C180
C180
0180
0180
0180
00F0
ENDCHAR
STARTCHAR 0274
ENCODING 628
SWIDTH 650 0
DWIDTH 13 0
BBX 9 11 2 0
BITMAP
C180
E180
F180
F180
D980
DD80
CD80
C780
C780
C380
C180
ENDCHAR
STARTCHAR 0275
ENCODING 629
SWIDTH 600 0
DWIDTH 12 0
BBX 10 11 1 0
BITMAP
1E00
6380
6180
C0C0
C0C0
FFC0
C0C0
C0C0
6180
6180
1E00
ENDCHAR
STARTCHAR 0276
ENCODING 630
SWIDTH 800 0
DWIDTH 16 0
BBX 14 11 1 0
BITMAP
1FFC
6380
6180
C180
C180
C1F8
C180
C180
6180
6380
1FFC
ENDCHAR
STARTCHAR 0277
ENCODING 631
SWIDTH 800 0
DWIDTH 16 0
BBX 14 11 1 0
BITMAP
0FC0
3870
6018
6018
C30C
C30C
C30C
C30C
C30C
6798
3CF0
ENDCHAR
STARTCHAR 0278
ENCODING 632
SWIDTH 750 0
DWIDTH 15 0
BBX 14 19 1 -4
BITMAP
0300
0300
0300
0300
0300
1FE0
7338
6318
C30C
C30C
C30C
C30C
6318
7338
1FE0
0300
0300
0300
0300
ENDCHAR
STARTCHAR 0279
ENCODING 633
SWIDTH 400 0
DWIDTH 8 0
BBX 6 11 0 0
BITMAP
0C
0C
0C
0C
0C
0C
0C
0C
1C
3C
CC
ENDCHAR
STARTCHAR 027A
ENCODING 634
SWIDTH 400 0
DWIDTH 8 0
BBX 6 15 0 0
BITMAP
0C
0C
0C
0C
0C
0C
0C
0C
0C
0C
0C
0C
0C
1C
EC
ENDCHAR
STARTCHAR 027B
ENCODING 635
SWIDTH 450 0
DWIDTH 9 0
BBX 9 15 0 -4
BITMAP
0C00
0C00
0C00
0C00
0C00
0C00
0C00
0C00
1C00
3C00
CC00
0C00
0C00
0C00
0780
ENDCHAR
STARTCHAR 027C
ENCODING 636
SWIDTH 400 0
DWIDTH 8 0
BBX 6 15 2 -4
BITMAP
CC
F0
E0
C0
C0
C0
C0
C0
C0
C0
C0
C0
C0
C0
C0
ENDCHAR
STARTCHAR 027D
ENCODING 637
SWIDTH 400 0
DWIDTH 8 0
BBX 6 15 2 -4
BITMAP
CC
F0
E0
C0
C0
C0
C0
C0
C0
C0
C0
C0
C0
C0
78
ENDCHAR
STARTCHAR 027E
ENCODING 638
SWIDTH 400 0
DWIDTH 8 0
BBX 6 11 2 0
BITMAP
3C
60
C0
C0
C0
C0
C0
C0
C0
C0
C0
ENDCHAR
STARTCHAR 027F
ENCODING 639
SWIDTH 400 0
DWIDTH 8 0
BBX 6 11 0 0
BITMAP
F0
18
0C
0C
0C
0C
0C
0C
0C
0C
0C
ENDCHAR
STARTCHAR 0280
ENCODING 640
SWIDTH 550 0
DWIDTH 11 0
BBX 8 11 2 0
BITMAP
FC
C6
C6
C6
CC
F8
DC
CC
CE
C6
C7
ENDCHAR
STARTCHAR 0281
ENCODING 641
SWIDTH 550 0
DWIDTH 11 0
BBX 8 11 2 0
BITMAP
C7
C6
CE
CC
DC
F8
CC
C6
C6
C6
FC
ENDCHAR
STARTCHAR 0282
ENCODING 642
SWIDTH 500 0
DWIDTH 10 0
BBX 7 15 2 -4
BITMAP
7C
C0
C0
C0
F0
3C
0E
06
06
8E
FC
C0
C0
C0
70
ENDCHAR
STARTCHAR 0283
ENCODING 643
SWIDTH 450 0
DWIDTH 9 0
BBX 10 19 -1 -4
BITMAP
03C0
0600
0C00
0C00
0C00
0C00
0C00
0C00
0C00
0C00
0C00
0C00
0C00
0C00
0C00
0C00
0C00
1800
F000
ENDCHAR
STARTCHAR 0284
ENCODING 644
SWIDTH 450 0
DWIDTH 9 0
BBX 9 19 -1 -4
BITMAP
0780
0C00
0C00
0C00
0C00
0C00
0C00
7F80
0C00
0C00
0C00
7F80
0C00
0C00
0C00
0C00
0C00
0800
F000
ENDCHAR
STARTCHAR 0285
ENCODING 645
SWIDTH 450 0
DWIDTH 9 0
BBX 10 15 -1 0
BITMAP
F000
1800
0C00
0C00
0C00
0C00
0C00
0C00
0C00
0C00
0C00
0C00
0C00
0600
03C0
ENDCHAR
STARTCHAR 0286
ENCODING 646
SWIDTH 500 0
DWIDTH 10 0
BBX 11 19 0 -4
BITMAP
01E0
0300
0600
0600
0600
0600
0600
0600
0600
0600
0600
0600
0600
0600
7FC0
C600
C600
CC00
7800
ENDCHAR
STARTCHAR 0287
ENCODING 647
SWIDTH 350 0
DWIDTH 7 0
BBX 6 13 1 -2
BITMAP
F0
38
18
18
18
18
18
18
18
18
FC
18
18
ENDCHAR
STARTCHAR 0288
ENCODING 648
SWIDTH 350 0
DWIDTH 7 0
BBX 6 17 1 -4
BITMAP
60
60
FC
60
60
60
60
60
60
60
60
60
60
60
60
60
3C
ENDCHAR
STARTCHAR 0289
ENCODING 649
SWIDTH 650 0
DWIDTH 13 0
BBX 13 11 0 0
BITMAP
3060
3060
3060
3060
FFF8
3060
3060
3060
30E0
3160
1E60
ENDCHAR
STARTCHAR 028A
ENCODING 650
SWIDTH 650 0
DWIDTH 13 0
BBX 11 11 1 0
BITMAP
E0E0
60C0
4040
C060
C060
C060
C060
C060
60C0
3180
1F00
ENDCHAR
STARTCHAR 028B
ENCODING 651
SWIDTH 600 0
DWIDTH 12 0
BBX 10 11 0 0
BITMAP
C0C0
E0C0
60C0
60C0
60C0
30C0
3180
3180
1B00
1E00
1C00
ENDCHAR
STARTCHAR 028C
ENCODING 652
SWIDTH 500 0
DWIDTH 10 0
BBX 10 11 0 0
BITMAP
0C00
0E00
1600
1600
3300
2300
2300
4180
4180
4180
80C0
ENDCHAR
STARTCHAR 028D
ENCODING 653
SWIDTH 750 0
DWIDTH 15 0
BBX 15 11 0 0
BITMAP
1830
1830
2C58
2C58
2C58
468C
468C
468C
438C
8306
8306
ENDCHAR
STARTCHAR 028E
ENCODING 654
SWIDTH 500 0
DWIDTH 10 0
BBX 10 14 0 0
BITMAP
0600
0400
0400
0C00
0E00
1E00
1600
1300
2300
2300
6180
4180
4180
80C0
ENDCHAR
STARTCHAR 028F
ENCODING 655
SWIDTH 500 0
DWIDTH 10 0
BBX 10 11 0 0
BITMAP
E0C0
6080
3100
3900
1A00
1E00
0C00
0C00
0C00
0C00
0C00
ENDCHAR
STARTCHAR 0290
ENCODING 656
SWIDTH 550 0
DWIDTH 11 0
BBX 12 15 1 -4
BITMAP
FF80
0380
0300
0600
0E00
1C00
3800
3000
6000
E000
FF80
0080
0080
0080
0070
ENDCHAR
STARTCHAR 0291
ENCODING 657
SWIDTH 700 0
DWIDTH 14 0
BBX 12 14 1 -3
BITMAP
FF80
0380
0300
0600
0E00
1CE0
39B0
3130
6330
E260
FFC0
0C00
0C00
0C00
ENDCHAR
STARTCHAR 0292
ENCODING 658
SWIDTH 500 0
DWIDTH 10 0
BBX 9 15 1 -4
BITMAP
FF80
0300
0600
0C00
1800
3000
7C00
0F00
0300
0180
0180
0180
0180
0300
FC00
ENDCHAR
STARTCHAR 0293
ENCODING 659
SWIDTH 550 0
DWIDTH 11 0
BBX 9 17 1 -6
BITMAP
7F80
0300
0600
0C00
1800
7000
7C00
0700
0380
0180
7180
CD80
C700
E700
3F00
0300
0300
ENDCHAR
STARTCHAR 0294
ENCODING 660
SWIDTH 450 0
DWIDTH 9 0
BBX 8 15 0 0
BITMAP
7C
86
03
03
03
06
0C
18
30
30
30
30
30
30
30
ENDCHAR
STARTCHAR 0295
ENCODING 661
SWIDTH 450 0
DWIDTH 9 0
BBX 8 15 0 0
BITMAP
3E
61
C0
C0
C0
60
30
18
0C
0C
0C
0C
0C
0C
0C
ENDCHAR
STARTCHAR 0296
ENCODING 662
SWIDTH 450 0
DWIDTH 9 0
BBX 8 15 0 0
BITMAP
30
30
30
30
30
30
18
1C
0E
06
03
03
03
86
7C
ENDCHAR
STARTCHAR 0297
ENCODING 663
SWIDTH 500 0
DWIDTH 10 0
BBX 8 15 1 -4
BITMAP
1E
31
60
60
C0
C0
C0
C0
C0
C0
C0
60
60
31
1E
ENDCHAR
STARTCHAR 0298
ENCODING 664
SWIDTH 650 0
DWIDTH 13 0
BBX 11 11 1 0
BITMAP
1F00
3180
60C0
C060
CC60
CC60
C060
C060
60C0
3180
1F00
ENDCHAR
STARTCHAR 0299
ENCODING 665
SWIDTH 550 0
DWIDTH 11 0
BBX 7 11 2 0
BITMAP
FC
C6
C6
C6
CC
F8
CC
C6
C6
C6
FC
ENDCHAR
STARTCHAR 029A
ENCODING 666
SWIDTH 600 0
DWIDTH 12 0
BBX 10 11 1 0
BITMAP
3E00
E300
C180
C0C0
60C0
3CC0
E0C0
C0C0
C180
6380
3E00
ENDCHAR
STARTCHAR 029B
ENCODING 667
SWIDTH 600 0
DWIDTH 12 0
BBX 12 16 1 0
BITMAP
00F0
0180
0180
0180
0180
1F80
7080
6000
C000
C000
C000
C180
C180
6180
7180
1F80
ENDCHAR
STARTCHAR 029C
ENCODING 668
SWIDTH 600 0
DWIDTH 12 0
BBX 9 11 2 0
BITMAP
C180
C180
C180
C180
FF80
C180
C180
C180
C180
C180
C180
ENDCHAR
STARTCHAR 029D
ENCODING 669
SWIDTH 500 0
DWIDTH 10 0
BBX 10 18 0 -4
BITMAP
0600
0000
0000
0600
0600
0600
0600
0600
0600
0600
0600
0600
0600
7FC0
C600
C600
CC00
7800
ENDCHAR
STARTCHAR 029E
ENCODING 670
SWIDTH 600 0
DWIDTH 12 0
BBX 9 15 1 -4
BITMAP
C180
6180
3180
3980
1D80
0F80
0D80
1D80
3980
3180
6180
0180
0180
0180
0180
ENDCHAR
STARTCHAR 029F
ENCODING 671
SWIDTH 450 0
DWIDTH 9 0
BBX 7 11 2 0
BITMAP
C0
C0
C0
C0
C0
C0
C0
C0
C0
C0
FE
ENDCHAR
STARTCHAR 02A0
ENCODING 672
SWIDTH 650 0
DWIDTH 13 0
BBX 13 19 1 -4
BITMAP
0078
00C0
00C0
00C0
1EC0
61C0
60C0
C0C0
C0C0
C0C0
C0C0
C0C0
C0C0
63C0
3CC0
00C0
00C0
00C0
00C0
ENDCHAR
STARTCHAR 02A1
ENCODING 673
SWIDTH 450 0
DWIDTH 9 0
BBX 8 15 1 0
BITMAP
7C
87
03
03
03
06
0C
18
30
30
FE
30
30
30
30
ENDCHAR
STARTCHAR 02A2
ENCODING 674
SWIDTH 450 0
DWIDTH 9 0
BBX 8 15 0 0
BITMAP
3E
E1
C0
C0
C0
60
30
18
0C
0C
7F
0C
0C
0C
0C
ENDCHAR
STARTCHAR 02A3
ENCODING 675
SWIDTH 1050 0
DWIDTH 21 0
BBX 19 15 1 0
BITMAP
00C000
00C000
00C000
00C000
1EFFE0
61C0E0
60C1C0
C0C180
C0C300
C0C700
C0C600
C0CC00
C0DC00
63F800
3CFFE0
ENDCHAR
STARTCHAR 02A4
ENCODING 676
SWIDTH 1000 0
DWIDTH 20 0
BBX 18 19 1 -4
BITMAP
00C000
00C000
00C000
00C000
1EFFC0
61C0C0
60C180
C0C300
C0C600
C0CC00
C0CF00
C0C380
C0C1C0
63C0C0
3CC0C0
0000C0
000080
000180
003E00
ENDCHAR
STARTCHAR 02A5
ENCODING 677
SWIDTH 1150 0
DWIDTH 23 0
BBX 22 18 1 -3
BITMAP
00C000
00C000
00C000
00C000
1EFFE0
61C0E0
60C1C0
C0C180
C0C300
C0C738
C0C66C
C0CC4C
C0DCCC
63F898
3CFFF0
000300
000300
000300
ENDCHAR
STARTCHAR 02A6
ENCODING 678
SWIDTH 800 0
DWIDTH 16 0
BBX 13 13 1 0
BITMAP
6000
6000
FFF0
6300
6300
6300
61C0
60F0
6038
6018
6018
7230
3DE0
ENDCHAR
STARTCHAR 02A7
ENCODING 679
SWIDTH 700 0
DWIDTH 14 0
BBX 14 19 1 -4
BITMAP
003C
0060
60C0
60C0
FFC0
60C0
60C0
60C0
60C0
60C0
60C0
60C0
60C0
70C0
3CC0
00C0
00C0
0180
0F00
ENDCHAR
STARTCHAR 02A8
ENCODING 680
SWIDTH 900 0
DWIDTH 18 0
BBX 16 16 1 -3
BITMAP
6000
6000
FFFE
60E0
61C0
6180
6180
6180
618E
61B3
60E3
7067
3CDE
00C0
00C0
00C0
ENDCHAR
STARTCHAR 02B0
ENCODING 688
SWIDTH 400 0
DWIDTH 8 0
BBX 6 9 1 9
BITMAP
C0
C0
C0
DC
EC
CC
CC
CC
CC
ENDCHAR
STARTCHAR 02B1
ENCODING 689
SWIDTH 400 0
DWIDTH 8 0
BBX 6 9 1 9
BITMAP
78
C0
C0
D8
EC
CC
CC
CC
CC
ENDCHAR
STARTCHAR 02B2
ENCODING 690
SWIDTH 250 0
DWIDTH 5 0
BBX 4 12 0 6
BITMAP
30
00
00
30
30
30
30
30
30
30
30
E0
ENDCHAR
STARTCHAR 02B3
ENCODING 691
SWIDTH 250 0
DWIDTH 5 0
BBX 4 6 1 9
BITMAP
F0
C0
C0
C0
C0
C0
ENDCHAR
STARTCHAR 02B4
ENCODING 692
SWIDTH 250 0
DWIDTH 5 0
BBX 4 6 0 9
BITMAP
30
30
30
30
30
F0
ENDCHAR
STARTCHAR 02B5
ENCODING 693
SWIDTH 300 0
DWIDTH 6 0
BBX 6 8 0 7
BITMAP
30
30
30
30
30
F0
30
1C
ENDCHAR
STARTCHAR 02B6
ENCODING 694
SWIDTH 350 0
DWIDTH 7 0
BBX 6 6 1 9
BITMAP
DC
F8
F0
D8
D8
F8
ENDCHAR
STARTCHAR 02B7
ENCODING 695
SWIDTH 500 0
DWIDTH 10 0
BBX 9 6 0 9
BITMAP
CC80
ED80
6D00
6D00
7700
3200
ENDCHAR
STARTCHAR 02B8
ENCODING 696
SWIDTH 350 0
DWIDTH 7 0
BBX 6 8 0 7
BITMAP
C4
68
68
70
30
30
20
60
ENDCHAR
STARTCHAR 02B9
ENCODING 697
SWIDTH 300 0
DWIDTH 6 0
BBX 4 6 1 9
BITMAP
30
60
60
40
C0
80
ENDCHAR
STARTCHAR 02BA
ENCODING 698
SWIDTH 500 0
DWIDTH 10 0
BBX 8 6 1 9
BITMAP
33
66
66
44
CC
88
ENDCHAR
STARTCHAR 02BB
ENCODING 699
SWIDTH 300 0
DWIDTH 6 0
BBX 2 6 2 9
BITMAP
40
80
80
80
C0
C0
ENDCHAR
STARTCHAR 02BC
ENCODING 700
SWIDTH 300 0
DWIDTH 6 0
BBX 2 6 2 9
BITMAP
C0
C0
40
40
40
80
ENDCHAR
STARTCHAR 02BD
ENCODING 701
SWIDTH 300 0
DWIDTH 6 0
BBX 2 6 2 9
BITMAP
C0
C0
80
80
80
40
ENDCHAR
STARTCHAR 02BE
ENCODING 702
SWIDTH 300 0
DWIDTH 6 0
BBX 3 5 2 10
BITMAP
C0
60
60
60
C0
ENDCHAR
STARTCHAR 02BF
ENCODING 703
SWIDTH 300 0
DWIDTH 6 0
BBX 3 5 1 10
BITMAP
60
C0
C0
C0
60
ENDCHAR
STARTCHAR 02C0
ENCODING 704
SWIDTH 350 0
DWIDTH 7 0
BBX 5 6 1 9
BITMAP
F0
18
18
30
60
60
ENDCHAR
STARTCHAR 02C1
ENCODING 705
SWIDTH 350 0
DWIDTH 7 0
BBX 5 6 1 9
BITMAP
78
C0
C0
60
30
30
ENDCHAR
STARTCHAR 02C2
ENCODING 706
SWIDTH 400 0
DWIDTH 8 0
BBX 6 7 0 8
BITMAP
04
1C
38
E0
38
1C
04
ENDCHAR
STARTCHAR 02C3
ENCODING 707
SWIDTH 400 0
DWIDTH 8 0
BBX 6 7 1 8
BITMAP
80
E0
70
1C
30
E0
80
ENDCHAR
STARTCHAR 02C4
ENCODING 708
SWIDTH 400 0
DWIDTH 8 0
BBX 7 6 1 9
BITMAP
10
10
38
6C
64
C6
ENDCHAR
STARTCHAR 02C5
ENCODING 709
SWIDTH 400 0
DWIDTH 8 0
BBX 7 6 1 9
BITMAP
C6
4C
6C
38
10
10
ENDCHAR
STARTCHAR 02C6
ENCODING 710
SWIDTH 600 0
DWIDTH 12 0
BBX 7 3 3 13
BITMAP
38
6C
C6
ENDCHAR
STARTCHAR 02C7
ENCODING 711
SWIDTH 600 0
DWIDTH 12 0
BBX 7 3 3 13
BITMAP
C6
6C
38
ENDCHAR
STARTCHAR 02C8
ENCODING 712
SWIDTH 250 0
DWIDTH 5 0
BBX 2 6 2 9
BITMAP
C0
C0
C0
C0
C0
C0
ENDCHAR
STARTCHAR 02C9
ENCODING 713
SWIDTH 600 0
DWIDTH 12 0
BBX 6 1 3 13
BITMAP
FC
ENDCHAR
STARTCHAR 02CA
ENCODING 714
SWIDTH 600 0
DWIDTH 12 0
BBX 4 3 4 13
BITMAP
30
60
C0
ENDCHAR
STARTCHAR 02CB
ENCODING 715
SWIDTH 600 0
DWIDTH 12 0
BBX 4 3 5 13
BITMAP
C0
60
30
ENDCHAR
STARTCHAR 02CC
ENCODING 716
SWIDTH 250 0
DWIDTH 5 0
BBX 2 5 2 -4
BITMAP
C0
C0
C0
C0
C0
ENDCHAR
STARTCHAR 02CD
ENCODING 717
SWIDTH 600 0
DWIDTH 12 0
BBX 6 1 3 -3
BITMAP
FC
ENDCHAR
STARTCHAR 02CE
ENCODING 718
SWIDTH 600 0
DWIDTH 12 0
BBX 4 3 5 -5
BITMAP
C0
60
30
ENDCHAR
STARTCHAR 02CF
ENCODING 719
SWIDTH 600 0
DWIDTH 12 0
BBX 4 3 4 -5
BITMAP
30
60
C0
ENDCHAR
STARTCHAR 02D0
ENCODING 720
SWIDTH 400 0
DWIDTH 8 0
BBX 5 11 2 0
BITMAP
F8
70
20
20
00
00
00
20
20
70
F8
ENDCHAR
STARTCHAR 02D1
ENCODING 721
SWIDTH 400 0
DWIDTH 8 0
BBX 4 3 2 7
BITMAP
F0
60
60
ENDCHAR
STARTCHAR 02D2
ENCODING 722
SWIDTH 300 0
DWIDTH 6 0
BBX 3 6 1 3
BITMAP
C0
60
60
60
60
C0
ENDCHAR
STARTCHAR 02D3
ENCODING 723
SWIDTH 300 0
DWIDTH 6 0
BBX 3 6 1 3
BITMAP
60
C0
C0
C0
C0
60
ENDCHAR
STARTCHAR 02D4
ENCODING 724
SWIDTH 450 0
DWIDTH 9 0
BBX 8 4 1 5
BITMAP
18
18
18
FF
ENDCHAR
STARTCHAR 02D5
ENCODING 725
SWIDTH 450 0
DWIDTH 9 0
BBX 8 4 1 5
BITMAP
FF
18
18
18
ENDCHAR
STARTCHAR 02D6
ENCODING 726
SWIDTH 450 0
DWIDTH 9 0
BBX 8 7 1 2
BITMAP
18
18
18
FF
18
18
18
ENDCHAR
STARTCHAR 02D7
ENCODING 727
SWIDTH 450 0
DWIDTH 9 0
BBX 7 3 1 4
BITMAP
C6
FE
C6
ENDCHAR
STARTCHAR 02D8
ENCODING 728
SWIDTH 600 0
DWIDTH 12 0
BBX 7 3 3 13
BITMAP
C6
44
38
ENDCHAR
STARTCHAR 02D9
ENCODING 729
SWIDTH 600 0
DWIDTH 12 0
BBX 2 1 5 13
BITMAP
C0
ENDCHAR
STARTCHAR 02DA
ENCODING 730
SWIDTH 600 0
DWIDTH 12 0
BBX 4 4 4 13
BITMAP
60
90
90
60
ENDCHAR
STARTCHAR 02DB
ENCODING 731
SWIDTH 600 0
DWIDTH 12 0
BBX 3 4 5 -4
BITMAP
40
80
80
60
ENDCHAR
STARTCHAR 02DC
ENCODING 732
SWIDTH 600 0
DWIDTH 12 0
BBX 7 2 3 13
BITMAP
E6
DE
ENDCHAR
STARTCHAR 02DD
ENCODING 733
SWIDTH 600 0
DWIDTH 12 0
BBX 7 3 2 13
BITMAP
36
6C
D8
ENDCHAR
STARTCHAR 02DE
ENCODING 734
SWIDTH 250 0
DWIDTH 5 0
BBX 7 6 -2 2
BITMAP
38
F8
18
18
18
0E
ENDCHAR
STARTCHAR 02E0
ENCODING 736
SWIDTH 400 0
DWIDTH 8 0
BBX 7 9 0 6
BITMAP
C6
76
34
1C
0C
1C
34
34
38
ENDCHAR
STARTCHAR 02E1
ENCODING 737
SWIDTH 200 0
DWIDTH 4 0
BBX 2 9 1 9
BITMAP
C0
C0
C0
C0
C0
C0
C0
C0
C0
ENDCHAR
STARTCHAR 02E2
ENCODING 738
SWIDTH 350 0
DWIDTH 7 0
BBX 5 6 1 9
BITMAP
F0
C0
E0
38
18
F0
ENDCHAR
STARTCHAR 02E3
ENCODING 739
SWIDTH 400 0
DWIDTH 8 0
BBX 6 6 1 9
BITMAP
CC
78
30
30
78
CC
ENDCHAR
STARTCHAR 02E4
ENCODING 740
SWIDTH 350 0
DWIDTH 7 0
BBX 5 9 0 9
BITMAP
78
C0
C0
60
60
30
30
30
30
ENDCHAR
STARTCHAR 02E5
ENCODING 741
SWIDTH 450 0
DWIDTH 9 0
BBX 6 14 0 0
BITMAP
FC
0C
0C
0C
0C
0C
0C
0C
0C
0C
0C
0C
0C
0C
ENDCHAR
STARTCHAR 02E6
ENCODING 742
SWIDTH 450 0
DWIDTH 9 0
BBX 6 14 0 0
BITMAP
0C
0C
0C
FC
0C
0C
0C
0C
0C
0C
0C
0C
0C
0C
ENDCHAR
STARTCHAR 02E7
ENCODING 743
SWIDTH 450 0
DWIDTH 9 0
BBX 6 14 0 0
BITMAP
0C
0C
0C
0C
0C
0C
FC
0C
0C
0C
0C
0C
0C
0C
ENDCHAR
STARTCHAR 02E8
ENCODING 744
SWIDTH 450 0
DWIDTH 9 0
BBX 6 14 0 0
BITMAP
0C
0C
0C
0C
0C
0C
0C
0C
0C
0C
FC
0C
0C
0C
ENDCHAR
STARTCHAR 02E9
ENCODING 745
SWIDTH 450 0
DWIDTH 9 0
BBX 6 14 0 0
BITMAP
0C
0C
0C
0C
0C
0C
0C
0C
0C
0C
0C
0C
0C
FC
ENDCHAR
STARTCHAR 0300
ENCODING 768
SWIDTH 0 0
DWIDTH 0 0
BBX 4 3 -8 13
BITMAP
C0
60
30
ENDCHAR
STARTCHAR 0301
ENCODING 769
SWIDTH 0 0
DWIDTH 0 0
BBX 4 3 -8 13
BITMAP
30
60
C0
ENDCHAR
STARTCHAR 0302
ENCODING 770
SWIDTH 0 0
DWIDTH 0 0
BBX 7 3 -10 13
BITMAP
38
6C
C6
ENDCHAR
STARTCHAR 0303
ENCODING 771
SWIDTH 0 0
DWIDTH 0 0
BBX 7 2 -9 13
BITMAP
E6
DE
ENDCHAR
STARTCHAR 0304
ENCODING 772
SWIDTH 0 0
DWIDTH 0 0
BBX 6 1 -9 13
BITMAP
FC
ENDCHAR
STARTCHAR 0305
ENCODING 773
SWIDTH 0 0
DWIDTH 0 0
BBX 12 1 -12 16
BITMAP
FFF0
ENDCHAR
STARTCHAR 0306
ENCODING 774
SWIDTH 0 0
DWIDTH 0 0
BBX 7 3 -9 13
BITMAP
C6
44
38
ENDCHAR
STARTCHAR 0307
ENCODING 775
SWIDTH 0 0
DWIDTH 0 0
BBX 2 1 -7 13
BITMAP
C0
ENDCHAR
STARTCHAR 0308
ENCODING 776
SWIDTH 0 0
DWIDTH 0 0
BBX 6 1 -9 13
BITMAP
CC
ENDCHAR
STARTCHAR 0309
ENCODING 777
SWIDTH 0 0
DWIDTH 0 0
BBX 3 3 -7 13
BITMAP
E0
20
40
ENDCHAR
STARTCHAR 030A
ENCODING 778
SWIDTH 0 0
DWIDTH 0 0
BBX 4 4 -8 13
BITMAP
60
90
90
60
ENDCHAR
STARTCHAR 030B
ENCODING 779
SWIDTH 0 0
DWIDTH 0 0
BBX 7 3 -9 13
BITMAP
36
6C
D8
ENDCHAR
STARTCHAR 030C
ENCODING 780
SWIDTH 0 0
DWIDTH 0 0
BBX 7 3 -10 13
BITMAP
C6
6C
38
ENDCHAR
STARTCHAR 030D
ENCODING 781
SWIDTH 0 0
DWIDTH 0 0
BBX 2 4 -7 13
BITMAP
C0
C0
C0
C0
ENDCHAR
STARTCHAR 030E
ENCODING 782
SWIDTH 0 0
DWIDTH 0 0
BBX 5 4 -9 13
BITMAP
D8
D8
D8
D8
ENDCHAR
STARTCHAR 030F
ENCODING 783
SWIDTH 0 0
DWIDTH 0 0
BBX 7 3 -11 13
BITMAP
D8
6C
36
ENDCHAR
STARTCHAR 0310
ENCODING 784
SWIDTH 0 0
DWIDTH 0 0
BBX 7 5 -10 13
BITMAP
18
00
C6
6C
38
ENDCHAR
STARTCHAR 0311
ENCODING 785
SWIDTH 0 0
DWIDTH 0 0
BBX 7 3 -9 13
BITMAP
38
44
C6
ENDCHAR
STARTCHAR 0312
ENCODING 786
SWIDTH 0 0
DWIDTH 0 0
BBX 2 4 -7 13
BITMAP
40
80
80
C0
ENDCHAR
STARTCHAR 0313
ENCODING 787
SWIDTH 0 0
DWIDTH 0 0
BBX 2 4 -7 13
BITMAP
C0
40
40
80
ENDCHAR
STARTCHAR 0314
ENCODING 788
SWIDTH 0 0
DWIDTH 0 0
BBX 2 4 -7 11
BITMAP
C0
80
80
40
ENDCHAR
STARTCHAR 0315
ENCODING 789
SWIDTH 0 0
DWIDTH 0 0
BBX 2 4 -2 13
BITMAP
C0
40
40
80
ENDCHAR
STARTCHAR 0316
ENCODING 790
SWIDTH 0 0
DWIDTH 0 0
BBX 4 3 -7 -5
BITMAP
C0
60
30
ENDCHAR
STARTCHAR 0317
ENCODING 791
SWIDTH 0 0
DWIDTH 0 0
BBX 4 3 -8 -5
BITMAP
30
60
C0
ENDCHAR
STARTCHAR 0318
ENCODING 792
SWIDTH 0 0
DWIDTH 0 0
BBX 4 5 -9 -6
BITMAP
10
10
F0
10
10
ENDCHAR
STARTCHAR 0319
ENCODING 793
SWIDTH 0 0
DWIDTH 0 0
BBX 4 5 -7 -7
BITMAP
80
80
F0
80
80
ENDCHAR
STARTCHAR 031A
ENCODING 794
SWIDTH 0 0
DWIDTH 0 0
BBX 5 4 -5 11
BITMAP
F8
18
18
18
ENDCHAR
STARTCHAR 031B
ENCODING 795
SWIDTH 0 0
DWIDTH 0 0
BBX 4 4 -4 10
BITMAP
30
30
30
E0
ENDCHAR
STARTCHAR 031C
ENCODING 796
SWIDTH 0 0
DWIDTH 0 0
BBX 3 4 -7 -6
BITMAP
60
80
80
60
ENDCHAR
STARTCHAR 031D
ENCODING 797
SWIDTH 0 0
DWIDTH 0 0
BBX 5 4 -9 -6
BITMAP
20
20
20
F8
ENDCHAR
STARTCHAR 031E
ENCODING 798
SWIDTH 0 0
DWIDTH 0 0
BBX 5 4 -9 -6
BITMAP
F8
20
20
20
ENDCHAR
STARTCHAR 031F
ENCODING 799
SWIDTH 0 0
DWIDTH 0 0
BBX 5 5 -9 -7
BITMAP
20
20
F8
20
20
ENDCHAR
STARTCHAR 0320
ENCODING 800
SWIDTH 0 0
DWIDTH 0 0
BBX 6 3 -9 -5
BITMAP
84
FC
84
ENDCHAR
STARTCHAR 0321
ENCODING 801
SWIDTH 0 0
DWIDTH 0 0
BBX 5 4 -5 -4
BITMAP
18
18
18
F0
ENDCHAR
STARTCHAR 0322
ENCODING 802
SWIDTH 0 0
DWIDTH 0 0
BBX 5 4 -5 -4
BITMAP
C0
C0
C0
78
ENDCHAR
STARTCHAR 0323
ENCODING 803
SWIDTH 0 0
DWIDTH 0 0
BBX 2 1 -7 -4
BITMAP
C0
ENDCHAR
STARTCHAR 0324
ENCODING 804
SWIDTH 0 0
DWIDTH 0 0
BBX 6 1 -9 -4
BITMAP
CC
ENDCHAR
STARTCHAR 0325
ENCODING 805
SWIDTH 0 0
DWIDTH 0 0
BBX 4 4 -8 -6
BITMAP
60
90
90
60
ENDCHAR
STARTCHAR 0326
ENCODING 806
SWIDTH 0 0
DWIDTH 0 0
BBX 2 4 -7 -7
BITMAP
C0
40
40
80
ENDCHAR
STARTCHAR 0327
ENCODING 807
SWIDTH 0 0
DWIDTH 0 0
BBX 3 4 -7 -4
BITMAP
40
E0
60
E0
ENDCHAR
STARTCHAR 0328
ENCODING 808
SWIDTH 0 0
DWIDTH 0 0
BBX 3 4 -7 -4
BITMAP
40
C0
C0
E0
ENDCHAR
STARTCHAR 0329
ENCODING 809
SWIDTH 0 0
DWIDTH 0 0
BBX 2 4 -7 -6
BITMAP
C0
C0
C0
C0
ENDCHAR
STARTCHAR 032A
ENCODING 810
SWIDTH 0 0
DWIDTH 0 0
BBX 6 3 -9 -5
BITMAP
FC
84
84
ENDCHAR
STARTCHAR 032B
ENCODING 811
SWIDTH 0 0
DWIDTH 0 0
BBX 10 3 -10 -4
BITMAP
CCC0
CCC0
7380
ENDCHAR
STARTCHAR 032C
ENCODING 812
SWIDTH 0 0
DWIDTH 0 0
BBX 7 3 -10 -5
BITMAP
C6
6C
38
ENDCHAR
STARTCHAR 032D
ENCODING 813
SWIDTH 0 0
DWIDTH 0 0
BBX 7 3 -10 -5
BITMAP
38
6C
C6
ENDCHAR
STARTCHAR 032E
ENCODING 814
SWIDTH 0 0
DWIDTH 0 0
BBX 7 3 -9 -5
BITMAP
C6
44
38
ENDCHAR
STARTCHAR 032F
ENCODING 815
SWIDTH 0 0
DWIDTH 0 0
BBX 7 3 -9 -5
BITMAP
38
44
C6
ENDCHAR
STARTCHAR 0330
ENCODING 816
SWIDTH 0 0
DWIDTH 0 0
BBX 7 2 -9 -4
BITMAP
E6
DE
ENDCHAR
STARTCHAR 0331
ENCODING 817
SWIDTH 0 0
DWIDTH 0 0
BBX 6 1 -9 -3
BITMAP
FC
ENDCHAR
STARTCHAR 0332
ENCODING 818
SWIDTH 0 0
DWIDTH 0 0
BBX 12 1 -12 -6
BITMAP
FFF0
ENDCHAR
STARTCHAR 0333
ENCODING 819
SWIDTH 0 0
DWIDTH 0 0
BBX 12 4 -12 -8
BITMAP
FFF0
0000
0000
FFF0
ENDCHAR
STARTCHAR 0334
ENCODING 820
SWIDTH 0 0
DWIDTH 0 0
BBX 10 4 -11 4
BITMAP
70C0
C8C0
C4C0
C380
ENDCHAR
STARTCHAR 0335
ENCODING 821
SWIDTH 0 0
DWIDTH 0 0
BBX 10 1 -11 5
BITMAP
FFC0
ENDCHAR
STARTCHAR 0336
ENCODING 822
SWIDTH 0 0
DWIDTH 0 0
BBX 12 1 -12 5
BITMAP
FFF0
ENDCHAR
STARTCHAR 0337
ENCODING 823
SWIDTH 0 0
DWIDTH 0 0
BBX 12 11 -12 0
BITMAP
0030
0060
00C0
0180
0300
0600
0C00
1800
3000
6000
C000
ENDCHAR
STARTCHAR 0338
ENCODING 824
SWIDTH 0 0
DWIDTH 0 0
BBX 10 18 -11 -2
BITMAP
00C0
0080
0080
0100
0100
0200
0200
0400
0400
0800
0800
1000
1000
2000
2000
4000
4000
C000
ENDCHAR
STARTCHAR 0339
ENCODING 825
SWIDTH 0 0
DWIDTH 0 0
BBX 2 4 -7 -6
BITMAP
80
C0
C0
80
ENDCHAR
STARTCHAR 033A
ENCODING 826
SWIDTH 0 0
DWIDTH 0 0
BBX 6 3 -9 -5
BITMAP
84
84
FC
ENDCHAR
STARTCHAR 033B
ENCODING 827
SWIDTH 0 0
DWIDTH 0 0
BBX 6 4 -9 -6
BITMAP
FC
84
84
FC
ENDCHAR
STARTCHAR 033C
ENCODING 828
SWIDTH 0 0
DWIDTH 0 0
BBX 10 3 -10 -5
BITMAP
7380
CCC0
CCC0
ENDCHAR
STARTCHAR 033D
ENCODING 829
SWIDTH 0 0
DWIDTH 0 0
BBX 5 4 -9 12
BITMAP
D8
70
70
D8
ENDCHAR
STARTCHAR 033E
ENCODING 830
SWIDTH 0 0
DWIDTH 0 0
BBX 2 4 -7 12
BITMAP
C0
C0
C0
C0
ENDCHAR
STARTCHAR 033F
ENCODING 831
SWIDTH 0 0
DWIDTH 0 0
BBX 12 4 -12 16
BITMAP
FFF0
0000
0000
FFF0
ENDCHAR
STARTCHAR 0340
ENCODING 832
SWIDTH 0 0
DWIDTH 0 0
BBX 4 3 -11 17
BITMAP
C0
60
30
ENDCHAR
STARTCHAR 0341
ENCODING 833
SWIDTH 0 0
DWIDTH 0 0
BBX 4 3 -5 17
BITMAP
30
60
C0
ENDCHAR
STARTCHAR 0344
ENCODING 836
SWIDTH 0 0
DWIDTH 0 0
BBX 8 3 -10 13
BITMAP
18
18
DB
ENDCHAR
STARTCHAR 0345
ENCODING 837
SWIDTH 0 0
DWIDTH 0 0
BBX 3 3 -6 -4
BITMAP
C0
C0
E0
ENDCHAR
STARTCHAR 0374
ENCODING 884
SWIDTH 350 0
DWIDTH 7 0
BBX 4 6 1 8
BITMAP
30
60
60
40
C0
80
ENDCHAR
STARTCHAR 0375
ENCODING 885
SWIDTH 350 0
DWIDTH 7 0
BBX 4 6 1 0
BITMAP
30
60
60
40
C0
80
ENDCHAR
STARTCHAR 037A
ENCODING 890
SWIDTH 600 0
DWIDTH 12 0
BBX 3 3 5 -4
BITMAP
C0
C0
E0
ENDCHAR
STARTCHAR 037E
ENCODING 894
SWIDTH 300 0
DWIDTH 6 0
BBX 2 14 2 -3
BITMAP
C0
00
00
00
00
00
00
00
00
00
C0
40
40
80
ENDCHAR
STARTCHAR 0384
ENCODING 900
SWIDTH 600 0
DWIDTH 12 0
BBX 2 3 5 12
BITMAP
C0
C0
C0
ENDCHAR
STARTCHAR 0385
ENCODING 901
SWIDTH 600 0
DWIDTH 12 0
BBX 8 3 2 13
BITMAP
18
18
DB
ENDCHAR
STARTCHAR 0386
ENCODING 902
SWIDTH 700 0
DWIDTH 14 0
BBX 13 14 0 0
BITMAP
C300
C700
C580
0980
0980
10C0
10C0
10C0
2060
3FE0
4030
4030
4030
8018
ENDCHAR
STARTCHAR 0388
ENCODING 904
SWIDTH 650 0
DWIDTH 13 0
BBX 13 14 0 0
BITMAP
CFF8
CC00
CC00
0C00
0C00
0C00
0FF0
0C00
0C00
0C00
0C00
0C00
0C00
0FF8
ENDCHAR
STARTCHAR 0389
ENCODING 905
SWIDTH 850 0
DWIDTH 17 0
BBX 15 14 0 0
BITMAP
CC06
CC06
CC06
0C06
0C06
0C06
0FFE
0C06
0C06
0C06
0C06
0C06
0C06
0C06
ENDCHAR
STARTCHAR 038A
ENCODING 906
SWIDTH 400 0
DWIDTH 8 0
BBX 6 14 0 0
BITMAP
CC
CC
CC
0C
0C
0C
0C
0C
0C
0C
0C
0C
0C
0C
ENDCHAR
STARTCHAR 038C
ENCODING 908
SWIDTH 850 0
DWIDTH 17 0
BBX 17 14 0 0
BITMAP
C1F800
C70E00
CC0300
0C0300
180180
180180
180180
180180
180180
180180
0C0300
0C0300
070E00
01F800
ENDCHAR
STARTCHAR 038E
ENCODING 910
SWIDTH 800 0
DWIDTH 16 0
BBX 16 14 0 0
BITMAP
CE03
C306
C18C
00D8
00D0
00F0
0060
0060
0060
0060
0060
0060
0060
0060
ENDCHAR
STARTCHAR 038F
ENCODING 911
SWIDTH 850 0
DWIDTH 17 0
BBX 17 14 0 0
BITMAP
C1F800
C70E00
CC0300
0C0300
180180
180180
180180
180180
180180
0C0300
0C0300
060600
030C00
1F9F80
ENDCHAR
STARTCHAR 0390
ENCODING 912
SWIDTH 350 0
DWIDTH 7 0
BBX 8 16 -1 0
BITMAP
18
18
DB
00
00
18
18
18
18
18
18
18
18
18
18
0F
ENDCHAR
STARTCHAR 0391
ENCODING 913
SWIDTH 700 0
DWIDTH 14 0
BBX 13 14 0 0
BITMAP
0300
0700
0580
0980
0980
10C0
10C0
10C0
2060
3FE0
4030
4030
4030
8018
ENDCHAR
STARTCHAR 0392
ENCODING 914
SWIDTH 600 0
DWIDTH 12 0
BBX 9 14 2 0
BITMAP
FC00
C600
C300
C300
C300
C600
F800
C700
C300
C180
C180
C180
C300
FE00
ENDCHAR
STARTCHAR 0393
ENCODING 915
SWIDTH 500 0
DWIDTH 10 0
BBX 8 14 2 0
BITMAP
FF
C0
C0
C0
C0
C0
C0
C0
C0
C0
C0
C0
C0
C0
ENDCHAR
STARTCHAR 0394
ENCODING 916
SWIDTH 700 0
DWIDTH 14 0
BBX 13 14 0 0
BITMAP
0700
0700
0D80
0D80
18C0
18C0
10C0
3060
2060
6030
4030
C018
FFF8
FFF8
ENDCHAR
STARTCHAR 0395
ENCODING 917
SWIDTH 550 0
DWIDTH 11 0
BBX 9 14 2 0
BITMAP
FF80
C000
C000
C000
C000
C000
FF00
C000
C000
C000
C000
C000
C000
FF80
ENDCHAR
STARTCHAR 0396
ENCODING 918
SWIDTH 600 0
DWIDTH 12 0
BBX 10 14 1 0
BITMAP
FFC0
00C0
0180
0300
0300
0600
0C00
0C00
1800
3000
3000
6000
C000
FFC0
ENDCHAR
STARTCHAR 0397
ENCODING 919
SWIDTH 750 0
DWIDTH 15 0
BBX 11 14 2 0
BITMAP
C060
C060
C060
C060
C060
C060
FFE0
C060
C060
C060
C060
C060
C060
C060
ENDCHAR
STARTCHAR 0398
ENCODING 920
SWIDTH 800 0
DWIDTH 16 0
BBX 14 14 1 0
BITMAP
0FC0
3870
6018
6018
C00C
C00C
CFCC
C00C
C00C
C00C
6018
6018
3870
0FC0
ENDCHAR
STARTCHAR 0399
ENCODING 921
SWIDTH 300 0
DWIDTH 6 0
BBX 2 14 2 0
BITMAP
C0
C0
C0
C0
C0
C0
C0
C0
C0
C0
C0
C0
C0
C0
ENDCHAR
STARTCHAR 039A
ENCODING 922
SWIDTH 650 0
DWIDTH 13 0
BBX 10 14 2 0
BITMAP
C080
C100
C200
C400
C800
D000
E000
F000
D800
CC00
C600
C300
C180
C0C0
ENDCHAR
STARTCHAR 039B
ENCODING 923
SWIDTH 650 0
DWIDTH 13 0
BBX 13 14 0 0
BITMAP
0600
0700
0B00
0980
0980
1180
10C0
10C0
2060
2060
4070
4030
4030
8018
ENDCHAR
STARTCHAR 039C
ENCODING 924
SWIDTH 850 0
DWIDTH 17 0
BBX 14 14 2 0
BITMAP
C01C
E01C
E02C
B02C
B02C
B04C
984C
988C
8C8C
8C8C
8D0C
870C
870C
800C
ENDCHAR
STARTCHAR 039D
ENCODING 925
SWIDTH 750 0
DWIDTH 15 0
BBX 11 14 2 0
BITMAP
C020
E020
F020
B020
9820
9C20
8C20
8620
8720
8320
81A0
81E0
80E0
8060
ENDCHAR
STARTCHAR 039E
ENCODING 926
SWIDTH 600 0
DWIDTH 12 0
BBX 11 14 0 0
BITMAP
7FC0
0000
0000
0000
0000
0000
7FC0
0000
0000
0000
0000
0000
0000
FFE0
ENDCHAR
STARTCHAR 039F
ENCODING 927
SWIDTH 800 0
DWIDTH 16 0
BBX 14 14 1 0
BITMAP
0FC0
3870
6018
6018
C00C
C00C
C00C
C00C
C00C
C00C
6018
6018
3870
0FC0
ENDCHAR
STARTCHAR 03A0
ENCODING 928
SWIDTH 750 0
DWIDTH 15 0
BBX 13 14 1 0
BITMAP
FFF8
6030
6030
6030
6030
6030
6030
6030
6030
6030
6030
6030
6030
6030
ENDCHAR
STARTCHAR 03A1
ENCODING 929
SWIDTH 550 0
DWIDTH 11 0
BBX 9 14 2 0
BITMAP
FE00
C300
C180
C180
C180
C300
C700
FC00
C000
C000
C000
C000
C000
C000
ENDCHAR
STARTCHAR 03A3
ENCODING 931
SWIDTH 600 0
DWIDTH 12 0
BBX 11 14 1 0
BITMAP
FFE0
E000
7000
3800
1C00
0E00
0700
0600
0C00
1800
3000
6000
C000
FFE0
ENDCHAR
STARTCHAR 03A4
ENCODING 932
SWIDTH 650 0
DWIDTH 13 0
BBX 12 14 0 0
BITMAP
FFF0
0600
0600
0600
0600
0600
0600
0600
0600
0600
0600
0600
0600
0600
ENDCHAR
STARTCHAR 03A5
ENCODING 933
SWIDTH 650 0
DWIDTH 13 0
BBX 12 14 0 0
BITMAP
E030
3060
18C0
0D80
0D00
0F00
0600
0600
0600
0600
0600
0600
0600
0600
ENDCHAR
STARTCHAR 03A6
ENCODING 934
SWIDTH 700 0
DWIDTH 14 0
BBX 12 14 1 0
BITMAP
0600
0600
1F80
6660
6660
C630
C630
C630
C630
6660
6660
1F80
0600
0600
ENDCHAR
STARTCHAR 03A7
ENCODING 935
SWIDTH 650 0
DWIDTH 13 0
BBX 12 14 0 0
BITMAP
E010
6020
3040
3880
1C80
0D00
0E00
0700
0B00
1380
11C0
20C0
4060
8070
ENDCHAR
STARTCHAR 03A8
ENCODING 936
SWIDTH 750 0
DWIDTH 15 0
BBX 14 14 0 0
BITMAP
C30C
6318
2310
3330
3330
3330
1B60
0FC0
0300
0300
0300
0300
0300
0300
ENDCHAR
STARTCHAR 03A9
ENCODING 937
SWIDTH 800 0
DWIDTH 16 0
BBX 14 14 1 0
BITMAP
0FC0
3870
6018
6018
C00C
C00C
C00C
C00C
C00C
6018
6018
3030
1860
FCFC
ENDCHAR
STARTCHAR 03AA
ENCODING 938
SWIDTH 300 0
DWIDTH 6 0
BBX 6 17 0 0
BITMAP
CC
00
00
30
30
30
30
30
30
30
30
30
30
30
30
30
30
ENDCHAR
STARTCHAR 03AB
ENCODING 939
SWIDTH 650 0
DWIDTH 13 0
BBX 12 16 0 0
BITMAP
1980
0000
E030
3060
18C0
0D80
0D00
0F00
0600
0600
0600
0600
0600
0600
0600
0600
ENDCHAR
STARTCHAR 03AC
ENCODING 940
SWIDTH 700 0
DWIDTH 14 0
BBX 12 16 1 0
BITMAP
0600
0600
0600
0000
0000
1C30
2630
6620
C360
C340
C1C0
C180
C1C0
C2C0
6460
3830
ENDCHAR
STARTCHAR 03AD
ENCODING 941
SWIDTH 550 0
DWIDTH 11 0
BBX 8 16 2 0
BITMAP
0C
0C
0C
00
00
1F
60
60
C0
C0
FE
C0
C0
60
61
1E
ENDCHAR
STARTCHAR 03AE
ENCODING 942
SWIDTH 600 0
DWIDTH 12 0
BBX 10 20 1 -4
BITMAP
0600
0600
0600
0000
0000
C780
69C0
70C0
60C0
60C0
60C0
60C0
60C0
60C0
60C0
60C0
00C0
00C0
00C0
00C0
ENDCHAR
STARTCHAR 03AF
ENCODING 943
SWIDTH 350 0
DWIDTH 7 0
BBX 5 16 2 0
BITMAP
C0
C0
C0
00
00
C0
C0
C0
C0
C0
C0
C0
C0
C0
C0
78
ENDCHAR
STARTCHAR 03B0
ENCODING 944
SWIDTH 600 0
DWIDTH 12 0
BBX 9 16 2 0
BITMAP
0C00
0C00
6D80
0000
0000
C300
C300
C180
C180
C180
C180
C180
C180
C300
6300
3C00
ENDCHAR
STARTCHAR 03B1
ENCODING 945
SWIDTH 700 0
DWIDTH 14 0
BBX 12 11 1 0
BITMAP
1C30
2630
6620
C360
C340
C1C0
C180
C1C0
C2C0
6460
3830
ENDCHAR
STARTCHAR 03B2
ENCODING 946
SWIDTH 600 0
DWIDTH 12 0
BBX 9 19 2 -4
BITMAP
3E00
6300
C300
C300
C300
C600
DC00
C700
C300
C180
C180
C180
C180
C300
FE00
C000
C000
C000
C000
ENDCHAR
STARTCHAR 03B3
ENCODING 947
SWIDTH 550 0
DWIDTH 11 0
BBX 11 15 0 -4
BITMAP
C060
60C0
6080
3180
3100
1B00
1A00
0E00
0C00
0C00
0C00
0C00
0C00
0C00
0C00
ENDCHAR
STARTCHAR 03B4
ENCODING 948
SWIDTH 600 0
DWIDTH 12 0
BBX 10 15 1 0
BITMAP
3F00
C000
C000
E000
7800
1E00
3300
6180
C0C0
C0C0
C0C0
C0C0
6180
6180
1E00
ENDCHAR
STARTCHAR 03B5
ENCODING 949
SWIDTH 550 0
DWIDTH 11 0
BBX 8 11 2 0
BITMAP
1F
60
60
C0
C0
FE
C0
C0
60
61
1E
ENDCHAR
STARTCHAR 03B6
ENCODING 950
SWIDTH 650 0
DWIDTH 13 0
BBX 13 19 0 -4
BITMAP
0018
0070
C1E0
7F80
0400
0C00
1800
1800
3000
3000
3000
3000
3000
1800
0FF0
0018
0018
0018
01E0
ENDCHAR
STARTCHAR 03B7
ENCODING 951
SWIDTH 600 0
DWIDTH 12 0
BBX 10 15 1 -4
BITMAP
C780
69C0
70C0
60C0
60C0
60C0
60C0
60C0
60C0
60C0
60C0
00C0
00C0
00C0
00C0
ENDCHAR
STARTCHAR 03B8
ENCODING 952
SWIDTH 600 0
DWIDTH 12 0
BBX 10 15 1 0
BITMAP
1E00
3300
6180
4080
C0C0
C0C0
C0C0
FFC0
C0C0
C0C0
C0C0
4080
6180
3300
1E00
ENDCHAR
STARTCHAR 03B9
ENCODING 953
SWIDTH 350 0
DWIDTH 7 0
BBX 5 11 2 0
BITMAP
C0
C0
C0
C0
C0
C0
C0
C0
C0
C0
78
ENDCHAR
STARTCHAR 03BA
ENCODING 954
SWIDTH 550 0
DWIDTH 11 0
BBX 8 11 2 0
BITMAP
C3
C6
CC
D8
D0
F0
F8
D8
CC
CE
C7
ENDCHAR
STARTCHAR 03BB
ENCODING 955
SWIDTH 600 0
DWIDTH 12 0
BBX 11 14 0 0
BITMAP
6000
1000
0800
0400
0400
0E00
0E00
1900
1900
3180
3080
60C0
6040
C020
ENDCHAR
STARTCHAR 03BC
ENCODING 956
SWIDTH 650 0
DWIDTH 13 0
BBX 10 14 2 -3
BITMAP
C180
C180
C180
C180
C180
C180
C180
C180
C180
E380
DCC0
C000
C000
C000
ENDCHAR
STARTCHAR 03BD
ENCODING 957
SWIDTH 550 0
DWIDTH 11 0
BBX 10 11 0 0
BITMAP
C0C0
6040
6040
3040
3080
3880
1900
1900
0E00
0E00
0C00
ENDCHAR
STARTCHAR 03BE
ENCODING 958
SWIDTH 600 0
DWIDTH 12 0
BBX 11 19 1 -3
BITMAP
87C0
7F80
3000
3000
3000
3800
1C00
0F80
3800
3000
6000
6000
6000
3000
1FC0
0060
0060
0060
0780
ENDCHAR
STARTCHAR 03BF
ENCODING 959
SWIDTH 600 0
DWIDTH 12 0
BBX 11 11 1 0
BITMAP
1F00
71C0
60C0
C060
C060
C060
C060
C060
60C0
71C0
1F00
ENDCHAR
STARTCHAR 03C0
ENCODING 960
SWIDTH 800 0
DWIDTH 16 0
BBX 15 11 1 0
BITMAP
FFFE
9830
1830
1830
1830
1830
1830
1830
1830
1830
1818
ENDCHAR
STARTCHAR 03C1
ENCODING 961
SWIDTH 600 0
DWIDTH 12 0
BBX 10 15 2 -4
BITMAP
1E00
3180
6180
C0C0
C0C0
C0C0
C0C0
C080
C180
C300
FC00
C000
C000
C000
C000
ENDCHAR
STARTCHAR 03C2
ENCODING 962
SWIDTH 600 0
DWIDTH 12 0
BBX 10 15 1 -4
BITMAP
0F00
3000
6000
4000
C000
C000
C000
C000
C000
6000
3F80
00C0
00C0
00C0
0F00
ENDCHAR
STARTCHAR 03C3
ENCODING 963
SWIDTH 650 0
DWIDTH 13 0
BBX 14 11 1 0
BITMAP
1FFC
71C0
60E0
C060
C060
C060
C060
C060
60C0
7180
1F00
ENDCHAR
STARTCHAR 03C4
ENCODING 964
SWIDTH 550 0
DWIDTH 11 0
BBX 10 11 1 0
BITMAP
FFC0
0C00
0C00
0C00
0C00
0C00
0C00
0C00
0C00
0C00
0600
ENDCHAR
STARTCHAR 03C5
ENCODING 965
SWIDTH 600 0
DWIDTH 12 0
BBX 9 11 2 0
BITMAP
C300
C300
C180
C180
C180
C180
C180
C180
C300
6300
3C00
ENDCHAR
STARTCHAR 03C6
ENCODING 966
SWIDTH 750 0
DWIDTH 15 0
BBX 14 19 1 -4
BITMAP
0300
0300
0300
0300
0300
1FE0
7338
6318
C30C
C30C
C30C
C30C
6318
7338
1FE0
0300
0300
0300
0300
ENDCHAR
STARTCHAR 03C7
ENCODING 967
SWIDTH 550 0
DWIDTH 11 0
BBX 11 15 0 -4
BITMAP
E020
6040
3080
3180
1900
1A00
0E00
0E00
0E00
0F00
1300
2180
2180
40C0
80E0
ENDCHAR
STARTCHAR 03C8
ENCODING 968
SWIDTH 800 0
DWIDTH 16 0
BBX 14 17 1 -4
BITMAP
0300
0300
C318
C30C
C30C
C30C
C30C
C30C
C30C
C30C
6318
3330
1FE0
0300
0300
0300
0300
ENDCHAR
STARTCHAR 03C9
ENCODING 969
SWIDTH 900 0
DWIDTH 18 0
BBX 17 11 1 0
BITMAP
300600
61C300
61C300
C1C180
C1C180
C1C180
C1C180
C1C180
614300
636300
1C3C00
ENDCHAR
STARTCHAR 03CA
ENCODING 970
SWIDTH 350 0
DWIDTH 7 0
BBX 7 14 0 0
BITMAP
CC
00
00
30
30
30
30
30
30
30
30
30
30
1E
ENDCHAR
STARTCHAR 03CB
ENCODING 971
SWIDTH 600 0
DWIDTH 12 0
BBX 9 14 2 0
BITMAP
3300
0000
0000
C300
C300
C180
C180
C180
C180
C180
C180
C300
6300
3C00
ENDCHAR
STARTCHAR 03CC
ENCODING 972
SWIDTH 600 0
DWIDTH 12 0
BBX 11 16 1 0
BITMAP
0600
0600
0600
0000
0000
1F00
71C0
60C0
C060
C060
C060
C060
C060
60C0
71C0
1F00
ENDCHAR
STARTCHAR 03CD
ENCODING 973
SWIDTH 600 0
DWIDTH 12 0
BBX 9 16 2 0
BITMAP
0C00
0C00
0C00
0000
0000
C300
C300
C180
C180
C180
C180
C180
C180
C300
6300
3C00
ENDCHAR
STARTCHAR 03CE
ENCODING 974
SWIDTH 900 0
DWIDTH 18 0
BBX 17 16 1 0
BITMAP
00C000
00C000
00C000
000000
000000
300600
61C300
61C300
C1C180
C1C180
C1C180
C1C180
C1C180
614300
636300
1C3C00
ENDCHAR
STARTCHAR 03D0
ENCODING 976
SWIDTH 500 0
DWIDTH 10 0
BBX 9 15 1 0
BITMAP
0F00
3180
2180
6380
5E00
C000
C000
CE00
F300
E180
C180
E180
6180
3300
1E00
ENDCHAR
STARTCHAR 03D1
ENCODING 977
SWIDTH 600 0
DWIDTH 12 0
BBX 11 15 2 0
BITMAP
3C00
6300
C300
C180
C180
E180
7FE0
0180
0180
0180
0180
C300
6300
6600
3C00
ENDCHAR
STARTCHAR 03D2
ENCODING 978
SWIDTH 650 0
DWIDTH 13 0
BBX 11 14 1 0
BITMAP
E0E0
6180
3300
3200
1E00
1C00
0C00
0C00
0C00
0C00
0C00
0C00
0C00
0C00
ENDCHAR
STARTCHAR 03D3
ENCODING 979
SWIDTH 800 0
DWIDTH 16 0
BBX 15 14 0 0
BITMAP
CE0E
C618
C330
0320
01E0
01C0
00C0
00C0
00C0
00C0
00C0
00C0
00C0
00C0
ENDCHAR
STARTCHAR 03D4
ENCODING 980
SWIDTH 650 0
DWIDTH 13 0
BBX 11 16 1 0
BITMAP
3300
0000
E0E0
6180
3300
3200
1E00
1C00
0C00
0C00
0C00
0C00
0C00
0C00
0C00
0C00
ENDCHAR
STARTCHAR 03D5
ENCODING 981
SWIDTH 850 0
DWIDTH 17 0
BBX 16 15 1 -4
BITMAP
3C3C
6246
C183
C183
C183
C183
C183
6186
6186
399C
0FF0
0180
0180
0180
0180
ENDCHAR
STARTCHAR 03D6
ENCODING 982
SWIDTH 900 0
DWIDTH 18 0
BBX 17 11 0 0
BITMAP
FFFF80
180600
300700
30C300
30C300
30C300
30C300
30C300
10C200
19E600
0F3C00
ENDCHAR
STARTCHAR 03DA
ENCODING 986
SWIDTH 650 0
DWIDTH 13 0
BBX 12 18 1 -4
BITMAP
07E0
1C00
3000
7000
6000
C000
C000
C000
C000
C000
C000
6000
7000
1FE0
0030
0030
0070
03C0
ENDCHAR
STARTCHAR 03DC
ENCODING 988
SWIDTH 550 0
DWIDTH 11 0
BBX 8 14 2 0
BITMAP
FF
C0
C0
C0
C0
C0
FE
C0
C0
C0
C0
C0
C0
C0
ENDCHAR
STARTCHAR 03DE
ENCODING 990
SWIDTH 550 0
DWIDTH 11 0
BBX 9 14 1 0
BITMAP
1800
3800
3000
3000
6000
6000
FF80
0300
0300
0300
0600
0600
0E00
0C00
ENDCHAR
STARTCHAR 03E0
ENCODING 992
SWIDTH 650 0
DWIDTH 13 0
BBX 12 14 0 0
BITMAP
F000
1C00
0700
0780
1DC0
30E0
60E0
01E0
0730
0C30
1830
0030
0070
0020
ENDCHAR
STARTCHAR 03EE
ENCODING 1006
SWIDTH 650 0
DWIDTH 13 0
BBX 12 14 0 0
BITMAP
0600
0600
0600
FFF0
0600
0600
0600
0600
0600
0600
0600
0600
0600
0600
ENDCHAR
STARTCHAR 03EF
ENCODING 1007
SWIDTH 550 0
DWIDTH 11 0
BBX 10 19 1 -4
BITMAP
0C00
0C00
0C00
0C00
FFC0
0C00
0C00
0C00
0C00
0C00
0C00
0C00
0C00
0C00
0C00
0C00
0C00
0C00
0C00
ENDCHAR
STARTCHAR 03F0
ENCODING 1008
SWIDTH 550 0
DWIDTH 11 0
BBX 9 11 1 0
BITMAP
E180
7380
3700
3700
3E00
3E00
3E00
7600
7600
E300
C380
ENDCHAR
STARTCHAR 03F1
ENCODING 1009
SWIDTH 600 0
DWIDTH 12 0
BBX 9 15 2 -4
BITMAP
1E00
6300
6180
C180
C180
C180
C180
C300
C600
FC00
C000
4000
4000
2000
1F80
ENDCHAR
STARTCHAR 03F2
ENCODING 1010
SWIDTH 500 0
DWIDTH 10 0
BBX 8 11 1 0
BITMAP
1F
70
60
C0
C0
C0
C0
C0
60
71
1E
ENDCHAR
STARTCHAR 0401
ENCODING 1025
SWIDTH 550 0
DWIDTH 11 0
BBX 9 16 2 0
BITMAP
6600
0000
FF80
C000
C000
C000
C000
C000
FF00
C000
C000
C000
C000
C000
C000
FF80
ENDCHAR
STARTCHAR 0402
ENCODING 1026
SWIDTH 800 0
DWIDTH 16 0
BBX 15 14 0 0
BITMAP
FFF0
0600
0600
0600
0600
06F8
070C
0606
0606
0606
0606
060C
061C
0670
ENDCHAR
STARTCHAR 0403
ENCODING 1027
SWIDTH 500 0
DWIDTH 10 0
BBX 8 18 2 0
BITMAP
18
30
60
00
FF
C0
C0
C0
C0
C0
C0
C0
C0
C0
C0
C0
C0
C0
ENDCHAR
STARTCHAR 0404
ENCODING 1028
SWIDTH 600 0
DWIDTH 12 0
BBX 10 14 1 0
BITMAP
0F80
3840
6000
6000
C000
C000
FF00
C000
C000
C000
6000
7000
3840
0F80
ENDCHAR
STARTCHAR 0405
ENCODING 1029
SWIDTH 550 0
DWIDTH 11 0
BBX 9 14 1 0
BITMAP
3E00
6100
C000
C000
E000
7000
3C00
0F00
0380
0180
0180
0180
8300
7E00
ENDCHAR
STARTCHAR 0406
ENCODING 1030
SWIDTH 300 0
DWIDTH 6 0
BBX 2 14 2 0
BITMAP
C0
C0
C0
C0
C0
C0
C0
C0
C0
C0
C0
C0
C0
C0
ENDCHAR
STARTCHAR 0407
ENCODING 1031
SWIDTH 300 0
DWIDTH 6 0
BBX 6 16 0 0
BITMAP
CC
00
30
30
30
30
30
30
30
30
30
30
30
30
30
30
ENDCHAR
STARTCHAR 0408
ENCODING 1032
SWIDTH 300 0
DWIDTH 6 0
BBX 6 17 -2 -3
BITMAP
0C
0C
0C
0C
0C
0C
0C
0C
0C
0C
0C
0C
0C
0C
0C
18
F0
ENDCHAR
STARTCHAR 0409
ENCODING 1033
SWIDTH 1000 0
DWIDTH 20 0
BBX 19 14 0 0
BITMAP
0FF000
0C3000
0C3000
0C3000
0C3000
0C3000
0C3F80
0C30C0
0C3060
083060
183060
183060
3030C0
C03F00
ENDCHAR
STARTCHAR 040A
ENCODING 1034
SWIDTH 950 0
DWIDTH 19 0
BBX 17 14 2 0
BITMAP
C0C000
C0C000
C0C000
C0C000
C0C000
C0C000
FFFE00
C0C300
C0C180
C0C180
C0C180
C0C180
C0C300
C0FC00
ENDCHAR
STARTCHAR 040B
ENCODING 1035
SWIDTH 750 0
DWIDTH 15 0
BBX 14 14 0 0
BITMAP
FFC0
0C00
0C00
0C00
0C00
0DF0
0E18
0C0C
0C0C
0C0C
0C0C
0C0C
0C0C
0C0C
ENDCHAR
STARTCHAR 040C
ENCODING 1036
SWIDTH 600 0
DWIDTH 12 0
BBX 9 18 2 0
BITMAP
0600
0C00
1800
0000
C300
C200
C400
CC00
CC00
D800
F000
DC00
CC00
C600
C600
C300
C300
C180
ENDCHAR
STARTCHAR 040E
ENCODING 1038
SWIDTH 650 0
DWIDTH 13 0
BBX 12 18 1 0
BITMAP
3180
1100
0E00
0000
E010
6020
7060
3040
38C0
1880
1D00
0D00
0E00
0600
0400
0C00
0800
7000
ENDCHAR
STARTCHAR 040F
ENCODING 1039
SWIDTH 750 0
DWIDTH 15 0
BBX 10 17 2 -3
BITMAP
C0C0
C0C0
C0C0
C0C0
C0C0
C0C0
C0C0
C0C0
C0C0
C0C0
C0C0
C0C0
C0C0
FFC0
0C00
0C00
0C00
ENDCHAR
STARTCHAR 0410
ENCODING 1040
SWIDTH 700 0
DWIDTH 14 0
BBX 13 14 0 0
BITMAP
0300
0700
0580
0980
0980
10C0
10C0
10C0
2060
3FE0
4030
4030
4030
8018
ENDCHAR
STARTCHAR 0411
ENCODING 1041
SWIDTH 600 0
DWIDTH 12 0
BBX 9 14 2 0
BITMAP
FF00
C000
C000
C000
C000
C000
FE00
C300
C180
C180
C180
C180
C300
FC00
ENDCHAR
STARTCHAR 0412
ENCODING 1042
SWIDTH 600 0
DWIDTH 12 0
BBX 9 14 2 0
BITMAP
FC00
C600
C300
C300
C300
C600
F800
C700
C300
C180
C180
C180
C300
FE00
ENDCHAR
STARTCHAR 0413
ENCODING 1043
SWIDTH 500 0
DWIDTH 10 0
BBX 8 14 2 0
BITMAP
FF
C0
C0
C0
C0
C0
C0
C0
C0
C0
C0
C0
C0
C0
ENDCHAR
STARTCHAR 0414
ENCODING 1044
SWIDTH 750 0
DWIDTH 15 0
BBX 14 17 1 -3
BITMAP
0FF0
0C30
0C30
0C30
0C30
0C30
0C30
1830
1830
1830
3830
3030
3030
FFFC
C00C
C00C
C00C
ENDCHAR
STARTCHAR 0415
ENCODING 1045
SWIDTH 550 0
DWIDTH 11 0
BBX 9 14 2 0
BITMAP
FF80
C000
C000
C000
C000
C000
FF00
C000
C000
C000
C000
C000
C000
FF80
ENDCHAR
STARTCHAR 0416
ENCODING 1046
SWIDTH 800 0
DWIDTH 16 0
BBX 16 14 0 1
BITMAP
6186
318C
1188
1998
1998
0DB0
07E0
1998
1188
318C
2184
6186
6186
C183
ENDCHAR
STARTCHAR 0417
ENCODING 1047
SWIDTH 550 0
DWIDTH 11 0
BBX 9 14 1 0
BITMAP
7E00
8300
0180
0180
0180
0700
3C00
0700
0180
0180
0180
0180
8300
7C00
ENDCHAR
STARTCHAR 0418
ENCODING 1048
SWIDTH 750 0
DWIDTH 15 0
BBX 11 14 2 0
BITMAP
8060
80E0
81E0
81A0
8320
8720
8620
8C20
9C20
9820
B020
F020
E020
C020
ENDCHAR
STARTCHAR 0419
ENCODING 1049
SWIDTH 750 0
DWIDTH 15 0
BBX 11 18 2 0
BITMAP
3180
1100
0E00
0000
8060
80E0
81E0
81A0
8320
8720
8620
8C20
9C20
9820
B020
F020
E020
C020
ENDCHAR
STARTCHAR 041A
ENCODING 1050
SWIDTH 600 0
DWIDTH 12 0
BBX 9 14 2 1
BITMAP
C300
C200
C400
CC00
CC00
D800
F000
DC00
CC00
C600
C600
C300
C300
C180
ENDCHAR
STARTCHAR 041B
ENCODING 1051
SWIDTH 700 0
DWIDTH 14 0
BBX 12 14 0 0
BITMAP
1FF0
1830
1830
1830
1830
1830
1830
1830
1830
1830
3030
3030
6030
C030
ENDCHAR
STARTCHAR 041C
ENCODING 1052
SWIDTH 850 0
DWIDTH 17 0
BBX 14 14 2 0
BITMAP
C01C
E01C
E02C
B02C
B02C
B04C
984C
98CC
8C8C
8C8C
8F0C
870C
870C
800C
ENDCHAR
STARTCHAR 041D
ENCODING 1053
SWIDTH 750 0
DWIDTH 15 0
BBX 11 14 2 0
BITMAP
C060
C060
C060
C060
C060
C060
FFE0
C060
C060
C060
C060
C060
C060
C060
ENDCHAR
STARTCHAR 041E
ENCODING 1054
SWIDTH 800 0
DWIDTH 16 0
BBX 14 14 1 0
BITMAP
0FC0
3870
6018
6018
C00C
C00C
C00C
C00C
C00C
C00C
6018
6018
3870
0FC0
ENDCHAR
STARTCHAR 041F
ENCODING 1055
SWIDTH 750 0
DWIDTH 15 0
BBX 11 14 2 0
BITMAP
FFE0
C060
C060
C060
C060
C060
C060
C060
C060
C060
C060
C060
C060
C060
ENDCHAR
STARTCHAR 0420
ENCODING 1056
SWIDTH 550 0
DWIDTH 11 0
BBX 9 14 2 0
BITMAP
FE00
C300
C180
C180
C180
C300
C700
FC00
C000
C000
C000
C000
C000
C000
ENDCHAR
STARTCHAR 0421
ENCODING 1057
SWIDTH 700 0
DWIDTH 14 0
BBX 12 14 1 0
BITMAP
0FC0
3830
6000
6000
C000
C000
C000
C000
C000
C000
6000
6000
3810
0FE0
ENDCHAR
STARTCHAR 0422
ENCODING 1058
SWIDTH 650 0
DWIDTH 13 0
BBX 12 14 0 0
BITMAP
FFF0
0600
0600
0600
0600
0600
0600
0600
0600
0600
0600
0600
0600
0600
ENDCHAR
STARTCHAR 0423
ENCODING 1059
SWIDTH 650 0
DWIDTH 13 0
BBX 12 14 1 0
BITMAP
E010
6020
7060
3040
38C0
1880
1D00
0D00
0E00
0600
0400
0C00
0800
7000
ENDCHAR
STARTCHAR 0424
ENCODING 1060
SWIDTH 700 0
DWIDTH 14 0
BBX 12 14 1 0
BITMAP
0600
0600
1F80
76E0
6660
C630
C630
C630
C630
6660
6660
1F80
0600
0600
ENDCHAR
STARTCHAR 0425
ENCODING 1061
SWIDTH 650 0
DWIDTH 13 0
BBX 12 14 0 0
BITMAP
E010
6020
3040
3880
1C80
0D00
0E00
0700
0B00
1380
11C0
20C0
4060
8070
ENDCHAR
STARTCHAR 0426
ENCODING 1062
SWIDTH 750 0
DWIDTH 15 0
BBX 13 17 2 -3
BITMAP
C060
C060
C060
C060
C060
C060
C060
C060
C060
C060
C060
C060
C060
FFF8
0018
0018
0018
ENDCHAR
STARTCHAR 0427
ENCODING 1063
SWIDTH 650 0
DWIDTH 13 0
BBX 10 14 1 0
BITMAP
C0C0
C0C0
C0C0
C0C0
C0C0
C0C0
C0C0
61C0
3EC0
00C0
00C0
00C0
00C0
00C0
ENDCHAR
STARTCHAR 0428
ENCODING 1064
SWIDTH 950 0
DWIDTH 19 0
BBX 16 14 1 0
BITMAP
C183
C183
C183
C183
C183
C183
C183
C183
C183
C183
C183
C183
C183
FFFF
ENDCHAR
STARTCHAR 0429
ENCODING 1065
SWIDTH 1000 0
DWIDTH 20 0
BBX 18 17 2 -3
BITMAP
C18300
C18300
C18300
C18300
C18300
C18300
C18300
C18300
C18300
C18300
C18300
C18300
C18300
FFFFC0
0000C0
0000C0
0000C0
ENDCHAR
STARTCHAR 042A
ENCODING 1066
SWIDTH 700 0
DWIDTH 14 0
BBX 13 14 0 0
BITMAP
FC00
0C00
0C00
0C00
0C00
0C00
0FE0
0C30
0C18
0C18
0C18
0C18
0C30
0FC0
ENDCHAR
STARTCHAR 042B
ENCODING 1067
SWIDTH 800 0
DWIDTH 16 0
BBX 12 14 2 0
BITMAP
C030
C030
C030
C030
C030
C030
FE30
C330
C1B0
C1B0
C1B0
C1B0
C330
FE30
ENDCHAR
STARTCHAR 042C
ENCODING 1068
SWIDTH 550 0
DWIDTH 11 0
BBX 9 14 2 0
BITMAP
C000
C000
C000
C000
C000
C000
FE00
C300
C180
C180
C180
C180
C300
FC00
ENDCHAR
STARTCHAR 042D
ENCODING 1069
SWIDTH 600 0
DWIDTH 12 0
BBX 10 14 1 0
BITMAP
7C00
8300
0180
0180
00C0
00C0
3FC0
00C0
00C0
00C0
0180
0180
8700
7C00
ENDCHAR
STARTCHAR 042E
ENCODING 1070
SWIDTH 950 0
DWIDTH 19 0
BBX 16 14 2 0
BITMAP
C1F8
C30C
C606
C606
CC03
CC03
FC03
CC03
CC03
CC03
C606
C606
C30C
C0F8
ENDCHAR
STARTCHAR 042F
ENCODING 1071
SWIDTH 600 0
DWIDTH 12 0
BBX 11 14 0 0
BITMAP
0FE0
1860
3060
3060
3060
3060
1860
07E0
0660
0C60
1860
3060
6060
E060
ENDCHAR
STARTCHAR 0430
ENCODING 1072
SWIDTH 550 0
DWIDTH 11 0
BBX 10 11 1 0
BITMAP
3E00
4300
0300
0300
0300
3F00
6300
C300
C300
C700
79C0
ENDCHAR
STARTCHAR 0431
ENCODING 1073
SWIDTH 600 0
DWIDTH 12 0
BBX 10 16 1 0
BITMAP
0080
1F00
3000
6000
4000
CF00
D180
E080
C0C0
C0C0
C0C0
C0C0
C0C0
6180
7180
1E00
ENDCHAR
STARTCHAR 0432
ENCODING 1074
SWIDTH 550 0
DWIDTH 11 0
BBX 7 11 2 0
BITMAP
FC
C6
C6
C6
CC
F8
CC
C6
C6
C6
FC
ENDCHAR
STARTCHAR 0433
ENCODING 1075
SWIDTH 500 0
DWIDTH 10 0
BBX 8 11 2 0
BITMAP
FF
C0
C0
C0
C0
C0
C0
C0
C0
C0
C0
ENDCHAR
STARTCHAR 0434
ENCODING 1076
SWIDTH 650 0
DWIDTH 13 0
BBX 12 13 1 -2
BITMAP
1FC0
18C0
18C0
18C0
18C0
18C0
38C0
30C0
30C0
60C0
FFF0
C030
C030
ENDCHAR
STARTCHAR 0435
ENCODING 1077
SWIDTH 550 0
DWIDTH 11 0
BBX 10 11 1 0
BITMAP
1F00
7180
60C0
C0C0
FFC0
C000
C000
C000
6000
7040
1F80
ENDCHAR
STARTCHAR 0436
ENCODING 1078
SWIDTH 750 0
DWIDTH 15 0
BBX 14 11 1 0
BITMAP
4308
2310
3330
1320
1B60
0FC0
3B60
3330
6318
6318
C30C
ENDCHAR
STARTCHAR 0437
ENCODING 1079
SWIDTH 500 0
DWIDTH 10 0
BBX 8 11 1 0
BITMAP
7C
87
03
03
06
3C
06
03
03
86
7C
ENDCHAR
STARTCHAR 0438
ENCODING 1080
SWIDTH 650 0
DWIDTH 13 0
BBX 9 11 2 0
BITMAP
C180
C380
C780
C780
CD80
C980
D980
F180
F180
E180
C180
ENDCHAR
STARTCHAR 0439
ENCODING 1081
SWIDTH 650 0
DWIDTH 13 0
BBX 9 16 2 0
BITMAP
6300
2200
1C00
0000
0000
C180
C380
C780
C780
CD80
C980
D980
F180
F180
E180
C180
ENDCHAR
STARTCHAR 043A
ENCODING 1082
SWIDTH 550 0
DWIDTH 11 0
BBX 8 11 2 0
BITMAP
C6
C4
CC
C8
D8
F0
D8
CC
C6
C6
C3
ENDCHAR
STARTCHAR 043B
ENCODING 1083
SWIDTH 600 0
DWIDTH 12 0
BBX 9 11 1 0
BITMAP
3F80
3180
3180
3180
3180
3180
3180
6180
6180
E180
C180
ENDCHAR
STARTCHAR 043C
ENCODING 1084
SWIDTH 750 0
DWIDTH 15 0
BBX 11 11 2 0
BITMAP
E060
E0E0
F0E0
F1E0
F160
D960
DB60
CA60
CE60
CC60
C060
ENDCHAR
STARTCHAR 043D
ENCODING 1085
SWIDTH 650 0
DWIDTH 13 0
BBX 9 11 2 0
BITMAP
C180
C180
C180
C180
FF80
C180
C180
C180
C180
C180
C180
ENDCHAR
STARTCHAR 043E
ENCODING 1086
SWIDTH 600 0
DWIDTH 12 0
BBX 11 11 1 0
BITMAP
1F00
71C0
60C0
C060
C060
C060
C060
C060
60C0
71C0
1F00
ENDCHAR
STARTCHAR 043F
ENCODING 1087
SWIDTH 650 0
DWIDTH 13 0
BBX 9 11 2 0
BITMAP
FF80
C180
C180
C180
C180
C180
C180
C180
C180
C180
C180
ENDCHAR
STARTCHAR 0440
ENCODING 1088
SWIDTH 650 0
DWIDTH 13 0
BBX 11 15 2 -4
BITMAP
CF00
D0C0
E040
C060
C060
C060
C060
C060
C0C0
E180
DF00
C000
C000
C000
C000
ENDCHAR
STARTCHAR 0441
ENCODING 1089
SWIDTH 500 0
DWIDTH 10 0
BBX 8 11 1 0
BITMAP
1F
70
60
C0
C0
C0
C0
C0
60
71
1E
ENDCHAR
STARTCHAR 0442
ENCODING 1090
SWIDTH 500 0
DWIDTH 10 0
BBX 10 11 0 0
BITMAP
FFC0
0C00
0C00
0C00
0C00
0C00
0C00
0C00
0C00
0C00
0C00
ENDCHAR
STARTCHAR 0443
ENCODING 1091
SWIDTH 550 0
DWIDTH 11 0
BBX 10 15 0 -4
BITMAP
E040
6080
6080
7080
3100
3100
1900
1A00
0E00
0C00
0C00
0400
0800
0800
7000
ENDCHAR
STARTCHAR 0444
ENCODING 1092
SWIDTH 800 0
DWIDTH 16 0
BBX 14 18 1 -4
BITMAP
0300
0300
0300
3FF0
6318
6318
C30C
C30C
C30C
C30C
C30C
6318
6318
3FF0
0300
0300
0300
0300
ENDCHAR
STARTCHAR 0445
ENCODING 1093
SWIDTH 600 0
DWIDTH 12 0
BBX 11 11 1 0
BITMAP
E020
7040
3080
1900
0E00
0400
0E00
1300
2180
41C0
80E0
ENDCHAR
STARTCHAR 0446
ENCODING 1094
SWIDTH 650 0
DWIDTH 13 0
BBX 11 13 2 -2
BITMAP
C180
C180
C180
C180
C180
C180
C180
C180
C180
C180
FFE0
0060
0060
ENDCHAR
STARTCHAR 0447
ENCODING 1095
SWIDTH 500 0
DWIDTH 10 0
BBX 8 11 1 0
BITMAP
C3
C3
C3
C3
C3
63
3F
03
03
03
03
ENDCHAR
STARTCHAR 0448
ENCODING 1096
SWIDTH 850 0
DWIDTH 17 0
BBX 12 11 2 0
BITMAP
C630
C630
C630
C630
C630
C630
C630
C630
C630
C630
FFF0
ENDCHAR
STARTCHAR 0449
ENCODING 1097
SWIDTH 900 0
DWIDTH 18 0
BBX 14 13 2 -2
BITMAP
C630
C630
C630
C630
C630
C630
C630
C630
C630
C630
FFFC
000C
000C
ENDCHAR
STARTCHAR 044A
ENCODING 1098
SWIDTH 550 0
DWIDTH 11 0
BBX 10 11 0 0
BITMAP
F800
1800
1800
1800
1F00
19C0
18C0
18C0
18C0
1980
1F00
ENDCHAR
STARTCHAR 044B
ENCODING 1099
SWIDTH 700 0
DWIDTH 14 0
BBX 11 11 2 0
BITMAP
C060
C060
C060
C060
F860
CE60
C660
C660
C660
CC60
F860
ENDCHAR
STARTCHAR 044C
ENCODING 1100
SWIDTH 500 0
DWIDTH 10 0
BBX 7 11 2 0
BITMAP
C0
C0
C0
C0
F8
CE
C6
C6
C6
CC
F8
ENDCHAR
STARTCHAR 044D
ENCODING 1101
SWIDTH 500 0
DWIDTH 10 0
BBX 8 11 1 0
BITMAP
7C
86
06
03
03
3F
03
03
06
8E
78
ENDCHAR
STARTCHAR 044E
ENCODING 1102
SWIDTH 800 0
DWIDTH 16 0
BBX 13 11 2 0
BITMAP
C3E0
C630
C410
CC18
CC18
FC18
CC18
CC18
C410
C630
C3E0
ENDCHAR
STARTCHAR 044F
ENCODING 1103
SWIDTH 500 0
DWIDTH 10 0
BBX 8 11 0 0
BITMAP
3F
73
63
63
33
1F
33
33
63
63
C3
ENDCHAR
STARTCHAR 0451
ENCODING 1105
SWIDTH 550 0
DWIDTH 11 0
BBX 10 14 1 0
BITMAP
3300
0000
0000
1F00
7180
60C0
C0C0
FFC0
C000
C000
C000
6000
7040
1F80
ENDCHAR
STARTCHAR 0452
ENCODING 1106
SWIDTH 600 0
DWIDTH 12 0
BBX 11 19 0 -4
BITMAP
3000
3000
3000
FF00
3000
3000
33C0
3460
3860
3060
3060
3060
3060
3060
3060
0060
0060
0060
03C0
ENDCHAR
STARTCHAR 0453
ENCODING 1107
SWIDTH 500 0
DWIDTH 10 0
BBX 8 16 2 0
BITMAP
0C
18
30
00
00
FF
C0
C0
C0
C0
C0
C0
C0
C0
C0
C0
ENDCHAR
STARTCHAR 0454
ENCODING 1108
SWIDTH 500 0
DWIDTH 10 0
BBX 8 11 1 0
BITMAP
1F
60
60
C0
C0
FC
C0
C0
60
61
1E
ENDCHAR
STARTCHAR 0455
ENCODING 1109
SWIDTH 500 0
DWIDTH 10 0
BBX 7 11 2 0
BITMAP
7C
C0
C0
C0
F0
3C
0E
06
06
8C
78
ENDCHAR
STARTCHAR 0456
ENCODING 1110
SWIDTH 300 0
DWIDTH 6 0
BBX 2 14 2 0
BITMAP
C0
00
00
C0
C0
C0
C0
C0
C0
C0
C0
C0
C0
C0
ENDCHAR
STARTCHAR 0457
ENCODING 1111
SWIDTH 300 0
DWIDTH 6 0
BBX 6 14 0 0
BITMAP
CC
00
00
30
30
30
30
30
30
30
30
30
30
30
ENDCHAR
STARTCHAR 0458
ENCODING 1112
SWIDTH 300 0
DWIDTH 6 0
BBX 6 18 -1 -4
BITMAP
0C
00
00
0C
0C
0C
0C
0C
0C
0C
0C
0C
0C
0C
0C
0C
08
F0
ENDCHAR
STARTCHAR 0459
ENCODING 1113
SWIDTH 800 0
DWIDTH 16 0
BBX 15 11 0 0
BITMAP
1FC0
18C0
18C0
18C0
18F8
18CE
10C6
30C6
30C6
60CC
C0F8
ENDCHAR
STARTCHAR 045A
ENCODING 1114
SWIDTH 850 0
DWIDTH 17 0
BBX 14 11 2 0
BITMAP
C180
C180
C180
C180
FFF0
C19C
C18C
C18C
C18C
C198
C1F0
ENDCHAR
STARTCHAR 045B
ENCODING 1115
SWIDTH 600 0
DWIDTH 12 0
BBX 11 15 0 0
BITMAP
3000
3000
3000
FF00
3000
3000
33C0
3460
3860
3060
3060
3060
3060
3060
3060
ENDCHAR
STARTCHAR 045C
ENCODING 1116
SWIDTH 550 0
DWIDTH 11 0
BBX 8 16 2 0
BITMAP
0C
18
30
00
00
C6
C4
CC
C8
D8
F0
D8
CC
C6
C6
C3
ENDCHAR
STARTCHAR 045E
ENCODING 1118
SWIDTH 550 0
DWIDTH 11 0
BBX 10 20 0 -4
BITMAP
6300
2200
1C00
0000
0000
E040
6080
6080
7080
3100
3100
1900
1A00
0E00
0C00
0C00
0400
0800
0800
7000
ENDCHAR
STARTCHAR 045F
ENCODING 1119
SWIDTH 650 0
DWIDTH 13 0
BBX 10 13 2 -2
BITMAP
C0C0
C0C0
C0C0
C0C0
C0C0
C0C0
C0C0
C0C0
C0C0
C0C0
FFC0
0C00
0C00
ENDCHAR
STARTCHAR 0462
ENCODING 1122
SWIDTH 650 0
DWIDTH 13 0
BBX 13 14 0 0
BITMAP
0C00
0C00
FFC0
0C00
0C00
0C00
0FE0
0C30
0C18
0C18
0C18
0C18
0C30
0FC0
ENDCHAR
STARTCHAR 0463
ENCODING 1123
SWIDTH 550 0
DWIDTH 11 0
BBX 10 15 0 0
BITMAP
1800
1800
1800
1800
FF00
1800
1800
1800
1800
1F80
19C0
18C0
18C0
19C0
1F00
ENDCHAR
STARTCHAR 046A
ENCODING 1130
SWIDTH 800 0
DWIDTH 16 0
BBX 16 14 1 0
BITMAP
7FFE
300C
1818
0C30
0660
03C0
07E0
1998
1998
318C
318C
6186
6186
C183
ENDCHAR
STARTCHAR 046B
ENCODING 1131
SWIDTH 700 0
DWIDTH 14 0
BBX 14 11 0 0
BITMAP
7FF8
7038
3870
1CE0
0FC0
0FC0
1B60
3330
6318
6318
C30C
ENDCHAR
STARTCHAR 0490
ENCODING 1168
SWIDTH 500 0
DWIDTH 10 0
BBX 8 17 2 0
BITMAP
03
03
03
FF
C0
C0
C0
C0
C0
C0
C0
C0
C0
C0
C0
C0
C0
ENDCHAR
STARTCHAR 0491
ENCODING 1169
SWIDTH 500 0
DWIDTH 10 0
BBX 8 13 2 0
BITMAP
03
03
FF
C0
C0
C0
C0
C0
C0
C0
C0
C0
C0
ENDCHAR
STARTCHAR 0492
ENCODING 1170
SWIDTH 550 0
DWIDTH 11 0
BBX 10 14 0 0
BITMAP
3FC0
3000
3000
3000
3000
3000
FF00
3000
3000
3000
3000
3000
3000
3000
ENDCHAR
STARTCHAR 0493
ENCODING 1171
SWIDTH 500 0
DWIDTH 10 0
BBX 9 11 1 0
BITMAP
7F80
6000
6000
6000
6000
FE00
6000
6000
6000
6000
6000
ENDCHAR
STARTCHAR 0494
ENCODING 1172
SWIDTH 650 0
DWIDTH 13 0
BBX 10 17 2 -3
BITMAP
FE00
C000
C000
C000
C000
DE00
E180
C180
C0C0
C0C0
C0C0
C0C0
C0C0
C080
0180
0300
0E00
ENDCHAR
STARTCHAR 0495
ENCODING 1173
SWIDTH 550 0
DWIDTH 11 0
BBX 8 14 2 -3
BITMAP
FE
C0
C0
C0
DC
E6
C3
C3
C3
C3
C3
06
06
1C
ENDCHAR
STARTCHAR 0496
ENCODING 1174
SWIDTH 850 0
DWIDTH 17 0
BBX 17 17 1 -2
BITMAP
618600
318C00
118800
199800
199000
0DB000
07E000
19B800
119800
319C00
218C00
618C00
618E00
C18780
000180
000180
000180
ENDCHAR
STARTCHAR 0497
ENCODING 1175
SWIDTH 800 0
DWIDTH 16 0
BBX 15 13 0 -2
BITMAP
4308
2310
3330
1320
1B60
0FC0
3B60
3330
6330
6338
C31E
0006
0006
ENDCHAR
STARTCHAR 0498
ENCODING 1176
SWIDTH 550 0
DWIDTH 11 0
BBX 9 18 1 -4
BITMAP
7E00
8300
0180
0180
0180
0700
3C00
0700
0180
0180
0180
0180
8300
7C00
1000
3800
0800
3800
ENDCHAR
STARTCHAR 0499
ENCODING 1177
SWIDTH 500 0
DWIDTH 10 0
BBX 8 15 1 -4
BITMAP
7C
87
03
03
06
3C
06
03
03
86
7C
20
30
08
30
ENDCHAR
STARTCHAR 049A
ENCODING 1178
SWIDTH 650 0
DWIDTH 13 0
BBX 11 17 2 -2
BITMAP
C180
C300
C200
C600
CC00
D800
F800
CC00
CE00
C600
C700
C300
C380
C1E0
0060
0060
0060
ENDCHAR
STARTCHAR 049B
ENCODING 1179
SWIDTH 550 0
DWIDTH 11 0
BBX 9 13 2 -2
BITMAP
C600
C400
CC00
C800
D800
F000
D800
CC00
CC00
CE00
C780
0180
0180
ENDCHAR
STARTCHAR 049C
ENCODING 1180
SWIDTH 750 0
DWIDTH 15 0
BBX 12 14 2 1
BITMAP
C060
C0C0
C080
D980
D900
DB00
FE00
DB00
D980
D8C0
C0C0
C060
C060
C030
ENDCHAR
STARTCHAR 049D
ENCODING 1181
SWIDTH 650 0
DWIDTH 13 0
BBX 10 11 2 0
BITMAP
C0C0
C080
C100
D900
DA00
FC00
DB00
D900
D980
C080
C0C0
ENDCHAR
STARTCHAR 049E
ENCODING 1182
SWIDTH 600 0
DWIDTH 12 0
BBX 11 14 0 1
BITMAP
30C0
3080
FD80
3300
3300
3600
3C00
3300
3300
3180
3180
30C0
30C0
3060
ENDCHAR
STARTCHAR 049F
ENCODING 1183
SWIDTH 550 0
DWIDTH 11 0
BBX 10 15 0 0
BITMAP
3000
3000
FE00
3000
30C0
3180
3100
3300
3200
3C00
3600
3300
3180
3180
30C0
ENDCHAR
STARTCHAR 04A0
ENCODING 1184
SWIDTH 700 0
DWIDTH 14 0
BBX 13 14 0 1
BITMAP
FC30
0C20
0C60
0CC0
0CC0
0D80
0F00
0CC0
0CC0
0C60
0C60
0C30
0C30
0C18
ENDCHAR
STARTCHAR 04A1
ENCODING 1185
SWIDTH 600 0
DWIDTH 12 0
BBX 11 11 0 0
BITMAP
F860
18C0
1880
1980
1900
1E00
1B00
1980
18C0
18C0
1860
ENDCHAR
STARTCHAR 04A2
ENCODING 1186
SWIDTH 750 0
DWIDTH 15 0
BBX 13 17 2 -3
BITMAP
C060
C060
C060
C060
C060
C060
FFE0
C060
C060
C060
C060
C060
C060
C078
0018
0018
0018
ENDCHAR
STARTCHAR 04A3
ENCODING 1187
SWIDTH 650 0
DWIDTH 13 0
BBX 11 13 2 -2
BITMAP
C180
C180
C180
C180
FF80
C180
C180
C180
C180
C180
C1E0
0060
0060
ENDCHAR
STARTCHAR 04A4
ENCODING 1188
SWIDTH 850 0
DWIDTH 17 0
BBX 15 14 2 0
BITMAP
C07E
C060
C060
C060
C060
C060
FFE0
C060
C060
C060
C060
C060
C060
C060
ENDCHAR
STARTCHAR 04A5
ENCODING 1189
SWIDTH 700 0
DWIDTH 14 0
BBX 12 11 2 0
BITMAP
C1F0
C180
C180
C180
FF80
C180
C180
C180
C180
C180
C180
ENDCHAR
STARTCHAR 04A6
ENCODING 1190
SWIDTH 1000 0
DWIDTH 20 0
BBX 18 17 2 -3
BITMAP
FFC000
C0C000
C0C000
C0C000
C0C000
C0DE00
C0E180
C0C180
C0C0C0
C0C0C0
C0C0C0
C0C0C0
C0C0C0
C0C080
000180
000300
000E00
ENDCHAR
STARTCHAR 04A7
ENCODING 1191
SWIDTH 900 0
DWIDTH 18 0
BBX 15 14 2 -3
BITMAP
FF80
C180
C180
C180
C1B8
C1CC
C186
C186
C186
C186
C186
000C
000C
0038
ENDCHAR
STARTCHAR 04A8
ENCODING 1192
SWIDTH 750 0
DWIDTH 15 0
BBX 14 17 1 -3
BITMAP
0F80
30C0
6060
60F0
C1B0
C318
C318
C318
C318
C318
6190
61B0
38E0
0FE0
0060
0038
000C
ENDCHAR
STARTCHAR 04A9
ENCODING 1193
SWIDTH 600 0
DWIDTH 12 0
BBX 11 14 1 -3
BITMAP
1E00
6300
6780
C4C0
CCC0
CCC0
CCC0
CCC0
4D80
6700
1F00
0180
00C0
0060
ENDCHAR
STARTCHAR 04AA
ENCODING 1194
SWIDTH 700 0
DWIDTH 14 0
BBX 12 18 1 -4
BITMAP
0FC0
3830
6000
6000
C000
C000
C000
C000
C000
C000
6000
6000
3810
0FE0
0100
0380
0080
0380
ENDCHAR
STARTCHAR 04AB
ENCODING 1195
SWIDTH 500 0
DWIDTH 10 0
BBX 8 15 1 -4
BITMAP
1F
70
60
C0
C0
C0
C0
C0
60
71
1E
00
0C
02
0C
ENDCHAR
STARTCHAR 04AC
ENCODING 1196
SWIDTH 650 0
DWIDTH 13 0
BBX 12 17 0 -3
BITMAP
FFF0
0600
0600
0600
0600
0600
0600
0600
0600
0600
0600
0600
0600
0780
0180
0180
0180
ENDCHAR
STARTCHAR 04AD
ENCODING 1197
SWIDTH 500 0
DWIDTH 10 0
BBX 10 13 0 -2
BITMAP
FFC0
0C00
0C00
0C00
0C00
0C00
0C00
0C00
0C00
0C00
0F00
0300
0300
ENDCHAR
STARTCHAR 04AE
ENCODING 1198
SWIDTH 600 0
DWIDTH 12 0
BBX 12 14 0 0
BITMAP
E010
6020
3040
3840
1880
1D80
0D00
0600
0600
0600
0600
0600
0600
0600
ENDCHAR
STARTCHAR 04AF
ENCODING 1199
SWIDTH 500 0
DWIDTH 10 0
BBX 10 11 0 0
BITMAP
E0C0
6080
3100
3900
1A00
1E00
0C00
0C00
0C00
0C00
0C00
ENDCHAR
STARTCHAR 04B0
ENCODING 1200
SWIDTH 600 0
DWIDTH 12 0
BBX 12 14 0 0
BITMAP
E010
6020
3040
3840
1880
1D80
0D00
0600
0600
0600
7FE0
0600
0600
0600
ENDCHAR
STARTCHAR 04B1
ENCODING 1201
SWIDTH 500 0
DWIDTH 10 0
BBX 10 11 0 0
BITMAP
E0C0
6080
3100
3900
1A00
1E00
0C00
7F80
0C00
0C00
0C00
ENDCHAR
STARTCHAR 04B2
ENCODING 1202
SWIDTH 650 0
DWIDTH 13 0
BBX 13 17 0 -3
BITMAP
E030
6020
3040
3880
1980
0D00
0E00
0600
0B00
1B80
1180
20C0
40E0
C078
0018
0018
0018
ENDCHAR
STARTCHAR 04B3
ENCODING 1203
SWIDTH 650 0
DWIDTH 13 0
BBX 11 13 1 -2
BITMAP
E0C0
6080
3100
3B00
1A00
0C00
1E00
1600
2300
4380
C1E0
0060
0060
ENDCHAR
STARTCHAR 04B4
ENCODING 1204
SWIDTH 850 0
DWIDTH 17 0
BBX 17 17 0 -3
BITMAP
FF8600
0C0600
0C0600
0C0600
0C0600
0C0600
0C0600
0C0600
0C0600
0C0600
0C0600
0C0600
0C0600
0FFF80
000180
000180
000180
ENDCHAR
STARTCHAR 04B5
ENCODING 1205
SWIDTH 700 0
DWIDTH 14 0
BBX 13 13 1 -2
BITMAP
FC60
3060
3060
3060
3060
3060
3060
3060
3060
3060
3FF8
0018
0018
ENDCHAR
STARTCHAR 04B6
ENCODING 1206
SWIDTH 650 0
DWIDTH 13 0
BBX 12 17 1 -3
BITMAP
C0C0
C0C0
C0C0
C0C0
C0C0
C0C0
C0C0
61C0
3EC0
00C0
00C0
00C0
00C0
00F0
0030
0030
0030
ENDCHAR
STARTCHAR 04B7
ENCODING 1207
SWIDTH 550 0
DWIDTH 11 0
BBX 10 13 1 -2
BITMAP
C300
C300
C300
C300
C300
E700
7F00
0300
0300
0300
03C0
00C0
00C0
ENDCHAR
STARTCHAR 04B8
ENCODING 1208
SWIDTH 650 0
DWIDTH 13 0
BBX 10 14 1 0
BITMAP
C0C0
C0C0
C0C0
C0C0
CCC0
CCC0
CCC0
6DC0
3EC0
0CC0
0CC0
0CC0
00C0
00C0
ENDCHAR
STARTCHAR 04B9
ENCODING 1209
SWIDTH 500 0
DWIDTH 10 0
BBX 8 11 1 0
BITMAP
C3
C3
C3
DB
DB
DB
7F
1B
1B
1B
03
ENDCHAR
STARTCHAR 04BA
ENCODING 1210
SWIDTH 650 0
DWIDTH 13 0
BBX 10 14 2 0
BITMAP
C000
C000
C000
C000
C000
DF00
E180
C0C0
C0C0
C0C0
C0C0
C0C0
C0C0
C0C0
ENDCHAR
STARTCHAR 04BB
ENCODING 1211
SWIDTH 500 0
DWIDTH 10 0
BBX 8 11 2 0
BITMAP
C0
C0
C0
C0
DE
E7
C3
C3
C3
C3
C3
ENDCHAR
STARTCHAR 04BC
ENCODING 1212
SWIDTH 850 0
DWIDTH 17 0
BBX 15 14 0 0
BITMAP
00F0
030C
060C
C606
CC06
CC06
7FFE
0C00
0C00
0C00
0600
0700
0382
00FC
ENDCHAR
STARTCHAR 04BD
ENCODING 1213
SWIDTH 700 0
DWIDTH 14 0
BBX 13 11 0 0
BITMAP
01E0
C630
C418
CC18
7FF8
0C00
0C00
0600
0600
0308
01F0
ENDCHAR
STARTCHAR 04BE
ENCODING 1214
SWIDTH 850 0
DWIDTH 17 0
BBX 15 18 0 -4
BITMAP
00F0
030C
060C
C606
CC06
CC06
7FFE
0C00
0C00
0C00
0600
0700
0382
00FC
0020
0020
0020
0038
ENDCHAR
STARTCHAR 04BF
ENCODING 1215
SWIDTH 700 0
DWIDTH 14 0
BBX 13 15 0 -4
BITMAP
01E0
C630
C418
CC18
7FF8
0C00
0C00
0600
0600
0308
01F0
0080
0080
0080
00E0
ENDCHAR
STARTCHAR 04C0
ENCODING 1216
SWIDTH 300 0
DWIDTH 6 0
BBX 2 14 2 0
BITMAP
C0
C0
C0
C0
C0
C0
C0
C0
C0
C0
C0
C0
C0
C0
ENDCHAR
STARTCHAR 04C1
ENCODING 1217
SWIDTH 800 0
DWIDTH 16 0
BBX 16 18 0 0
BITMAP
0C60
0440
0380
0000
6186
318C
1188
1998
1998
0DB0
07E0
1998
1188
318C
2184
6186
6186
C183
ENDCHAR
STARTCHAR 04C2
ENCODING 1218
SWIDTH 750 0
DWIDTH 15 0
BBX 14 16 1 0
BITMAP
0C60
0440
0380
0000
0000
4308
2310
3330
1320
1B60
0FC0
3B60
3330
6318
6318
C30C
ENDCHAR
STARTCHAR 04C3
ENCODING 1219
SWIDTH 600 0
DWIDTH 12 0
BBX 9 17 2 -2
BITMAP
C180
C300
C200
C600
CC00
D800
FC00
C600
C300
C180
C180
C180
C180
C180
0100
0300
0E00
ENDCHAR
STARTCHAR 04C4
ENCODING 1220
SWIDTH 550 0
DWIDTH 11 0
BBX 8 14 2 -3
BITMAP
C3
C6
C4
CC
C8
F8
CE
C3
C3
C3
C3
03
06
1C
ENDCHAR
STARTCHAR 04C7
ENCODING 1223
SWIDTH 750 0
DWIDTH 15 0
BBX 11 18 2 -4
BITMAP
C060
C060
C060
C060
C060
C060
FFE0
C060
C060
C060
C060
C060
C060
C060
0060
0060
0060
03C0
ENDCHAR
STARTCHAR 04C8
ENCODING 1224
SWIDTH 600 0
DWIDTH 12 0
BBX 9 15 2 -4
BITMAP
C180
C180
C180
C180
FF80
C180
C180
C180
C180
C180
C180
0180
0180
0180
0F00
ENDCHAR
STARTCHAR 04CB
ENCODING 1227
SWIDTH 650 0
DWIDTH 13 0
BBX 10 17 1 -3
BITMAP
C0C0
C0C0
C0C0
C0C0
C0C0
C0C0
C0C0
61C0
3EC0
00C0
00C0
00C0
00C0
03C0
0300
0300
0300
ENDCHAR
STARTCHAR 04CC
ENCODING 1228
SWIDTH 500 0
DWIDTH 10 0
BBX 8 13 1 -2
BITMAP
C3
C3
C3
C3
C3
E7
7F
03
03
03
0F
0C
0C
ENDCHAR
STARTCHAR 05B0
ENCODING 1456
SWIDTH 0 0
DWIDTH 0 0
BBX 2 5 6 -6
BITMAP
80
C0
00
80
C0
ENDCHAR
STARTCHAR 05B1
ENCODING 1457
SWIDTH 0 0
DWIDTH 0 0
BBX 9 5 3 -6
BITMAP
9100
D980
0000
2100
3180
ENDCHAR
STARTCHAR 05B2
ENCODING 1458
SWIDTH 0 0
DWIDTH 0 0
BBX 8 5 3 -6
BITMAP
FA
03
00
02
03
ENDCHAR
STARTCHAR 05B3
ENCODING 1459
SWIDTH 0 0
DWIDTH 0 0
BBX 8 5 3 -6
BITMAP
FA
33
30
32
33
ENDCHAR
STARTCHAR 05B4
ENCODING 1460
SWIDTH 0 0
DWIDTH 0 0
BBX 2 2 6 -3
BITMAP
80
C0
ENDCHAR
STARTCHAR 05B5
ENCODING 1461
SWIDTH 0 0
DWIDTH 0 0
BBX 5 2 4 -3
BITMAP
90
D8
ENDCHAR
STARTCHAR 05B6
ENCODING 1462
SWIDTH 0 0
DWIDTH 0 0
BBX 5 5 4 -6
BITMAP
90
D8
00
40
60
ENDCHAR
STARTCHAR 05B7
ENCODING 1463
SWIDTH 0 0
DWIDTH 0 0
BBX 5 1 5 -2
BITMAP
F8
ENDCHAR
STARTCHAR 05B8
ENCODING 1464
SWIDTH 0 0
DWIDTH 0 0
BBX 5 5 5 -6
BITMAP
F8
30
30
30
30
ENDCHAR
STARTCHAR 05B9
ENCODING 1465
SWIDTH 0 0
DWIDTH 0 0
BBX 2 2 -1 13
BITMAP
80
C0
ENDCHAR
STARTCHAR 05BB
ENCODING 1467
SWIDTH 0 0
DWIDTH 0 0
BBX 8 4 3 -5
BITMAP
80
D0
1A
03
ENDCHAR
STARTCHAR 05BC
ENCODING 1468
SWIDTH 0 0
DWIDTH 0 0
BBX 2 1 5 6
BITMAP
C0
ENDCHAR
STARTCHAR 05BD
ENCODING 1469
SWIDTH 0 0
DWIDTH 0 0
BBX 2 3 7 -4
BITMAP
C0
C0
C0
ENDCHAR
STARTCHAR 05BE
ENCODING 1470
SWIDTH 400 0
DWIDTH 8 0
BBX 6 1 1 11
BITMAP
FC
ENDCHAR
STARTCHAR 05BF
ENCODING 1471
SWIDTH 0 0
DWIDTH 0 0
BBX 5 1 5 14
BITMAP
F8
ENDCHAR
STARTCHAR 05C0
ENCODING 1472
SWIDTH 250 0
DWIDTH 5 0
BBX 2 12 2 0
BITMAP
40
C0
C0
C0
C0
C0
C0
C0
C0
C0
C0
80
ENDCHAR
STARTCHAR 05C1
ENCODING 1473
SWIDTH 0 0
DWIDTH 0 0
BBX 2 2 11 13
BITMAP
80
C0
ENDCHAR
STARTCHAR 05C2
ENCODING 1474
SWIDTH 0 0
DWIDTH 0 0
BBX 1 2 1 13
BITMAP
80
80
ENDCHAR
STARTCHAR 05C3
ENCODING 1475
SWIDTH 250 0
DWIDTH 5 0
BBX 2 12 1 0
BITMAP
80
C0
00
00
00
00
00
00
00
00
80
C0
ENDCHAR
STARTCHAR 05D0
ENCODING 1488
SWIDTH 650 0
DWIDTH 13 0
BBX 11 12 1 0
BITMAP
40C0
60C0
30C0
38C0
6D80
6780
4300
C180
C080
C0C0
C060
C000
ENDCHAR
STARTCHAR 05D1
ENCODING 1489
SWIDTH 550 0
DWIDTH 11 0
BBX 10 12 0 0
BITMAP
7E00
0100
0180
0180
0180
0180
0180
0180
0180
0180
0180
FFC0
ENDCHAR
STARTCHAR 05D2
ENCODING 1490
SWIDTH 450 0
DWIDTH 9 0
BBX 7 12 0 0
BITMAP
08
1C
0E
06
02
02
02
02
0E
36
E6
42
ENDCHAR
STARTCHAR 05D3
ENCODING 1491
SWIDTH 500 0
DWIDTH 10 0
BBX 10 12 0 0
BITMAP
FFC0
0300
0300
0300
0300
0300
0300
0300
0300
0300
0300
0300
ENDCHAR
STARTCHAR 05D4
ENCODING 1492
SWIDTH 700 0
DWIDTH 14 0
BBX 11 12 1 0
BITMAP
FFC0
0060
0060
0060
6060
6060
6060
6060
6060
6060
6060
6060
ENDCHAR
STARTCHAR 05D5
ENCODING 1493
SWIDTH 300 0
DWIDTH 6 0
BBX 4 12 0 0
BITMAP
40
F0
70
30
30
30
30
30
30
30
30
30
ENDCHAR
STARTCHAR 05D6
ENCODING 1494
SWIDTH 300 0
DWIDTH 6 0
BBX 6 12 1 1
BITMAP
C0
F0
7C
38
60
60
60
60
60
60
60
60
ENDCHAR
STARTCHAR 05D7
ENCODING 1495
SWIDTH 700 0
DWIDTH 14 0
BBX 11 12 1 0
BITMAP
FFC0
6060
6060
6060
6060
6060
6060
6060
6060
6060
6060
6060
ENDCHAR
STARTCHAR 05D8
ENCODING 1496
SWIDTH 650 0
DWIDTH 13 0
BBX 10 13 2 0
BITMAP
C000
C700
C180
C0C0
C0C0
C0C0
C0C0
61C0
6180
6300
6700
7C00
7000
ENDCHAR
STARTCHAR 05D9
ENCODING 1497
SWIDTH 300 0
DWIDTH 6 0
BBX 4 7 0 5
BITMAP
40
F0
70
30
30
30
30
ENDCHAR
STARTCHAR 05DA
ENCODING 1498
SWIDTH 550 0
DWIDTH 11 0
BBX 8 15 1 -3
BITMAP
FF
03
03
03
03
03
03
03
03
03
03
03
03
03
03
ENDCHAR
STARTCHAR 05DB
ENCODING 1499
SWIDTH 550 0
DWIDTH 11 0
BBX 10 12 0 0
BITMAP
7F00
0180
01C0
00C0
00C0
00C0
00C0
00C0
0080
0180
0180
FF00
ENDCHAR
STARTCHAR 05DC
ENCODING 1500
SWIDTH 550 0
DWIDTH 11 0
BBX 9 16 0 1
BITMAP
C000
C000
C000
C000
FF00
0380
0180
0180
0180
0180
0300
0300
0600
1C00
3800
6000
ENDCHAR
STARTCHAR 05DD
ENCODING 1501
SWIDTH 700 0
DWIDTH 14 0
BBX 11 12 1 0
BITMAP
FFC0
6060
6060
6060
6060
6060
6060
6060
6060
6060
6060
7FC0
ENDCHAR
STARTCHAR 05DE
ENCODING 1502
SWIDTH 650 0
DWIDTH 13 0
BBX 11 12 1 0
BITMAP
4780
E9C0
70C0
70C0
60C0
60C0
6060
6060
6060
C060
C060
C7C0
ENDCHAR
STARTCHAR 05DF
ENCODING 1503
SWIDTH 300 0
DWIDTH 6 0
BBX 5 15 0 -3
BITMAP
40
F0
78
18
18
18
18
18
18
18
18
18
18
18
18
ENDCHAR
STARTCHAR 05E0
ENCODING 1504
SWIDTH 400 0
DWIDTH 8 0
BBX 6 12 0 0
BITMAP
10
38
1C
0C
0C
0C
0C
0C
0C
0C
0C
F8
ENDCHAR
STARTCHAR 05E1
ENCODING 1505
SWIDTH 650 0
DWIDTH 13 0
BBX 12 12 0 0
BITMAP
FFE0
3070
3030
3030
3030
3030
3860
3860
1840
1880
1900
1E00
ENDCHAR
STARTCHAR 05E2
ENCODING 1506
SWIDTH 600 0
DWIDTH 12 0
BBX 11 13 0 -1
BITMAP
3060
3060
3060
1860
1860
1840
1840
18C0
0C80
0D00
0E00
1C00
E000
ENDCHAR
STARTCHAR 05E3
ENCODING 1507
SWIDTH 500 0
DWIDTH 10 0
BBX 8 15 0 -3
BITMAP
60
5C
C7
C3
C3
C3
73
03
03
03
03
03
03
03
03
ENDCHAR
STARTCHAR 05E4
ENCODING 1508
SWIDTH 550 0
DWIDTH 11 0
BBX 9 12 0 0
BITMAP
3000
2E00
6380
6180
6180
6180
3980
0180
0180
0180
0180
FF80
ENDCHAR
STARTCHAR 05E5
ENCODING 1509
SWIDTH 500 0
DWIDTH 10 0
BBX 9 15 0 -3
BITMAP
4180
E180
6180
6180
3300
3600
3E00
1800
1800
1800
1800
1800
1800
1800
1800
ENDCHAR
STARTCHAR 05E6
ENCODING 1510
SWIDTH 600 0
DWIDTH 12 0
BBX 10 12 0 0
BITMAP
60C0
60C0
30C0
30C0
1980
1980
0F00
0E00
0700
0300
0180
FFC0
ENDCHAR
STARTCHAR 05E7
ENCODING 1511
SWIDTH 650 0
DWIDTH 13 0
BBX 11 15 1 -3
BITMAP
FFC0
00E0
0060
0060
6060
6060
60C0
61C0
6180
6700
6E00
6800
6000
6000
6000
ENDCHAR
STARTCHAR 05E8
ENCODING 1512
SWIDTH 500 0
DWIDTH 10 0
BBX 8 12 1 0
BITMAP
FE
C3
03
03
03
03
03
03
03
03
03
03
ENDCHAR
STARTCHAR 05E9
ENCODING 1513
SWIDTH 700 0
DWIDTH 14 0
BBX 12 12 2 0
BITMAP
4630
C630
C630
C630
C630
CC60
DC60
7840
60C0
6380
7E00
7800
ENDCHAR
STARTCHAR 05EA
ENCODING 1514
SWIDTH 700 0
DWIDTH 14 0
BBX 12 12 0 0
BITMAP
7FE0
1830
3030
3030
3030
3030
3030
3030
3030
3030
1830
F830
ENDCHAR
STARTCHAR 05F0
ENCODING 1520
SWIDTH 600 0
DWIDTH 12 0
BBX 11 12 0 0
BITMAP
6180
F3C0
38E0
1860
1860
1860
1860
1860
1860
1860
1860
1860
ENDCHAR
STARTCHAR 05F1
ENCODING 1521
SWIDTH 600 0
DWIDTH 12 0
BBX 11 12 0 0
BITMAP
4080
F1E0
70E0
3060
3060
3060
3060
0060
0060
0060
0060
0060
ENDCHAR
STARTCHAR 05F2
ENCODING 1522
SWIDTH 600 0
DWIDTH 12 0
BBX 10 7 0 5
BITMAP
4100
F3C0
71C0
30C0
30C0
30C0
30C0
ENDCHAR
STARTCHAR 05F3
ENCODING 1523
SWIDTH 300 0
DWIDTH 6 0
BBX 4 5 1 9
BITMAP
30
60
60
60
C0
ENDCHAR
STARTCHAR 05F4
ENCODING 1524
SWIDTH 500 0
DWIDTH 10 0
BBX 8 5 1 9
BITMAP
33
66
66
66
CC
ENDCHAR
STARTCHAR 1E80
ENCODING 7808
SWIDTH 850 0
DWIDTH 17 0
BBX 17 19 0 0
BITMAP
030000
018000
00C000
000000
000000
C0C080
E0C080
61E100
616100
616100
316200
316200
323200
3A3200
1A3400
1A3400
1A3400
0C1800
0C1800
ENDCHAR
STARTCHAR 1E81
ENCODING 7809
SWIDTH 750 0
DWIDTH 15 0
BBX 15 16 0 0
BITMAP
0600
0300
0180
0000
0000
C182
C182
6384
62C4
62C4
64C4
3468
3468
3468
1830
1830
ENDCHAR
STARTCHAR 1E82
ENCODING 7810
SWIDTH 850 0
DWIDTH 17 0
BBX 17 19 0 0
BITMAP
003000
006000
00C000
000000
000000
C0C080
E0C080
61E100
616100
616100
316200
316200
323200
3A3200
1A3400
1A3400
1A3400
0C1800
0C1800
ENDCHAR
STARTCHAR 1E83
ENCODING 7811
SWIDTH 750 0
DWIDTH 15 0
BBX 15 16 0 0
BITMAP
0060
00C0
0180
0000
0000
C182
C182
6384
62C4
62C4
64C4
3468
3468
3468
1830
1830
ENDCHAR
STARTCHAR 1E84
ENCODING 7812
SWIDTH 850 0
DWIDTH 17 0
BBX 17 17 0 0
BITMAP
033000
000000
000000
C0C080
E0C080
61E100
616100
616100
316200
316200
323200
3A3200
1A3400
1A3400
1A3400
0C1800
0C1800
ENDCHAR
STARTCHAR 1E85
ENCODING 7813
SWIDTH 750 0
DWIDTH 15 0
BBX 15 14 0 0
BITMAP
0660
0000
0000
C182
C182
6384
62C4
62C4
64C4
3468
3468
3468
1830
1830
ENDCHAR
STARTCHAR 1EF2
ENCODING 7922
SWIDTH 600 0
DWIDTH 12 0
BBX 12 19 0 0
BITMAP
0C00
0600
0300
0000
0000
C010
6020
3040
3040
1880
1880
0D00
0600
0600
0600
0600
0600
0600
0600
ENDCHAR
STARTCHAR 1EF3
ENCODING 7923
SWIDTH 500 0
DWIDTH 10 0
BBX 10 20 0 -4
BITMAP
1800
0C00
0600
0000
0000
C040
6080
6080
6080
3100
3100
3100
1A00
1A00
1C00
0C00
0C00
0800
0800
1800
ENDCHAR
STARTCHAR 2000
ENCODING 8192
SWIDTH 500 0
DWIDTH 10 0
BBX 0 0 0 0
BITMAP
ENDCHAR
STARTCHAR 2001
ENCODING 8193
SWIDTH 1000 0
DWIDTH 20 0
BBX 0 0 0 0
BITMAP
ENDCHAR
STARTCHAR 2002
ENCODING 8194
SWIDTH 500 0
DWIDTH 10 0
BBX 0 0 0 0
BITMAP
ENDCHAR
STARTCHAR 2003
ENCODING 8195
SWIDTH 1000 0
DWIDTH 20 0
BBX 0 0 0 0
BITMAP
ENDCHAR
STARTCHAR 2004
ENCODING 8196
SWIDTH 350 0
DWIDTH 7 0
BBX 0 0 0 0
BITMAP
ENDCHAR
STARTCHAR 2005
ENCODING 8197
SWIDTH 250 0
DWIDTH 5 0
BBX 0 0 0 0
BITMAP
ENDCHAR
STARTCHAR 2006
ENCODING 8198
SWIDTH 150 0
DWIDTH 3 0
BBX 0 0 0 0
BITMAP
ENDCHAR
STARTCHAR 2007
ENCODING 8199
SWIDTH 650 0
DWIDTH 13 0
BBX 0 0 0 0
BITMAP
ENDCHAR
STARTCHAR 2008
ENCODING 8200
SWIDTH 300 0
DWIDTH 6 0
BBX 0 0 0 0
BITMAP
ENDCHAR
STARTCHAR 2009
ENCODING 8201
SWIDTH 150 0
DWIDTH 3 0
BBX 0 0 0 0
BITMAP
ENDCHAR
STARTCHAR 200A
ENCODING 8202
SWIDTH 50 0
DWIDTH 1 0
BBX 0 0 0 0
BITMAP
ENDCHAR
STARTCHAR 200B
ENCODING 8203
SWIDTH 0 0
DWIDTH 0 0
BBX 0 0 0 0
BITMAP
ENDCHAR
STARTCHAR 200C
ENCODING 8204
SWIDTH 0 0
DWIDTH 0 0
BBX 0 0 0 0
BITMAP
ENDCHAR
STARTCHAR 200D
ENCODING 8205
SWIDTH 0 0
DWIDTH 0 0
BBX 0 0 0 0
BITMAP
ENDCHAR
STARTCHAR 200E
ENCODING 8206
SWIDTH 0 0
DWIDTH 0 0
BBX 0 0 0 0
BITMAP
ENDCHAR
STARTCHAR 200F
ENCODING 8207
SWIDTH 0 0
DWIDTH 0 0
BBX 0 0 0 0
BITMAP
ENDCHAR
STARTCHAR 2010
ENCODING 8208
SWIDTH 350 0
DWIDTH 7 0
BBX 4 1 1 6
BITMAP
F0
ENDCHAR
STARTCHAR 2011
ENCODING 8209
SWIDTH 350 0
DWIDTH 7 0
BBX 4 1 1 6
BITMAP
F0
ENDCHAR
STARTCHAR 2012
ENCODING 8210
SWIDTH 650 0
DWIDTH 13 0
BBX 8 1 2 6
BITMAP
FF
ENDCHAR
STARTCHAR 2013
ENCODING 8211
SWIDTH 500 0
DWIDTH 10 0
BBX 8 1 1 5
BITMAP
FF
ENDCHAR
STARTCHAR 2014
ENCODING 8212
SWIDTH 1000 0
DWIDTH 20 0
BBX 18 1 1 5
BITMAP
FFFFC0
ENDCHAR
STARTCHAR 2015
ENCODING 8213
SWIDTH 1000 0
DWIDTH 20 0
BBX 18 1 1 5
BITMAP
FFFFC0
ENDCHAR
STARTCHAR 2016
ENCODING 8214
SWIDTH 600 0
DWIDTH 12 0
BBX 5 18 3 -3
BITMAP
88
88
88
88
88
88
88
88
88
88
88
88
88
88
88
88
88
88
ENDCHAR
STARTCHAR 2017
ENCODING 8215
SWIDTH 500 0
DWIDTH 10 0
BBX 8 4 1 -4
BITMAP
FF
00
00
FF
ENDCHAR
STARTCHAR 2018
ENCODING 8216
SWIDTH 300 0
DWIDTH 6 0
BBX 2 6 2 9
BITMAP
40
80
80
80
C0
C0
ENDCHAR
STARTCHAR 2019
ENCODING 8217
SWIDTH 300 0
DWIDTH 6 0
BBX 2 6 2 9
BITMAP
C0
C0
40
40
40
80
ENDCHAR
STARTCHAR 201A
ENCODING 8218
SWIDTH 300 0
DWIDTH 6 0
BBX 2 5 2 -3
BITMAP
C0
C0
40
40
80
ENDCHAR
STARTCHAR 201B
ENCODING 8219
SWIDTH 300 0
DWIDTH 6 0
BBX 3 5 2 10
BITMAP
C0
C0
80
C0
60
ENDCHAR
STARTCHAR 201C
ENCODING 8220
SWIDTH 350 0
DWIDTH 7 0
BBX 5 5 1 10
BITMAP
48
90
90
90
D8
ENDCHAR
STARTCHAR 201D
ENCODING 8221
SWIDTH 350 0
DWIDTH 7 0
BBX 5 5 1 10
BITMAP
D8
48
48
48
90
ENDCHAR
STARTCHAR 201E
ENCODING 8222
SWIDTH 350 0
DWIDTH 7 0
BBX 5 5 1 -3
BITMAP
D8
D8
48
48
90
ENDCHAR
STARTCHAR 201F
ENCODING 8223
SWIDTH 350 0
DWIDTH 7 0
BBX 5 5 1 10
BITMAP
D8
D8
90
D8
48
ENDCHAR
STARTCHAR 2020
ENCODING 8224
SWIDTH 650 0
DWIDTH 13 0
BBX 8 17 2 -3
BITMAP
18
18
18
18
18
FF
18
18
18
18
18
18
18
18
18
18
18
ENDCHAR
STARTCHAR 2021
ENCODING 8225
SWIDTH 650 0
DWIDTH 13 0
BBX 8 17 2 -3
BITMAP
18
18
18
18
18
FF
18
18
18
18
18
FF
18
18
18
18
18
ENDCHAR
STARTCHAR 2022
ENCODING 8226
SWIDTH 650 0
DWIDTH 13 0
BBX 4 4 5 4
BITMAP
60
F0
F0
60
ENDCHAR
STARTCHAR 2023
ENCODING 8227
SWIDTH 350 0
DWIDTH 7 0
BBX 4 7 2 2
BITMAP
80
C0
E0
F0
E0
C0
80
ENDCHAR
STARTCHAR 2024
ENCODING 8228
SWIDTH 350 0
DWIDTH 7 0
BBX 2 1 2 0
BITMAP
C0
ENDCHAR
STARTCHAR 2025
ENCODING 8229
SWIDTH 650 0
DWIDTH 13 0
BBX 9 2 2 0
BITMAP
C180
C180
ENDCHAR
STARTCHAR 2026
ENCODING 8230
SWIDTH 1000 0
DWIDTH 20 0
BBX 16 1 2 0
BITMAP
C183
ENDCHAR
STARTCHAR 2027
ENCODING 8231
SWIDTH 350 0
DWIDTH 7 0
BBX 2 2 2 5
BITMAP
C0
C0
ENDCHAR
STARTCHAR 2028
ENCODING 8232
SWIDTH 0 0
DWIDTH 0 0
BBX 0 0 0 0
BITMAP
ENDCHAR
STARTCHAR 2029
ENCODING 8233
SWIDTH 0 0
DWIDTH 0 0
BBX 0 0 0 0
BITMAP
ENDCHAR
STARTCHAR 202A
ENCODING 8234
SWIDTH 0 0
DWIDTH 0 0
BBX 0 0 0 0
BITMAP
ENDCHAR
STARTCHAR 202B
ENCODING 8235
SWIDTH 0 0
DWIDTH 0 0
BBX 0 0 0 0
BITMAP
ENDCHAR
STARTCHAR 202C
ENCODING 8236
SWIDTH 0 0
DWIDTH 0 0
BBX 0 0 0 0
BITMAP
ENDCHAR
STARTCHAR 202D
ENCODING 8237
SWIDTH 0 0
DWIDTH 0 0
BBX 0 0 0 0
BITMAP
ENDCHAR
STARTCHAR 202E
ENCODING 8238
SWIDTH 0 0
DWIDTH 0 0
BBX 0 0 0 0
BITMAP
ENDCHAR
STARTCHAR 2030
ENCODING 8240
SWIDTH 1000 0
DWIDTH 20 0
BBX 20 15 0 0
BITMAP
001000
783000
CC2000
CC4000
CC8000
CD8000
CD0000
7A0000
04F1E0
0D9B30
199B30
119B30
219B30
619B30
C0F1E0
ENDCHAR
STARTCHAR 2031
ENCODING 8241
SWIDTH 1350 0
DWIDTH 27 0
BBX 27 14 0 0
BITMAP
78180000
CC300000
84600000
84C00000
85800000
CD800000
7B000000
06F1E3C0
0D9B3660
0D0A1420
190A1420
310A1420
619B3660
C0F1E3C0
ENDCHAR
STARTCHAR 2032
ENCODING 8242
SWIDTH 350 0
DWIDTH 7 0
BBX 4 6 1 9
BITMAP
30
60
60
40
C0
80
ENDCHAR
STARTCHAR 2033
ENCODING 8243
SWIDTH 550 0
DWIDTH 11 0
BBX 9 6 1 9
BITMAP
3180
6300
6300
4200
C600
8400
ENDCHAR
STARTCHAR 2034
ENCODING 8244
SWIDTH 750 0
DWIDTH 15 0
BBX 14 6 1 9
BITMAP
318C
6318
6318
4210
C630
8420
ENDCHAR
STARTCHAR 2035
ENCODING 8245
SWIDTH 350 0
DWIDTH 7 0
BBX 4 6 1 9
BITMAP
C0
60
60
20
30
10
ENDCHAR
STARTCHAR 2036
ENCODING 8246
SWIDTH 550 0
DWIDTH 11 0
BBX 9 6 0 9
BITMAP
C600
6300
6300
2100
3180
1080
ENDCHAR
STARTCHAR 2037
ENCODING 8247
SWIDTH 750 0
DWIDTH 15 0
BBX 14 6 0 9
BITMAP
C630
6318
6318
2108
318C
1084
ENDCHAR
STARTCHAR 2038
ENCODING 8248
SWIDTH 350 0
DWIDTH 7 0
BBX 7 7 0 -4
BITMAP
10
10
38
28
6C
44
82
ENDCHAR
STARTCHAR 2039
ENCODING 8249
SWIDTH 350 0
DWIDTH 7 0
BBX 5 9 1 1
BITMAP
08
10
30
60
C0
60
30
10
08
ENDCHAR
STARTCHAR 203A
ENCODING 8250
SWIDTH 350 0
DWIDTH 7 0
BBX 5 9 1 1
BITMAP
80
40
60
30
18
30
60
40
80
ENDCHAR
STARTCHAR 203B
ENCODING 8251
SWIDTH 700 0
DWIDTH 14 0
BBX 11 11 2 2
BITMAP
0C00
4C40
2080
1100
0A00
C460
CA60
1100
2080
4C40
0C00
ENDCHAR
STARTCHAR 203C
ENCODING 8252
SWIDTH 500 0
DWIDTH 10 0
BBX 6 14 2 0
BITMAP
CC
CC
CC
CC
CC
CC
CC
CC
CC
CC
CC
00
00
CC
ENDCHAR
STARTCHAR 203D
ENCODING 8253
SWIDTH 400 0
DWIDTH 8 0
BBX 8 14 0 0
BITMAP
7C
86
03
33
37
36
3C
38
30
30
30
00
00
30
ENDCHAR
STARTCHAR 203E
ENCODING 8254
SWIDTH 500 0
DWIDTH 10 0
BBX 8 1 1 16
BITMAP
FF
ENDCHAR
STARTCHAR 2040
ENCODING 8256
SWIDTH 600 0
DWIDTH 12 0
BBX 12 3 0 16
BITMAP
1F80
6060
8010
ENDCHAR
STARTCHAR 2041
ENCODING 8257
SWIDTH 450 0
DWIDTH 9 0
BBX 9 15 0 -4
BITMAP
0180
0100
0300
0200
0600
0400
0C00
0800
1800
1000
3800
2800
6C00
4400
C600
ENDCHAR
STARTCHAR 2042
ENCODING 8258
SWIDTH 900 0
DWIDTH 18 0
BBX 14 15 2 0
BITMAP
0100
0100
0D60
0380
0380
0D60
0100
1120
1020
D7AC
3870
3870
D7AC
1020
1020
ENDCHAR
STARTCHAR 2043
ENCODING 8259
SWIDTH 350 0
DWIDTH 7 0
BBX 4 2 1 5
BITMAP
F0
F0
ENDCHAR
STARTCHAR 2044
ENCODING 8260
SWIDTH 0 0
DWIDTH 0 0
BBX 12 15 -6 0
BITMAP
0010
0020
0040
0080
0080
0100
0200
0400
0400
0800
1000
1000
2000
4000
8000
ENDCHAR
STARTCHAR 2070
ENCODING 8304
SWIDTH 400 0
DWIDTH 8 0
BBX 6 9 1 6
BITMAP
78
48
CC
CC
CC
CC
CC
48
38
ENDCHAR
STARTCHAR 2074
ENCODING 8308
SWIDTH 400 0
DWIDTH 8 0
BBX 6 9 1 6
BITMAP
18
38
38
58
58
98
FC
18
18
ENDCHAR
STARTCHAR 2075
ENCODING 8309
SWIDTH 400 0
DWIDTH 8 0
BBX 5 9 2 6
BITMAP
F8
C0
C0
F0
38
18
18
18
F0
ENDCHAR
STARTCHAR 2076
ENCODING 8310
SWIDTH 400 0
DWIDTH 8 0
BBX 6 9 1 6
BITMAP
3C
60
C0
F8
CC
CC
CC
4C
78
ENDCHAR
STARTCHAR 2077
ENCODING 8311
SWIDTH 400 0
DWIDTH 8 0
BBX 6 9 1 6
BITMAP
FC
0C
18
10
30
60
60
C0
C0
ENDCHAR
STARTCHAR 2078
ENCODING 8312
SWIDTH 400 0
DWIDTH 8 0
BBX 6 9 1 6
BITMAP
78
CC
CC
E8
78
DC
CC
CC
78
ENDCHAR
STARTCHAR 2079
ENCODING 8313
SWIDTH 400 0
DWIDTH 8 0
BBX 6 9 1 6
BITMAP
78
C8
CC
CC
CC
7C
0C
18
F0
ENDCHAR
STARTCHAR 207A
ENCODING 8314
SWIDTH 400 0
DWIDTH 8 0
BBX 7 7 1 7
BITMAP
10
10
10
FE
10
10
10
ENDCHAR
STARTCHAR 207B
ENCODING 8315
SWIDTH 400 0
DWIDTH 8 0
BBX 6 1 1 10
BITMAP
FC
ENDCHAR
STARTCHAR 207C
ENCODING 8316
SWIDTH 400 0
DWIDTH 8 0
BBX 6 3 1 9
BITMAP
FC
00
FC
ENDCHAR
STARTCHAR 207D
ENCODING 8317
SWIDTH 250 0
DWIDTH 5 0
BBX 3 11 1 4
BITMAP
20
60
40
C0
C0
C0
C0
C0
40
60
20
ENDCHAR
STARTCHAR 207E
ENCODING 8318
SWIDTH 250 0
DWIDTH 5 0
BBX 3 11 1 4
BITMAP
80
C0
40
60
60
60
60
60
40
C0
80
ENDCHAR
STARTCHAR 207F
ENCODING 8319
SWIDTH 400 0
DWIDTH 8 0
BBX 6 6 1 6
BITMAP
B8
C4
84
84
84
84
ENDCHAR
STARTCHAR 2080
ENCODING 8320
SWIDTH 400 0
DWIDTH 8 0
BBX 6 9 1 0
BITMAP
78
48
CC
CC
CC
CC
CC
48
38
ENDCHAR
STARTCHAR 2081
ENCODING 8321
SWIDTH 400 0
DWIDTH 8 0
BBX 3 9 2 0
BITMAP
E0
60
60
60
60
60
60
60
60
ENDCHAR
STARTCHAR 2082
ENCODING 8322
SWIDTH 400 0
DWIDTH 8 0
BBX 6 9 1 0
BITMAP
78
8C
0C
0C
18
30
60
C0
FC
ENDCHAR
STARTCHAR 2083
ENCODING 8323
SWIDTH 400 0
DWIDTH 8 0
BBX 5 9 2 0
BITMAP
F0
18
18
18
60
18
18
18
F0
ENDCHAR
STARTCHAR 2084
ENCODING 8324
SWIDTH 400 0
DWIDTH 8 0
BBX 6 9 1 0
BITMAP
18
38
38
58
58
98
FC
18
18
ENDCHAR
STARTCHAR 2085
ENCODING 8325
SWIDTH 400 0
DWIDTH 8 0
BBX 5 9 2 0
BITMAP
F8
C0
C0
F0
38
18
18
18
F0
ENDCHAR
STARTCHAR 2086
ENCODING 8326
SWIDTH 400 0
DWIDTH 8 0
BBX 6 9 1 0
BITMAP
3C
60
C0
F8
CC
CC
CC
4C
78
ENDCHAR
STARTCHAR 2087
ENCODING 8327
SWIDTH 400 0
DWIDTH 8 0
BBX 6 9 1 0
BITMAP
FC
0C
18
10
30
60
60
C0
C0
ENDCHAR
STARTCHAR 2088
ENCODING 8328
SWIDTH 400 0
DWIDTH 8 0
BBX 6 9 1 0
BITMAP
78
CC
CC
E8
78
DC
CC
CC
78
ENDCHAR
STARTCHAR 2089
ENCODING 8329
SWIDTH 400 0
DWIDTH 8 0
BBX 6 9 1 0
BITMAP
78
C8
CC
CC
CC
7C
0C
18
F0
ENDCHAR
STARTCHAR 208A
ENCODING 8330
SWIDTH 400 0
DWIDTH 8 0
BBX 7 7 1 1
BITMAP
10
10
10
FE
10
10
10
ENDCHAR
STARTCHAR 208B
ENCODING 8331
SWIDTH 400 0
DWIDTH 8 0
BBX 6 1 1 4
BITMAP
FC
ENDCHAR
STARTCHAR 208C
ENCODING 8332
SWIDTH 400 0
DWIDTH 8 0
BBX 6 3 1 3
BITMAP
FC
00
FC
ENDCHAR
STARTCHAR 208D
ENCODING 8333
SWIDTH 250 0
DWIDTH 5 0
BBX 3 11 1 -2
BITMAP
20
40
40
80
80
80
80
80
40
40
20
ENDCHAR
STARTCHAR 208E
ENCODING 8334
SWIDTH 250 0
DWIDTH 5 0
BBX 3 11 0 -2
BITMAP
80
40
40
20
20
20
20
20
40
40
80
ENDCHAR
STARTCHAR 20A0
ENCODING 8352
SWIDTH 700 0
DWIDTH 14 0
BBX 11 14 1 0
BITMAP
1F00
6000
6000
C000
C000
C3E0
C300
6300
6300
1FE0
0300
0300
0300
03E0
ENDCHAR
STARTCHAR 20A1
ENCODING 8353
SWIDTH 700 0
DWIDTH 14 0
BBX 14 18 0 -2
BITMAP
0024
004C
07F8
1C98
39B0
3120
6240
6240
6480
6480
6900
3900
3200
3E00
3C18
4FF0
4800
9000
ENDCHAR
STARTCHAR 20A2
ENCODING 8354
SWIDTH 700 0
DWIDTH 14 0
BBX 11 14 1 0
BITMAP
0FC0
3020
6000
6000
C000
C360
C380
C300
C300
C300
6300
6300
3B20
0FC0
ENDCHAR
STARTCHAR 20A3
ENCODING 8355
SWIDTH 650 0
DWIDTH 13 0
BBX 10 14 1 0
BITMAP
3FC0
3000
3000
3000
3000
3000
3F80
3000
3000
3000
FC00
3000
3000
3000
ENDCHAR
STARTCHAR 20A4
ENCODING 8356
SWIDTH 650 0
DWIDTH 13 0
BBX 9 14 2 0
BITMAP
0F80
1800
3000
3000
3000
FE00
3000
3000
FE00
3000
3000
3000
6000
FF80
ENDCHAR
STARTCHAR 20A5
ENCODING 8357
SWIDTH 950 0
DWIDTH 19 0
BBX 16 16 2 -2
BITMAP
0008
0010
0030
CF3E
D1E3
E1C3
C183
C183
C183
C183
C383
C783
C583
CD83
0800
1000
ENDCHAR
STARTCHAR 20A6
ENCODING 8358
SWIDTH 800 0
DWIDTH 16 0
BBX 15 14 1 0
BITMAP
3008
3808
3C08
2C08
2608
FFFE
2308
2188
FFFE
20C8
2068
2078
2038
2018
ENDCHAR
STARTCHAR 20A7
ENCODING 8359
SWIDTH 1300 0
DWIDTH 26 0
BBX 23 14 2 0
BITMAP
FE0000
C31800
C19800
C1BF7C
C198C0
C318C0
C718C0
FC18F0
C0183C
C0180E
C01806
C01806
C0188E
C00F78
ENDCHAR
STARTCHAR 20A8
ENCODING 8360
SWIDTH 1000 0
DWIDTH 20 0
BBX 17 14 2 0
BITMAP
FE0000
C30000
C18000
C19F00
C1B000
C33000
C63000
FC3C00
CC0F00
C60380
C30180
C30180
C1A300
C1DE00
ENDCHAR
STARTCHAR 20A9
ENCODING 8361
SWIDTH 1050 0
DWIDTH 21 0
BBX 19 14 1 0
BITMAP
60E040
70E040
FFFFE0
30B080
31B080
FFFFE0
19B100
191900
1D1900
0D1A00
0D1A00
0F1A00
060C00
060C00
ENDCHAR
STARTCHAR 20AA
ENCODING 8362
SWIDTH 1050 0
DWIDTH 21 0
BBX 17 14 2 0
BITMAP
FFC180
C06180
C03180
C03180
C03180
C63180
C63180
C63180
C63180
C60180
C60180
C60180
C60300
C7FE00
ENDCHAR
STARTCHAR 20AC
ENCODING 8364
SWIDTH 650 0
DWIDTH 13 0
BBX 12 14 0 0
BITMAP
07C0
1C30
3800
3000
3000
6000
FF80
6000
FF00
6000
3000
3010
1C20
07C0
ENDCHAR
STARTCHAR 2100
ENCODING 8448
SWIDTH 750 0
DWIDTH 15 0
BBX 15 14 0 0
BITMAP
3E06
660C
4E18
CC30
DC60
ECC0
0180
0300
0678
0CC0
1980
3180
6190
C0E0
ENDCHAR
STARTCHAR 2101
ENCODING 8449
SWIDTH 750 0
DWIDTH 15 0
BBX 15 14 0 0
BITMAP
3E06
660C
4E18
CC30
DC60
ECC0
0180
0300
0670
0CC0
18C0
3060
6060
C1C0
ENDCHAR
STARTCHAR 2102
ENCODING 8450
SWIDTH 750 0
DWIDTH 15 0
BBX 12 14 1 0
BITMAP
07E0
1C10
2800
4800
D000
9000
9000
9000
9000
D000
4800
2800
1C10
0FE0
ENDCHAR
STARTCHAR 2103
ENCODING 8451
SWIDTH 900 0
DWIDTH 18 0
BBX 17 14 1 0
BITMAP
607E00
91C180
930000
630000
060000
060000
060000
060000
060000
060000
030000
030000
01C080
007F00
ENDCHAR
STARTCHAR 2104
ENCODING 8452
SWIDTH 650 0
DWIDTH 13 0
BBX 11 14 1 0
BITMAP
0C00
3F00
6C00
CC00
CC00
CC00
CC00
CC00
CC00
6C00
3F00
0C00
0C00
0FE0
ENDCHAR
STARTCHAR 2105
ENCODING 8453
SWIDTH 750 0
DWIDTH 15 0
BBX 15 14 0 0
BITMAP
1E06
300C
6018
6030
6460
38C0
0180
0300
0670
0CD8
1998
3198
61B0
C0E0
ENDCHAR
STARTCHAR 2106
ENCODING 8454
SWIDTH 750 0
DWIDTH 15 0
BBX 15 14 0 0
BITMAP
1E06
300C
6018
6030
6460
38C0
0180
0300
06D8
0CD8
19F0
31B0
61B0
C1F0
ENDCHAR
STARTCHAR 2107
ENCODING 8455
SWIDTH 650 0
DWIDTH 13 0
BBX 9 14 2 0
BITMAP
1F00
3180
6080
6000
6000
3000
1E00
7000
E000
C000
C080
C080
6180
3F00
ENDCHAR
STARTCHAR 2108
ENCODING 8456
SWIDTH 600 0
DWIDTH 12 0
BBX 10 14 1 0
BITMAP
7C00
8300
0180
0180
00C0
00C0
3FC0
00C0
00C0
00C0
0180
0180
8700
7C00
ENDCHAR
STARTCHAR 2109
ENCODING 8457
SWIDTH 800 0
DWIDTH 16 0
BBX 14 14 1 0
BITMAP
63FC
9300
9300
6300
0300
0300
03F8
0300
0300
0300
0300
0300
0300
0300
ENDCHAR
STARTCHAR 210A
ENCODING 8458
SWIDTH 750 0
DWIDTH 15 0
BBX 15 18 0 -7
BITMAP
07B0
0CB0
1870
1860
3060
3060
3062
30E4
19C8
0ED0
01E0
0EC0
30C0
6180
C180
C300
E600
7C00
ENDCHAR
STARTCHAR 210B
ENCODING 8459
SWIDTH 1100 0
DWIDTH 22 0
BBX 21 15 0 0
BITMAP
000070
07E198
0C6118
18C318
18C630
0EC630
00C6C0
01FF00
018C00
018C00
318C00
610C40
C30C80
C20C80
7C0700
ENDCHAR
STARTCHAR 210C
ENCODING 8460
SWIDTH 650 0
DWIDTH 13 0
BBX 12 18 0 -4
BITMAP
03C0
0C40
1000
3000
3080
31C0
32E0
3C60
1870
1830
1830
1030
3030
FC20
0020
0040
01C0
0200
ENDCHAR
STARTCHAR 210D
ENCODING 8461
SWIDTH 900 0
DWIDTH 18 0
BBX 13 14 2 0
BITMAP
F078
9048
9048
9048
9048
9048
9FC8
9048
9048
9048
9048
9048
9048
F078
ENDCHAR
STARTCHAR 210E
ENCODING 8462
SWIDTH 700 0
DWIDTH 14 0
BBX 12 15 1 0
BITMAP
7800
1800
1800
3000
30E0
3360
3460
3860
6860
70E0
60C0
60C0
60C0
C0D0
C0E0
ENDCHAR
STARTCHAR 210F
ENCODING 8463
SWIDTH 700 0
DWIDTH 14 0
BBX 13 15 1 0
BITMAP
3800
1800
1980
3E00
F0E0
3360
3460
3860
6860
70E0
60C0
60C0
60C0
C0C8
C0F0
ENDCHAR
STARTCHAR 2110
ENCODING 8464
SWIDTH 700 0
DWIDTH 14 0
BBX 14 19 -1 -4
BITMAP
0010
0020
00E0
0360
0460
0CC4
18C4
18C8
18C8
1DF0
0FC0
0180
0180
0180
0300
0300
4200
C400
7800
ENDCHAR
STARTCHAR 2111
ENCODING 8465
SWIDTH 700 0
DWIDTH 14 0
BBX 11 15 1 0
BITMAP
1860
6FC0
4080
E080
F180
7180
31C0
61C0
00C0
00C0
00C0
4080
E080
7100
1E00
ENDCHAR
STARTCHAR 2112
ENCODING 8466
SWIDTH 800 0
DWIDTH 16 0
BBX 15 14 0 0
BITMAP
0038
10CC
108C
1188
09B0
07C0
0180
0380
0300
0300
7F02
8704
85C4
7878
ENDCHAR
STARTCHAR 2113
ENCODING 8467
SWIDTH 600 0
DWIDTH 12 0
BBX 12 17 0 0
BITMAP
00E0
0130
0330
0330
0630
0660
0660
06C0
0F80
0F00
1C00
EC00
1840
1880
1880
1900
0E00
ENDCHAR
STARTCHAR 2114
ENCODING 8468
SWIDTH 1000 0
DWIDTH 20 0
BBX 19 15 0 0
BITMAP
306000
306000
FFF800
306000
306780
3078C0
306060
306060
306060
306060
306060
306060
3060C0
3070C0
306F00
ENDCHAR
STARTCHAR 2115
ENCODING 8469
SWIDTH 800 0
DWIDTH 16 0
BBX 12 14 2 0
BITMAP
C010
A010
9010
8810
C410
A210
9110
8890
8450
8230
8110
8090
8050
8030
ENDCHAR
STARTCHAR 2116
ENCODING 8470
SWIDTH 950 0
DWIDTH 19 0
BBX 17 14 2 0
BITMAP
C18000
E18000
E18E00
F19100
F1B180
D9B180
D9B180
CD9100
CD8E00
C78000
C79F00
C38000
C38000
C18000
ENDCHAR
STARTCHAR 2117
ENCODING 8471
SWIDTH 850 0
DWIDTH 17 0
BBX 15 14 1 0
BITMAP
07C0
1830
2008
4784
C6C6
86C2
86C2
8782
8602
C606
4604
2008
1830
07C0
ENDCHAR
STARTCHAR 2118
ENCODING 8472
SWIDTH 750 0
DWIDTH 15 0
BBX 13 16 0 -4
BITMAP
0400
1870
1198
3218
3418
3818
3818
3830
5830
5820
5B40
9B80
9800
9800
9000
6000
ENDCHAR
STARTCHAR 2119
ENCODING 8473
SWIDTH 700 0
DWIDTH 14 0
BBX 11 14 2 0
BITMAP
FF80
9240
9120
9120
9120
9120
9140
9280
9F00
9000
9000
9000
9000
F000
ENDCHAR
STARTCHAR 211A
ENCODING 8474
SWIDTH 900 0
DWIDTH 18 0
BBX 16 17 1 -3
BITMAP
0FE0
1450
2828
4824
9012
9012
9012
9012
9012
D016
4824
2828
1C70
0FE0
0060
001C
0007
ENDCHAR
STARTCHAR 211B
ENCODING 8475
SWIDTH 950 0
DWIDTH 19 0
BBX 18 14 0 0
BITMAP
03FC00
0E6700
18E300
18C300
0EC300
00C600
00CC00
01F000
019800
319800
610C40
C30CC0
C20C80
7C0700
ENDCHAR
STARTCHAR 211C
ENCODING 8476
SWIDTH 900 0
DWIDTH 18 0
BBX 16 14 1 0
BITMAP
1860
6DA0
4E30
E618
F610
7660
3680
67E0
0430
0430
0C18
0819
100E
3E0C
ENDCHAR
STARTCHAR 211D
ENCODING 8477
SWIDTH 800 0
DWIDTH 16 0
BBX 13 14 2 0
BITMAP
FF80
9240
9120
9120
9120
9160
92C0
9F00
9880
94C0
9240
9320
9110
F0F8
ENDCHAR
STARTCHAR 211E
ENCODING 8478
SWIDTH 650 0
DWIDTH 13 0
BBX 11 14 2 0
BITMAP
FE00
C300
C180
C180
C180
C300
C700
FC00
CEE0
C7C0
C380
C380
C7C0
CEE0
ENDCHAR
STARTCHAR 211F
ENCODING 8479
SWIDTH 650 0
DWIDTH 13 0
BBX 11 20 2 -3
BITMAP
0400
0300
00E0
FE40
C340
C180
C180
C180
C300
C600
FC00
CE00
CE00
CB00
D180
D1C0
E0E0
2000
4000
4000
ENDCHAR
STARTCHAR 2120
ENCODING 8480
SWIDTH 800 0
DWIDTH 16 0
BBX 13 8 1 7
BITMAP
0040
73F8
C3F8
E3F8
73F8
1B58
1B58
F358
ENDCHAR
STARTCHAR 2121
ENCODING 8481
SWIDTH 1500 0
DWIDTH 30 0
BBX 27 11 2 0
BITMAP
FFDFCC00
0C180C00
0C180C00
0C180C00
0C180C00
0C1F8C00
0C180C00
0C180C00
0C180C00
0C180C00
0C1FCFE0
ENDCHAR
STARTCHAR 2122
ENCODING 8482
SWIDTH 800 0
DWIDTH 16 0
BBX 15 7 0 7
BITMAP
FFE6
18EE
18EE
18EE
18D6
18D6
18D6
ENDCHAR
STARTCHAR 2123
ENCODING 8483
SWIDTH 650 0
DWIDTH 13 0
BBX 13 20 0 -2
BITMAP
0200
0180
0060
C048
6050
6090
7090
3120
3120
1A40
1A40
1C40
0C80
0C80
0F80
1700
1700
2000
2000
4000
ENDCHAR
STARTCHAR 2124
ENCODING 8484
SWIDTH 650 0
DWIDTH 13 0
BBX 11 14 1 0
BITMAP
FFE0
0120
0240
06C0
0480
0980
0900
1200
1200
2400
4C00
4800
9000
FFE0
ENDCHAR
STARTCHAR 2125
ENCODING 8485
SWIDTH 500 0
DWIDTH 10 0
BBX 9 19 1 -4
BITMAP
FF80
0700
1E00
3800
7000
FF80
0300
0E00
1C00
3000
7C00
0F00
0300
0180
0180
0180
0180
0300
FC00
ENDCHAR
STARTCHAR 2126
ENCODING 8486
SWIDTH 900 0
DWIDTH 18 0
BBX 14 14 2 0
BITMAP
0FC0
3870
6018
6018
C00C
C00C
C00C
C00C
4008
6018
3030
9024
8844
FCFC
ENDCHAR
STARTCHAR 2127
ENCODING 8487
SWIDTH 900 0
DWIDTH 18 0
BBX 14 14 2 0
BITMAP
FC7C
8844
9024
3010
6018
4008
C00C
C00C
C00C
C00C
6018
6018
3870
0FC0
ENDCHAR
STARTCHAR 2128
ENCODING 8488
SWIDTH 600 0
DWIDTH 12 0
BBX 10 14 0 0
BITMAP
70C0
4F80
8300
0600
0C00
1800
3F00
43C0
00C0
00C0
00C0
4080
F100
3E00
ENDCHAR
STARTCHAR 2129
ENCODING 8489
SWIDTH 400 0
DWIDTH 8 0
BBX 5 11 1 0
BITMAP
F0
18
18
18
18
18
18
18
18
18
18
ENDCHAR
STARTCHAR 212A
ENCODING 8490
SWIDTH 650 0
DWIDTH 13 0
BBX 10 14 2 0
BITMAP
C080
C100
C200
C400
C800
D000
E000
F000
D800
CC00
C600
C300
C180
C0C0
ENDCHAR
STARTCHAR 212B
ENCODING 8491
SWIDTH 700 0
DWIDTH 14 0
BBX 13 17 0 0
BITMAP
0300
0480
0700
0700
0700
0780
0980
0980
10C0
10C0
10C0
2060
3FE0
4070
4030
4030
8018
ENDCHAR
STARTCHAR 212C
ENCODING 8492
SWIDTH 800 0
DWIDTH 16 0
BBX 14 14 0 0
BITMAP
07F0
199C
318C
338C
1B08
0310
03E0
0338
031C
060C
7E0C
8E0C
8F18
71F0
ENDCHAR
STARTCHAR 212D
ENCODING 8493
SWIDTH 700 0
DWIDTH 14 0
BBX 13 14 1 0
BITMAP
0108
07F0
1C00
2C00
4E00
C600
C300
C300
C200
6400
6000
3018
1C30
07C0
ENDCHAR
STARTCHAR 212E
ENCODING 8494
SWIDTH 850 0
DWIDTH 17 0
BBX 15 14 1 0
BITMAP
07C0
1830
2008
4004
4004
C006
FFFE
C000
C000
C000
4004
2008
1830
07C0
ENDCHAR
STARTCHAR 212F
ENCODING 8495
SWIDTH 500 0
DWIDTH 10 0
BBX 8 11 1 0
BITMAP
0E
33
23
63
C6
CC
F8
C0
C2
44
78
ENDCHAR
STARTCHAR 2130
ENCODING 8496
SWIDTH 550 0
DWIDTH 11 0
BBX 10 17 1 0
BITMAP
0800
1800
1000
17C0
18C0
3780
3000
3000
1800
0E00
3000
6000
C000
C040
C080
6100
3E00
ENDCHAR
STARTCHAR 2131
ENCODING 8497
SWIDTH 850 0
DWIDTH 17 0
BBX 18 16 0 0
BITMAP
000040
0000C0
03FF80
0C6000
186000
18C000
0CC000
00C400
03F800
018000
018000
318000
610000
C30000
C20000
7C0000
ENDCHAR
STARTCHAR 2132
ENCODING 8498
SWIDTH 650 0
DWIDTH 13 0
BBX 9 14 2 0
BITMAP
0180
0180
0180
0180
0180
0180
FF80
0180
0180
0180
0180
0180
0180
FF80
ENDCHAR
STARTCHAR 2133
ENCODING 8499
SWIDTH 1050 0
DWIDTH 21 0
BBX 19 14 1 1
BITMAP
38F3C0
59F4C0
9A38C0
1C30C0
1870C0
186180
306180
306180
30C180
30C380
30C300
60C320
618340
618380
ENDCHAR
STARTCHAR 2134
ENCODING 8500
SWIDTH 550 0
DWIDTH 11 0
BBX 9 11 1 0
BITMAP
0E00
3300
6180
6180
C180
C180
C180
C300
C300
6600
3800
ENDCHAR
STARTCHAR 2135
ENCODING 8501
SWIDTH 700 0
DWIDTH 14 0
BBX 11 12 1 1
BITMAP
01E0
61E0
6040
3040
58C0
4E80
4700
4380
41C0
40C0
F060
F040
ENDCHAR
STARTCHAR 2136
ENCODING 8502
SWIDTH 650 0
DWIDTH 13 0
BBX 10 13 2 0
BITMAP
4000
FF00
0100
0080
0080
0080
0080
0080
0080
0080
0080
0080
FFC0
ENDCHAR
STARTCHAR 2137
ENCODING 8503
SWIDTH 450 0
DWIDTH 9 0
BBX 7 13 1 0
BITMAP
40
60
70
18
08
08
08
0C
0C
14
14
24
E2
ENDCHAR
STARTCHAR 2138
ENCODING 8504
SWIDTH 600 0
DWIDTH 12 0
BBX 10 12 1 1
BITMAP
FFC0
0100
0100
0100
0100
0100
0100
0100
0100
0100
0100
0100
ENDCHAR
STARTCHAR 215B
ENCODING 8539
SWIDTH 800 0
DWIDTH 16 0
BBX 14 15 0 0
BITMAP
E008
6010
6020
6040
6040
6080
6178
62CC
62CC
04E8
0878
08DC
10CC
20CC
4078
ENDCHAR
STARTCHAR 215C
ENCODING 8540
SWIDTH 800 0
DWIDTH 16 0
BBX 14 15 1 0
BITMAP
F008
1810
1820
1040
6040
1880
1978
1ACC
F2CC
04E8
0878
08DC
10CC
20CC
4078
ENDCHAR
STARTCHAR 215D
ENCODING 8541
SWIDTH 800 0
DWIDTH 16 0
BBX 14 15 1 0
BITMAP
F808
C010
C020
F040
3840
1880
1978
1ACC
F2CC
04E8
0878
08DC
10CC
20CC
4078
ENDCHAR
STARTCHAR 215E
ENCODING 8542
SWIDTH 800 0
DWIDTH 16 0
BBX 15 15 0 0
BITMAP
FC08
0C10
1820
1040
3040
6080
613C
C266
C266
0474
083C
086E
1066
2066
403C
ENDCHAR
STARTCHAR 2190
ENCODING 8592
SWIDTH 950 0
DWIDTH 19 0
BBX 14 5 2 3
BITMAP
1000
2000
FFFC
2000
1000
ENDCHAR
STARTCHAR 2191
ENCODING 8593
SWIDTH 550 0
DWIDTH 11 0
BBX 5 14 3 0
BITMAP
20
20
70
A8
20
20
20
20
20
20
20
20
20
20
ENDCHAR
STARTCHAR 2192
ENCODING 8594
SWIDTH 950 0
DWIDTH 19 0
BBX 14 5 2 3
BITMAP
0020
0010
FFFC
0010
0020
ENDCHAR
STARTCHAR 2193
ENCODING 8595
SWIDTH 550 0
DWIDTH 11 0
BBX 5 14 3 0
BITMAP
20
20
20
20
20
20
20
20
20
20
A8
70
20
20
ENDCHAR
STARTCHAR 2194
ENCODING 8596
SWIDTH 1200 0
DWIDTH 24 0
BBX 20 5 2 3
BITMAP
100080
200040
FFFFF0
200040
100080
ENDCHAR
STARTCHAR 2195
ENCODING 8597
SWIDTH 550 0
DWIDTH 11 0
BBX 5 20 3 -4
BITMAP
20
20
70
A8
20
20
20
20
20
20
20
20
20
20
20
20
A8
70
20
20
ENDCHAR
STARTCHAR 2196
ENCODING 8598
SWIDTH 750 0
DWIDTH 15 0
BBX 11 11 2 1
BITMAP
C000
F800
6000
5000
4800
0400
0200
0100
0080
0040
0020
ENDCHAR
STARTCHAR 2197
ENCODING 8599
SWIDTH 750 0
DWIDTH 15 0
BBX 11 11 2 1
BITMAP
0060
03E0
00C0
0140
0240
0400
0800
1000
2000
4000
8000
ENDCHAR
STARTCHAR 2198
ENCODING 8600
SWIDTH 750 0
DWIDTH 15 0
BBX 11 11 2 2
BITMAP
8000
4000
2000
1000
0800
0400
0240
0140
00C0
03E0
0060
ENDCHAR
STARTCHAR 2199
ENCODING 8601
SWIDTH 750 0
DWIDTH 15 0
BBX 11 11 2 2
BITMAP
0020
0040
0080
0100
0200
0400
4800
5000
6000
F800
C000
ENDCHAR
STARTCHAR 219A
ENCODING 8602
SWIDTH 950 0
DWIDTH 19 0
BBX 14 7 2 2
BITMAP
0040
1040
2080
FFFC
2080
1100
0100
ENDCHAR
STARTCHAR 219B
ENCODING 8603
SWIDTH 950 0
DWIDTH 19 0
BBX 14 7 3 2
BITMAP
0200
0220
0410
FFFC
0410
0820
0800
ENDCHAR
STARTCHAR 219C
ENCODING 8604
SWIDTH 800 0
DWIDTH 16 0
BBX 12 5 2 3
BITMAP
8000
F1C0
C320
A610
9C00
ENDCHAR
STARTCHAR 219D
ENCODING 8605
SWIDTH 800 0
DWIDTH 16 0
BBX 12 5 2 3
BITMAP
0010
38F0
4C30
8650
0390
ENDCHAR
STARTCHAR 219E
ENCODING 8606
SWIDTH 950 0
DWIDTH 19 0
BBX 14 5 2 3
BITMAP
1200
2400
FFFC
2400
1200
ENDCHAR
STARTCHAR 219F
ENCODING 8607
SWIDTH 550 0
DWIDTH 11 0
BBX 5 14 3 0
BITMAP
20
20
70
A8
20
70
A8
20
20
20
20
20
20
20
ENDCHAR
STARTCHAR 21A0
ENCODING 8608
SWIDTH 950 0
DWIDTH 19 0
BBX 14 5 2 3
BITMAP
0120
0090
FFFC
0090
0120
ENDCHAR
STARTCHAR 21A1
ENCODING 8609
SWIDTH 550 0
DWIDTH 11 0
BBX 5 14 3 0
BITMAP
20
20
20
20
20
20
20
A8
70
20
A8
70
20
20
ENDCHAR
STARTCHAR 21A2
ENCODING 8610
SWIDTH 950 0
DWIDTH 19 0
BBX 14 5 2 3
BITMAP
100C
2018
FFF0
2018
100C
ENDCHAR
STARTCHAR 21A3
ENCODING 8611
SWIDTH 950 0
DWIDTH 19 0
BBX 14 5 3 3
BITMAP
C020
6010
3FFC
6010
C020
ENDCHAR
STARTCHAR 21A4
ENCODING 8612
SWIDTH 950 0
DWIDTH 19 0
BBX 14 5 2 3
BITMAP
1004
2004
FFFC
2004
1004
ENDCHAR
STARTCHAR 21A5
ENCODING 8613
SWIDTH 550 0
DWIDTH 11 0
BBX 5 14 3 0
BITMAP
20
20
70
A8
20
20
20
20
20
20
20
20
20
F8
ENDCHAR
STARTCHAR 21A6
ENCODING 8614
SWIDTH 950 0
DWIDTH 19 0
BBX 14 5 3 3
BITMAP
8020
8010
FFFC
8010
8020
ENDCHAR
STARTCHAR 21A7
ENCODING 8615
SWIDTH 550 0
DWIDTH 11 0
BBX 5 14 3 0
BITMAP
F8
20
20
20
20
20
20
20
20
20
A8
70
20
20
ENDCHAR
STARTCHAR 21A8
ENCODING 8616
SWIDTH 550 0
DWIDTH 11 0
BBX 8 14 1 0
BITMAP
10
10
38
54
10
10
10
10
54
38
10
10
00
FF
ENDCHAR
STARTCHAR 21A9
ENCODING 8617
SWIDTH 950 0
DWIDTH 19 0
BBX 14 6 2 3
BITMAP
0008
1004
2004
FFF8
2000
1000
ENDCHAR
STARTCHAR 21AA
ENCODING 8618
SWIDTH 950 0
DWIDTH 19 0
BBX 14 6 3 3
BITMAP
4000
8020
8010
7FFC
0010
0020
ENDCHAR
STARTCHAR 21AB
ENCODING 8619
SWIDTH 950 0
DWIDTH 19 0
BBX 14 6 2 3
BITMAP
0018
1024
2024
FFF8
2020
1020
ENDCHAR
STARTCHAR 21AC
ENCODING 8620
SWIDTH 950 0
DWIDTH 19 0
BBX 14 6 3 3
BITMAP
6000
9020
9010
7FFC
1010
1020
ENDCHAR
STARTCHAR 21AD
ENCODING 8621
SWIDTH 1200 0
DWIDTH 24 0
BBX 20 5 2 3
BITMAP
106080
206040
F891F0
279E40
110880
ENDCHAR
STARTCHAR 21AE
ENCODING 8622
SWIDTH 1200 0
DWIDTH 24 0
BBX 20 7 2 2
BITMAP
002000
102080
202040
FFFFF0
204040
104080
004000
ENDCHAR
STARTCHAR 21AF
ENCODING 8623
SWIDTH 650 0
DWIDTH 13 0
BBX 8 14 2 0
BITMAP
01
02
04
08
10
20
7F
02
04
08
90
60
F0
C0
ENDCHAR
STARTCHAR 21B0
ENCODING 8624
SWIDTH 700 0
DWIDTH 14 0
BBX 9 15 2 0
BITMAP
1000
2000
FF80
2080
1080
0080
0080
0080
0080
0080
0080
0080
0080
0080
0080
ENDCHAR
STARTCHAR 21B1
ENCODING 8625
SWIDTH 700 0
DWIDTH 14 0
BBX 9 15 3 0
BITMAP
0400
0200
FF80
8200
8400
8000
8000
8000
8000
8000
8000
8000
8000
8000
8000
ENDCHAR
STARTCHAR 21B2
ENCODING 8626
SWIDTH 700 0
DWIDTH 14 0
BBX 9 14 2 0
BITMAP
0080
0080
0080
0080
0080
0080
0080
0080
0080
1080
2080
FF80
2000
1000
ENDCHAR
STARTCHAR 21B3
ENCODING 8627
SWIDTH 700 0
DWIDTH 14 0
BBX 9 14 3 0
BITMAP
8000
8000
8000
8000
8000
8000
8000
8000
8000
8400
8200
FF80
0200
0400
ENDCHAR
STARTCHAR 21B4
ENCODING 8628
SWIDTH 700 0
DWIDTH 14 0
BBX 9 14 2 0
BITMAP
FE00
0200
0200
0200
0200
0200
0200
0200
0200
0200
0A80
0700
0200
0200
ENDCHAR
STARTCHAR 21B5
ENCODING 8629
SWIDTH 950 0
DWIDTH 19 0
BBX 14 14 2 0
BITMAP
0004
0004
0004
0004
0004
0004
0004
0004
0004
1004
2004
FFFC
2000
1000
ENDCHAR
STARTCHAR 21B6
ENCODING 8630
SWIDTH 1000 0
DWIDTH 20 0
BBX 15 8 2 4
BITMAP
07E0
0830
1008
2004
C006
7002
6002
4000
ENDCHAR
STARTCHAR 21B7
ENCODING 8631
SWIDTH 1000 0
DWIDTH 20 0
BBX 15 8 2 4
BITMAP
0FC0
1820
2010
4008
C006
801E
800C
0004
ENDCHAR
STARTCHAR 21B8
ENCODING 8632
SWIDTH 950 0
DWIDTH 19 0
BBX 14 14 2 0
BITMAP
FFFC
0000
0000
3000
3E00
1800
1400
1200
0100
0080
0040
0020
0010
0008
ENDCHAR
STARTCHAR 21B9
ENCODING 8633
SWIDTH 950 0
DWIDTH 19 0
BBX 14 12 2 0
BITMAP
8400
8800
BFFC
8800
8400
0000
0000
0084
0044
FFF4
0044
0084
ENDCHAR
STARTCHAR 21BA
ENCODING 8634
SWIDTH 950 0
DWIDTH 19 0
BBX 14 14 2 0
BITMAP
0070
0078
2030
4028
C00C
8004
8004
8004
8004
C00C
4008
2010
1860
0FC0
ENDCHAR
STARTCHAR 21BB
ENCODING 8635
SWIDTH 950 0
DWIDTH 19 0
BBX 14 14 2 0
BITMAP
3800
7800
3810
5008
C00C
8004
8004
8004
8004
C00C
4008
2010
1860
0FC0
ENDCHAR
STARTCHAR 21BC
ENCODING 8636
SWIDTH 950 0
DWIDTH 19 0
BBX 13 3 3 5
BITMAP
1000
6000
FFF8
ENDCHAR
STARTCHAR 21BD
ENCODING 8637
SWIDTH 950 0
DWIDTH 19 0
BBX 13 3 3 3
BITMAP
FFF8
2000
1000
ENDCHAR
STARTCHAR 21BE
ENCODING 8638
SWIDTH 450 0
DWIDTH 9 0
BBX 3 13 3 1
BITMAP
80
80
C0
A0
80
80
80
80
80
80
80
80
80
ENDCHAR
STARTCHAR 21BF
ENCODING 8639
SWIDTH 450 0
DWIDTH 9 0
BBX 3 13 3 1
BITMAP
20
60
60
A0
20
20
20
20
20
20
20
20
20
ENDCHAR
STARTCHAR 21C0
ENCODING 8640
SWIDTH 950 0
DWIDTH 19 0
BBX 13 3 2 5
BITMAP
0040
0020
FFF8
ENDCHAR
STARTCHAR 21C1
ENCODING 8641
SWIDTH 950 0
DWIDTH 19 0
BBX 13 3 2 3
BITMAP
FFF8
0030
0040
ENDCHAR
STARTCHAR 21C2
ENCODING 8642
SWIDTH 450 0
DWIDTH 9 0
BBX 3 13 3 0
BITMAP
80
80
80
80
80
80
80
80
80
A0
C0
C0
80
ENDCHAR
STARTCHAR 21C3
ENCODING 8643
SWIDTH 450 0
DWIDTH 9 0
BBX 3 13 3 0
BITMAP
20
20
20
20
20
20
20
20
20
A0
60
20
20
ENDCHAR
STARTCHAR 21C4
ENCODING 8644
SWIDTH 950 0
DWIDTH 19 0
BBX 14 10 2 1
BITMAP
0020
0010
FFFC
0010
0020
1000
2000
FFFC
2000
1000
ENDCHAR
STARTCHAR 21C5
ENCODING 8645
SWIDTH 750 0
DWIDTH 15 0
BBX 10 14 3 0
BITMAP
2100
2100
7100
A900
2100
2100
2100
2100
2100
2100
2540
2380
2100
2100
ENDCHAR
STARTCHAR 21C6
ENCODING 8646
SWIDTH 950 0
DWIDTH 19 0
BBX 14 10 2 1
BITMAP
1000
2000
FFFC
2000
1000
0020
0010
FFFC
0010
0020
ENDCHAR
STARTCHAR 21C7
ENCODING 8647
SWIDTH 950 0
DWIDTH 19 0
BBX 14 10 2 1
BITMAP
1000
2000
FFFC
2000
1000
1000
2000
FFFC
2000
1000
ENDCHAR
STARTCHAR 21C8
ENCODING 8648
SWIDTH 750 0
DWIDTH 15 0
BBX 10 14 3 0
BITMAP
2100
2100
7380
AD40
2100
2100
2100
2100
2100
2100
2100
2100
2100
2100
ENDCHAR
STARTCHAR 21C9
ENCODING 8649
SWIDTH 950 0
DWIDTH 19 0
BBX 14 10 2 1
BITMAP
0020
0010
FFFC
0010
0020
0020
0010
FFFC
0010
0020
ENDCHAR
STARTCHAR 21CA
ENCODING 8650
SWIDTH 750 0
DWIDTH 15 0
BBX 10 14 3 0
BITMAP
2100
2100
2100
2100
2100
2100
2100
2100
2100
2100
AD40
7380
2100
2100
ENDCHAR
STARTCHAR 21CB
ENCODING 8651
SWIDTH 950 0
DWIDTH 19 0
BBX 14 9 2 2
BITMAP
0800
3000
7FFC
0000
0000
0000
FFF8
0030
0040
ENDCHAR
STARTCHAR 21CC
ENCODING 8652
SWIDTH 950 0
DWIDTH 19 0
BBX 14 10 2 1
BITMAP
0040
0020
FFF8
0000
0000
0000
0000
7FFC
1000
0800
ENDCHAR
STARTCHAR 21CD
ENCODING 8653
SWIDTH 950 0
DWIDTH 19 0
BBX 15 11 2 0
BITMAP
0008
0208
0C10
1FFE
6010
C020
6020
1FFE
0C40
0240
0040
ENDCHAR
STARTCHAR 21CE
ENCODING 8654
SWIDTH 1200 0
DWIDTH 24 0
BBX 20 11 2 0
BITMAP
001000
021400
0C2300
1FFF80
602060
C04030
204040
1FFF80
0C4300
028400
008000
ENDCHAR
STARTCHAR 21CF
ENCODING 8655
SWIDTH 950 0
DWIDTH 19 0
BBX 15 11 2 0
BITMAP
0200
0480
0460
FFF0
080C
0806
100C
FFF0
1060
2080
2000
ENDCHAR
STARTCHAR 21D0
ENCODING 8656
SWIDTH 950 0
DWIDTH 19 0
BBX 15 9 2 1
BITMAP
0200
0C00
1FFE
6000
C000
6000
1FFE
0C00
0200
ENDCHAR
STARTCHAR 21D1
ENCODING 8657
SWIDTH 750 0
DWIDTH 15 0
BBX 9 14 3 0
BITMAP
0800
1C00
1400
2200
6300
6300
A280
2200
2200
2200
2200
2200
2200
2200
ENDCHAR
STARTCHAR 21D2
ENCODING 8658
SWIDTH 950 0
DWIDTH 19 0
BBX 15 9 2 1
BITMAP
0080
0060
FFF0
000C
0006
000C
FFF0
0060
0080
ENDCHAR
STARTCHAR 21D3
ENCODING 8659
SWIDTH 750 0
DWIDTH 15 0
BBX 9 14 3 0
BITMAP
2200
2200
2200
2200
2200
2200
2200
A280
6300
6300
2200
1400
1C00
0800
ENDCHAR
STARTCHAR 21D4
ENCODING 8660
SWIDTH 1200 0
DWIDTH 24 0
BBX 20 9 2 1
BITMAP
020400
0C0300
1FFF80
600060
C00030
600060
1FFF80
0C0300
020400
ENDCHAR
STARTCHAR 21D5
ENCODING 8661
SWIDTH 750 0
DWIDTH 15 0
BBX 9 20 3 -4
BITMAP
0800
1C00
1400
2200
6300
6300
A280
2200
2200
2200
2200
2200
2200
A280
6300
6300
2200
1400
1C00
0800
ENDCHAR
STARTCHAR 21D6
ENCODING 8662
SWIDTH 800 0
DWIDTH 16 0
BBX 12 12 2 0
BITMAP
F000
9F00
8C00
8600
4300
6180
50C0
4860
0430
0200
0100
0080
ENDCHAR
STARTCHAR 21D7
ENCODING 8663
SWIDTH 800 0
DWIDTH 16 0
BBX 12 12 2 0
BITMAP
00F0
0F10
0210
0410
0820
1060
20A0
4120
8200
0400
0800
1000
ENDCHAR
STARTCHAR 21D8
ENCODING 8664
SWIDTH 800 0
DWIDTH 16 0
BBX 12 12 2 0
BITMAP
1000
0800
0400
8200
4120
20A0
1060
0820
0410
0210
0F10
00F0
ENDCHAR
STARTCHAR 21D9
ENCODING 8665
SWIDTH 800 0
DWIDTH 16 0
BBX 12 12 2 0
BITMAP
0080
0180
0300
0610
4C20
5840
7080
6100
C200
8400
8F00
F000
ENDCHAR
STARTCHAR 21DA
ENCODING 8666
SWIDTH 950 0
DWIDTH 19 0
BBX 14 13 2 -1
BITMAP
0200
0600
0A00
13FC
2000
4000
FFFC
4000
2000
13FC
0A00
0600
0200
ENDCHAR
STARTCHAR 21DB
ENCODING 8667
SWIDTH 950 0
DWIDTH 19 0
BBX 14 13 2 -1
BITMAP
0100
0180
0140
FF20
0010
0008
FFFC
0008
0010
FF20
0140
0180
0100
ENDCHAR
STARTCHAR 21DC
ENCODING 8668
SWIDTH 1200 0
DWIDTH 24 0
BBX 20 5 2 3
BITMAP
102100
2062C0
FC9270
269400
130800
ENDCHAR
STARTCHAR 21DD
ENCODING 8669
SWIDTH 1200 0
DWIDTH 24 0
BBX 20 5 2 3
BITMAP
086080
346040
E493F0
031640
010C80
ENDCHAR
STARTCHAR 21DE
ENCODING 8670
SWIDTH 550 0
DWIDTH 11 0
BBX 5 14 3 0
BITMAP
20
20
70
A8
20
20
20
F8
20
20
F8
20
20
20
ENDCHAR
STARTCHAR 21DF
ENCODING 8671
SWIDTH 550 0
DWIDTH 11 0
BBX 5 14 3 0
BITMAP
20
20
20
F8
20
20
F8
20
20
20
A8
70
20
20
ENDCHAR
STARTCHAR 21E0
ENCODING 8672
SWIDTH 950 0
DWIDTH 19 0
BBX 14 5 2 3
BITMAP
1000
2000
FAB4
2000
1000
ENDCHAR
STARTCHAR 21E1
ENCODING 8673
SWIDTH 550 0
DWIDTH 11 0
BBX 5 14 3 0
BITMAP
20
20
70
A8
20
00
20
00
20
00
20
20
00
20
ENDCHAR
STARTCHAR 21E2
ENCODING 8674
SWIDTH 950 0
DWIDTH 19 0
BBX 14 5 2 3
BITMAP
0020
0010
B57C
0010
0020
ENDCHAR
STARTCHAR 21E3
ENCODING 8675
SWIDTH 550 0
DWIDTH 11 0
BBX 5 14 3 0
BITMAP
20
00
20
20
00
20
00
20
00
20
A8
70
20
20
ENDCHAR
STARTCHAR 21E4
ENCODING 8676
SWIDTH 950 0
DWIDTH 19 0
BBX 15 5 2 3
BITMAP
8400
8C00
BFFE
8C00
8400
ENDCHAR
STARTCHAR 21E5
ENCODING 8677
SWIDTH 950 0
DWIDTH 19 0
BBX 14 5 2 3
BITMAP
0084
0044
FFF4
0044
0084
ENDCHAR
STARTCHAR 21E6
ENCODING 8678
SWIDTH 950 0
DWIDTH 19 0
BBX 14 9 2 1
BITMAP
0400
0C00
17FC
6004
C004
6004
17FC
0C00
0400
ENDCHAR
STARTCHAR 21E7
ENCODING 8679
SWIDTH 750 0
DWIDTH 15 0
BBX 9 14 3 0
BITMAP
0800
1C00
1400
2200
4100
E380
2200
2200
2200
2200
2200
2200
2200
3E00
ENDCHAR
STARTCHAR 21E8
ENCODING 8680
SWIDTH 950 0
DWIDTH 19 0
BBX 14 9 2 1
BITMAP
0080
00C0
FFA0
8018
800C
8018
FFA0
00C0
0080
ENDCHAR
STARTCHAR 21E9
ENCODING 8681
SWIDTH 750 0
DWIDTH 15 0
BBX 9 14 3 0
BITMAP
3E00
2200
2200
2200
2200
2200
2200
2200
E380
4100
2200
1400
1C00
0800
ENDCHAR
STARTCHAR 21EA
ENCODING 8682
SWIDTH 750 0
DWIDTH 15 0
BBX 9 19 3 -5
BITMAP
0800
1C00
1400
2200
4100
E380
2200
2200
2200
2200
2200
2200
3E00
0000
0000
3E00
2200
2200
3E00
ENDCHAR
STARTCHAR 2200
ENCODING 8704
SWIDTH 900 0
DWIDTH 18 0
BBX 13 14 2 0
BITMAP
C018
6030
6030
7070
3FE0
3060
18C0
18C0
1DC0
0D80
0D80
0700
0700
0700
ENDCHAR
STARTCHAR 2201
ENCODING 8705
SWIDTH 700 0
DWIDTH 14 0
BBX 10 20 2 -3
BITMAP
1E00
6180
4080
8040
8040
8000
8000
8000
8000
8000
8000
8000
8000
8000
8000
8040
8040
4080
6180
1E00
ENDCHAR
STARTCHAR 2202
ENCODING 8706
SWIDTH 650 0
DWIDTH 13 0
BBX 9 15 2 0
BITMAP
3C00
C300
0100
0080
0080
1E80
3180
6080
6080
C080
C100
C100
C200
E600
7800
ENDCHAR
STARTCHAR 2203
ENCODING 8707
SWIDTH 650 0
DWIDTH 13 0
BBX 9 14 2 0
BITMAP
FF80
0180
0180
0180
0180
0180
FF80
0180
0180
0180
0180
0180
0180
FF80
ENDCHAR
STARTCHAR 2204
ENCODING 8708
SWIDTH 650 0
DWIDTH 13 0
BBX 9 18 2 -2
BITMAP
0100
0200
FF80
0580
0580
0580
0980
0980
FF80
1180
1180
1180
2180
2180
2180
FF80
4000
4000
ENDCHAR
STARTCHAR 2205
ENCODING 8709
SWIDTH 1000 0
DWIDTH 20 0
BBX 15 15 2 0
BITMAP
07C2
1834
2008
4014
4024
8042
8082
8102
8202
8402
4804
5004
2008
5830
87C0
ENDCHAR
STARTCHAR 2206
ENCODING 8710
SWIDTH 900 0
DWIDTH 18 0
BBX 14 14 2 0
BITMAP
0100
0300
0580
0580
08C0
08C0
1060
1060
2030
2030
4038
4018
801C
FFFC
ENDCHAR
STARTCHAR 2207
ENCODING 8711
SWIDTH 900 0
DWIDTH 18 0
BBX 14 15 2 -1
BITMAP
FFFC
C004
6008
6008
3010
3010
1020
1820
1840
0C40
0C80
0680
0700
0300
0200
ENDCHAR
STARTCHAR 2208
ENCODING 8712
SWIDTH 800 0
DWIDTH 16 0
BBX 12 12 2 0
BITMAP
0FF0
3000
4000
8000
8000
FFF0
8000
8000
4000
6000
3000
0FF0
ENDCHAR
STARTCHAR 2209
ENCODING 8713
SWIDTH 800 0
DWIDTH 16 0
BBX 12 16 2 -2
BITMAP
0040
0080
1FF0
2080
4100
8100
8100
FFF0
8200
8200
C200
4400
3400
1FF0
0800
0800
ENDCHAR
STARTCHAR 220A
ENCODING 8714
SWIDTH 650 0
DWIDTH 13 0
BBX 9 11 2 0
BITMAP
0F80
3000
6000
6000
C000
FE00
C000
C000
C000
6100
3E00
ENDCHAR
STARTCHAR 220B
ENCODING 8715
SWIDTH 800 0
DWIDTH 16 0
BBX 12 12 2 0
BITMAP
FF00
00C0
0020
0020
0010
FFF0
0010
0010
0020
0060
00C0
FF00
ENDCHAR
STARTCHAR 220C
ENCODING 8716
SWIDTH 750 0
DWIDTH 15 0
BBX 12 16 2 -2
BITMAP
0200
0400
FF00
04C0
0820
0820
0810
FFF0
1010
1010
1020
2060
20C0
FF00
4000
4000
ENDCHAR
STARTCHAR 220D
ENCODING 8717
SWIDTH 650 0
DWIDTH 13 0
BBX 9 11 2 0
BITMAP
3E00
4300
0180
0180
0180
3F80
0180
0300
0300
0600
F800
ENDCHAR
STARTCHAR 220E
ENCODING 8718
SWIDTH 800 0
DWIDTH 16 0
BBX 12 12 2 0
BITMAP
FFF0
FFF0
FFF0
FFF0
FFF0
FFF0
FFF0
FFF0
FFF0
FFF0
FFF0
FFF0
ENDCHAR
STARTCHAR 220F
ENCODING 8719
SWIDTH 950 0
DWIDTH 19 0
BBX 15 14 2 0
BITMAP
FFFE
3018
3018
3018
3018
3018
3018
3018
3018
3018
3018
3018
3018
FC7E
ENDCHAR
STARTCHAR 2210
ENCODING 8720
SWIDTH 950 0
DWIDTH 19 0
BBX 14 14 2 0
BITMAP
FCFC
3030
3030
3030
3030
3030
3030
3030
3030
3030
3030
3030
3030
FFFC
ENDCHAR
STARTCHAR 2211
ENCODING 8721
SWIDTH 800 0
DWIDTH 16 0
BBX 12 14 2 0
BITMAP
FFF0
6010
3010
1800
0C00
0600
0300
0100
0600
0800
1000
2010
4010
FFF0
ENDCHAR
STARTCHAR 2212
ENCODING 8722
SWIDTH 800 0
DWIDTH 16 0
BBX 12 1 2 5
BITMAP
FFF0
ENDCHAR
STARTCHAR 2213
ENCODING 8723
SWIDTH 800 0
DWIDTH 16 0
BBX 11 12 2 0
BITMAP
FFE0
0000
0000
0400
0400
0400
0400
FFE0
0400
0400
0400
0400
ENDCHAR
STARTCHAR 2214
ENCODING 8724
SWIDTH 800 0
DWIDTH 16 0
BBX 11 13 2 0
BITMAP
0600
0600
0000
0000
0400
0400
0400
0400
FFE0
0400
0400
0400
0400
ENDCHAR
STARTCHAR 2215
ENCODING 8725
SWIDTH 500 0
DWIDTH 10 0
BBX 6 17 2 -3
BITMAP
04
04
08
08
08
10
10
10
20
20
20
20
40
40
40
80
80
ENDCHAR
STARTCHAR 2216
ENCODING 8726
SWIDTH 500 0
DWIDTH 10 0
BBX 6 17 2 -3
BITMAP
80
80
40
40
40
20
20
20
20
10
10
10
08
08
08
04
04
ENDCHAR
STARTCHAR 2217
ENCODING 8727
SWIDTH 800 0
DWIDTH 16 0
BBX 11 12 2 0
BITMAP
0400
0400
8420
E4E0
3580
0E00
0E00
3580
E4E0
8420
0400
0400
ENDCHAR
STARTCHAR 2218
ENCODING 8728
SWIDTH 550 0
DWIDTH 11 0
BBX 7 7 2 2
BITMAP
38
44
82
82
82
44
38
ENDCHAR
STARTCHAR 2219
ENCODING 8729
SWIDTH 550 0
DWIDTH 11 0
BBX 7 7 2 2
BITMAP
38
7C
FE
FE
FE
7C
38
ENDCHAR
STARTCHAR 221A
ENCODING 8730
SWIDTH 800 0
DWIDTH 16 0
BBX 15 20 2 -2
BITMAP
0002
0004
0004
0004
0008
0008
0010
0010
0010
0020
0020
6040
A040
1040
1080
0880
0900
0500
0600
0200
ENDCHAR
STARTCHAR 221B
ENCODING 8731
SWIDTH 800 0
DWIDTH 16 0
BBX 15 20 2 -2
BITMAP
0F02
0184
0184
0184
0608
0188
0190
0190
0F10
0020
0020
6040
A040
1040
1080
0880
0900
0500
0600
0200
ENDCHAR
STARTCHAR 221C
ENCODING 8732
SWIDTH 800 0
DWIDTH 16 0
BBX 15 20 2 -2
BITMAP
0302
0704
0704
0B04
0B08
1308
1F90
0310
0310
0020
0020
6040
A040
1040
1080
0880
0900
0500
0600
0200
ENDCHAR
STARTCHAR 221D
ENCODING 8733
SWIDTH 950 0
DWIDTH 19 0
BBX 14 8 2 2
BITMAP
387C
4C80
8700
8300
8300
8380
44C0
387C
ENDCHAR
STARTCHAR 221E
ENCODING 8734
SWIDTH 950 0
DWIDTH 19 0
BBX 14 8 2 2
BITMAP
3870
4C88
8704
8304
8304
8384
44C8
3870
ENDCHAR
STARTCHAR 221F
ENCODING 8735
SWIDTH 800 0
DWIDTH 16 0
BBX 12 12 2 0
BITMAP
8000
8000
8000
8000
8000
8000
8000
8000
8000
8000
8000
FFF0
ENDCHAR
STARTCHAR 2220
ENCODING 8736
SWIDTH 800 0
DWIDTH 16 0
BBX 12 12 2 0
BITMAP
0010
0020
0060
00C0
0180
0300
0600
0C00
1800
3000
6000
FFF0
ENDCHAR
STARTCHAR 2221
ENCODING 8737
SWIDTH 800 0
DWIDTH 16 0
BBX 12 15 2 -4
BITMAP
0010
0030
0060
00C0
1980
0700
0600
0D00
1900
3080
6080
FFF0
0080
0080
0080
ENDCHAR
STARTCHAR 2222
ENCODING 8738
SWIDTH 800 0
DWIDTH 16 0
BBX 12 12 2 0
BITMAP
0200
0300
0130
01E0
0780
1880
E080
1880
0780
01E0
0130
0200
ENDCHAR
STARTCHAR 2223
ENCODING 8739
SWIDTH 350 0
DWIDTH 7 0
BBX 1 18 3 -3
BITMAP
80
80
80
80
80
80
80
80
80
80
80
80
80
80
80
80
80
80
ENDCHAR
STARTCHAR 2224
ENCODING 8740
SWIDTH 500 0
DWIDTH 10 0
BBX 5 18 3 -3
BITMAP
20
20
20
20
20
20
28
38
30
60
E0
A0
20
20
20
20
20
20
ENDCHAR
STARTCHAR 2225
ENCODING 8741
SWIDTH 600 0
DWIDTH 12 0
BBX 5 18 3 -3
BITMAP
88
88
88
88
88
88
88
88
88
88
88
88
88
88
88
88
88
88
ENDCHAR
STARTCHAR 2226
ENCODING 8742
SWIDTH 700 0
DWIDTH 14 0
BBX 9 18 3 -3
BITMAP
2200
2200
2200
2200
2280
2380
2300
2600
2E00
3A00
3200
2200
6200
A200
2200
2200
2200
2200
ENDCHAR
STARTCHAR 2227
ENCODING 8743
SWIDTH 800 0
DWIDTH 16 0
BBX 11 12 2 0
BITMAP
0400
0400
0A00
0A00
1100
1100
2100
2080
2080
4040
4040
8020
ENDCHAR
STARTCHAR 2228
ENCODING 8744
SWIDTH 800 0
DWIDTH 16 0
BBX 11 12 2 0
BITMAP
8020
4040
4040
2080
2080
1100
1100
1B00
0A00
0E00
0400
0400
ENDCHAR
STARTCHAR 2229
ENCODING 8745
SWIDTH 800 0
DWIDTH 16 0
BBX 12 12 2 0
BITMAP
0F00
30C0
4020
4020
8010
8010
8010
8010
8010
8010
8010
8010
ENDCHAR
STARTCHAR 222A
ENCODING 8746
SWIDTH 800 0
DWIDTH 16 0
BBX 12 12 2 0
BITMAP
8010
8010
8010
8010
8010
8010
8010
8010
4020
4020
30C0
0F00
ENDCHAR
STARTCHAR 222B
ENCODING 8747
SWIDTH 600 0
DWIDTH 12 0
BBX 8 18 2 -3
BITMAP
07
0B
18
18
18
18
18
18
18
18
18
18
18
18
18
18
D0
E0
ENDCHAR
STARTCHAR 222C
ENCODING 8748
SWIDTH 850 0
DWIDTH 17 0
BBX 14 18 2 -3
BITMAP
071C
0B2C
1860
1860
1860
1860
1860
1860
1860
1860
1860
1860
1860
1860
1860
1040
D340
E380
ENDCHAR
STARTCHAR 222D
ENCODING 8749
SWIDTH 1150 0
DWIDTH 23 0
BBX 20 18 2 -3
BITMAP
071C70
0B2CB0
186180
186180
186180
186180
186180
186180
186180
186180
186180
186180
186180
186180
186180
104100
D34D00
E38E00
ENDCHAR
STARTCHAR 222E
ENCODING 8750
SWIDTH 600 0
DWIDTH 12 0
BBX 8 18 2 -3
BITMAP
07
0B
18
18
18
3C
5A
99
99
99
99
5A
3C
18
18
10
D0
E0
ENDCHAR
STARTCHAR 222F
ENCODING 8751
SWIDTH 900 0
DWIDTH 18 0
BBX 14 18 2 -3
BITMAP
071C
0B2C
1860
1860
1FE0
7878
D86C
9864
9864
D86C
7878
1FE0
1860
1860
1860
1040
D340
E380
ENDCHAR
STARTCHAR 2230
ENCODING 8752
SWIDTH 1150 0
DWIDTH 23 0
BBX 20 18 2 -3
BITMAP
071C70
0B2CB0
182080
186180
186180
1FFF80
3861C0
5861A0
986190
986190
5861A0
3861C0
1FFF80
186180
186180
104100
D34D00
E38E00
ENDCHAR
STARTCHAR 2231
ENCODING 8753
SWIDTH 600 0
DWIDTH 12 0
BBX 9 18 2 -3
BITMAP
0700
0B00
0800
1800
1800
3C00
5A00
9900
9B80
9900
1900
1800
1800
1800
1800
1000
D000
E000
ENDCHAR
STARTCHAR 2232
ENCODING 8754
SWIDTH 600 0
DWIDTH 12 0
BBX 9 18 2 -3
BITMAP
0700
0B00
0800
1800
1800
3C00
5A00
9900
9B80
9900
9900
5A00
3C00
1800
1800
1000
D000
E000
ENDCHAR
STARTCHAR 2233
ENCODING 8755
SWIDTH 600 0
DWIDTH 12 0
BBX 9 18 2 -3
BITMAP
0700
0B00
0800
1800
1800
3C00
5A00
9900
9900
9B80
9900
5A00
3C00
1800
1800
1000
D000
E000
ENDCHAR
STARTCHAR 2234
ENCODING 8756
SWIDTH 800 0
DWIDTH 16 0
BBX 12 12 2 0
BITMAP
0600
0600
0000
0000
0000
0000
0000
0000
0000
0000
C030
C030
ENDCHAR
STARTCHAR 2235
ENCODING 8757
SWIDTH 800 0
DWIDTH 16 0
BBX 12 12 2 0
BITMAP
C030
C030
0000
0000
0000
0000
0000
0000
0000
0000
0600
0600
ENDCHAR
STARTCHAR 2236
ENCODING 8758
SWIDTH 400 0
DWIDTH 8 0
BBX 2 12 3 0
BITMAP
C0
C0
00
00
00
C0
C0
00
00
00
C0
C0
ENDCHAR
STARTCHAR 2237
ENCODING 8759
SWIDTH 800 0
DWIDTH 16 0
BBX 12 12 2 0
BITMAP
C030
C030
0000
0000
0000
0000
0000
0000
0000
0000
C030
C030
ENDCHAR
STARTCHAR 2238
ENCODING 8760
SWIDTH 800 0
DWIDTH 16 0
BBX 12 6 2 5
BITMAP
0600
0600
0000
0000
0000
FFF0
ENDCHAR
STARTCHAR 2239
ENCODING 8761
SWIDTH 800 0
DWIDTH 16 0
BBX 12 11 2 0
BITMAP
0030
0030
0000
0000
0000
FF80
0000
0000
0000
0030
0030
ENDCHAR
STARTCHAR 223A
ENCODING 8762
SWIDTH 800 0
DWIDTH 16 0
BBX 12 11 2 0
BITMAP
C030
C030
0000
0000
0000
FFF0
0000
0000
0000
C030
C030
ENDCHAR
STARTCHAR 223B
ENCODING 8763
SWIDTH 800 0
DWIDTH 16 0
BBX 12 11 2 0
BITMAP
0600
0600
0000
0000
7810
8610
81E0
0000
0000
0600
0600
ENDCHAR
STARTCHAR 223C
ENCODING 8764
SWIDTH 800 0
DWIDTH 16 0
BBX 12 3 2 4
BITMAP
7810
8610
81E0
ENDCHAR
STARTCHAR 223D
ENCODING 8765
SWIDTH 800 0
DWIDTH 16 0
BBX 12 3 2 4
BITMAP
81E0
8630
7810
ENDCHAR
STARTCHAR 223E
ENCODING 8766
SWIDTH 800 0
DWIDTH 16 0
BBX 12 6 2 3
BITMAP
70E0
CC30
8410
8210
C330
71E0
ENDCHAR
STARTCHAR 223F
ENCODING 8767
SWIDTH 800 0
DWIDTH 16 0
BBX 12 12 2 0
BITMAP
3000
4800
4400
4400
8400
8400
0210
0210
0220
0220
0120
00C0
ENDCHAR
STARTCHAR 2240
ENCODING 8768
SWIDTH 500 0
DWIDTH 10 0
BBX 3 15 3 -2
BITMAP
C0
60
20
20
20
20
40
40
40
80
80
80
80
C0
60
ENDCHAR
STARTCHAR 2241
ENCODING 8769
SWIDTH 800 0
DWIDTH 16 0
BBX 12 7 2 2
BITMAP
0100
0200
7A10
8710
85E0
0400
0800
ENDCHAR
STARTCHAR 2242
ENCODING 8770
SWIDTH 800 0
DWIDTH 16 0
BBX 12 6 2 2
BITMAP
FFF0
0000
0000
7810
8610
81E0
ENDCHAR
STARTCHAR 2243
ENCODING 8771
SWIDTH 800 0
DWIDTH 16 0
BBX 12 6 2 3
BITMAP
7810
8610
81E0
0000
0000
FFF0
ENDCHAR
STARTCHAR 2244
ENCODING 8772
SWIDTH 800 0
DWIDTH 16 0
BBX 12 9 2 1
BITMAP
0100
7B10
8610
83E0
0600
0400
FFF0
0C00
0800
ENDCHAR
STARTCHAR 2245
ENCODING 8773
SWIDTH 800 0
DWIDTH 16 0
BBX 12 10 2 1
BITMAP
7810
8610
81E0
0000
0000
FFF0
0000
0000
0000
FFF0
ENDCHAR
STARTCHAR 2246
ENCODING 8774
SWIDTH 800 0
DWIDTH 16 0
BBX 12 11 2 0
BITMAP
7810
8610
81E0
0000
0100
FFF0
0200
0600
0400
FFF0
0800
ENDCHAR
STARTCHAR 2247
ENCODING 8775
SWIDTH 800 0
DWIDTH 16 0
BBX 12 13 2 -1
BITMAP
0080
7910
8710
81E0
0200
0200
FFF0
0400
0400
0800
FFF0
0800
1000
ENDCHAR
STARTCHAR 2248
ENCODING 8776
SWIDTH 800 0
DWIDTH 16 0
BBX 12 7 2 2
BITMAP
7810
8610
81E0
0000
7810
8610
81E0
ENDCHAR
STARTCHAR 2249
ENCODING 8777
SWIDTH 800 0
DWIDTH 16 0
BBX 12 9 2 1
BITMAP
0100
7B10
8610
83E0
0600
7C10
8710
8DE0
0800
ENDCHAR
STARTCHAR 224A
ENCODING 8778
SWIDTH 800 0
DWIDTH 16 0
BBX 12 10 2 0
BITMAP
7810
8710
81E0
0000
7810
8610
81E0
0000
0000
FFF0
ENDCHAR
STARTCHAR 224B
ENCODING 8779
SWIDTH 800 0
DWIDTH 16 0
BBX 12 11 2 0
BITMAP
7810
8610
81E0
0000
7810
8610
81E0
0000
7810
8610
81E0
ENDCHAR
STARTCHAR 224C
ENCODING 8780
SWIDTH 800 0
DWIDTH 16 0
BBX 12 13 2 0
BITMAP
71E0
C330
8210
8410
CC30
78E0
0000
0000
FFF0
0000
0000
0000
FFF0
ENDCHAR
STARTCHAR 224D
ENCODING 8781
SWIDTH 800 0
DWIDTH 16 0
BBX 12 9 2 1
BITMAP
8010
6060
1F80
0000
0000
0000
1F80
6060
8010
ENDCHAR
STARTCHAR 224E
ENCODING 8782
SWIDTH 800 0
DWIDTH 16 0
BBX 12 10 2 1
BITMAP
0F00
1980
1080
F0F0
0000
0000
F0F0
1080
1980
0F00
ENDCHAR
STARTCHAR 224F
ENCODING 8783
SWIDTH 800 0
DWIDTH 16 0
BBX 12 7 2 4
BITMAP
0F00
1980
1080
F0F0
0000
0000
FFF0
ENDCHAR
STARTCHAR 2250
ENCODING 8784
SWIDTH 800 0
DWIDTH 16 0
BBX 12 9 2 3
BITMAP
0600
0600
0000
0000
FFF0
0000
0000
0000
FFF0
ENDCHAR
STARTCHAR 2251
ENCODING 8785
SWIDTH 800 0
DWIDTH 16 0
BBX 12 13 2 -1
BITMAP
0600
0600
0000
0000
FFF0
0000
0000
0000
FFF0
0000
0000
0600
0600
ENDCHAR
STARTCHAR 2252
ENCODING 8786
SWIDTH 800 0
DWIDTH 16 0
BBX 12 13 2 -1
BITMAP
C000
C000
0000
0000
FFF0
0000
0000
0000
FFF0
0000
0000
0030
0030
ENDCHAR
STARTCHAR 2253
ENCODING 8787
SWIDTH 800 0
DWIDTH 16 0
BBX 12 13 2 -1
BITMAP
0030
0030
0000
0000
FFF0
0000
0000
0000
FFF0
0000
0000
C000
C000
ENDCHAR
STARTCHAR 2254
ENCODING 8788
SWIDTH 800 0
DWIDTH 16 0
BBX 12 5 2 4
BITMAP
C000
CFF0
0000
C000
CFF0
ENDCHAR
STARTCHAR 2255
ENCODING 8789
SWIDTH 800 0
DWIDTH 16 0
BBX 12 5 2 4
BITMAP
0030
FF30
0000
0030
FF30
ENDCHAR
STARTCHAR 2256
ENCODING 8790
SWIDTH 800 0
DWIDTH 16 0
BBX 12 5 2 4
BITMAP
FFF0
0880
0880
0880
FFF0
ENDCHAR
STARTCHAR 2257
ENCODING 8791
SWIDTH 800 0
DWIDTH 16 0
BBX 12 12 2 0
BITMAP
0E00
1100
1100
1100
0E00
0000
0000
FFF0
0000
0000
0000
FFF0
ENDCHAR
STARTCHAR 2258
ENCODING 8792
SWIDTH 800 0
DWIDTH 16 0
BBX 12 11 2 0
BITMAP
1F80
6060
8010
0000
0000
0000
FFF0
0000
0000
0000
FFF0
ENDCHAR
STARTCHAR 2259
ENCODING 8793
SWIDTH 800 0
DWIDTH 16 0
BBX 12 14 2 0
BITMAP
0400
0400
0A00
0A00
1100
1100
2080
0000
0000
FFF0
0000
0000
0000
FFF0
ENDCHAR
STARTCHAR 225A
ENCODING 8794
SWIDTH 800 0
DWIDTH 16 0
BBX 12 14 2 0
BITMAP
4040
2080
2080
1100
1100
0A00
0A00
0400
0400
FFF0
0000
0000
0000
FFF0
ENDCHAR
STARTCHAR 225B
ENCODING 8795
SWIDTH 800 0
DWIDTH 16 0
BBX 12 14 2 0
BITMAP
0200
0200
0200
1FC0
0700
0500
0880
0000
0000
FFF0
0000
0000
0000
FFF0
ENDCHAR
STARTCHAR 225C
ENCODING 8796
SWIDTH 800 0
DWIDTH 16 0
BBX 12 13 2 1
BITMAP
0600
0600
0900
1080
1080
3FC0
0000
0000
FFF0
0000
0000
0000
FFF0
ENDCHAR
STARTCHAR 225D
ENCODING 8797
SWIDTH 800 0
DWIDTH 16 0
BBX 12 13 2 0
BITMAP
1060
1040
73E0
94C0
97C0
F3C0
0000
0000
FFF0
0000
0000
0000
FFF0
ENDCHAR
STARTCHAR 225E
ENCODING 8798
SWIDTH 800 0
DWIDTH 16 0
BBX 12 12 2 0
BITMAP
3F80
2480
2480
2480
2480
0000
0000
FFF0
0000
0000
0000
FFF0
ENDCHAR
STARTCHAR 225F
ENCODING 8799
SWIDTH 800 0
DWIDTH 16 0
BBX 12 14 2 0
BITMAP
0F00
0100
0100
0600
0400
0000
0400
0000
0000
FFF0
0000
0000
0000
FFF0
ENDCHAR
STARTCHAR 2260
ENCODING 8800
SWIDTH 800 0
DWIDTH 16 0
BBX 12 11 2 0
BITMAP
0100
0100
0200
FFF0
0200
0600
0400
FFF0
0400
0800
0800
ENDCHAR
STARTCHAR 2261
ENCODING 8801
SWIDTH 800 0
DWIDTH 16 0
BBX 12 9 2 2
BITMAP
FFF0
0000
0000
0000
FFF0
0000
0000
0000
FFF0
ENDCHAR
STARTCHAR 2262
ENCODING 8802
SWIDTH 800 0
DWIDTH 16 0
BBX 12 13 2 0
BITMAP
0080
0100
FFF0
0100
0200
0200
FFF0
0400
0400
0800
FFF0
0800
1000
ENDCHAR
STARTCHAR 2263
ENCODING 8803
SWIDTH 800 0
DWIDTH 16 0
BBX 12 13 2 0
BITMAP
FFF0
0000
0000
0000
FFF0
0000
0000
0000
FFF0
0000
0000
0000
FFF0
ENDCHAR
STARTCHAR 2264
ENCODING 8804
SWIDTH 800 0
DWIDTH 16 0
BBX 12 11 2 0
BITMAP
0010
00E0
0700
1C00
E000
1C00
0700
00E0
0010
0000
FFF0
ENDCHAR
STARTCHAR 2265
ENCODING 8805
SWIDTH 800 0
DWIDTH 16 0
BBX 12 11 2 0
BITMAP
8000
7000
0E00
0380
0070
0380
0E00
7000
8000
0000
FFF0
ENDCHAR
STARTCHAR 2266
ENCODING 8806
SWIDTH 800 0
DWIDTH 16 0
BBX 12 15 2 0
BITMAP
0010
00E0
0700
1C00
E000
1C00
0700
00E0
0010
0000
FFF0
0000
0000
0000
FFF0
ENDCHAR
STARTCHAR 2267
ENCODING 8807
SWIDTH 800 0
DWIDTH 16 0
BBX 12 15 2 0
BITMAP
8000
7000
0E00
0380
0070
0380
0E00
7000
8000
0000
FFF0
0000
0000
0000
FFF0
ENDCHAR
STARTCHAR 2268
ENCODING 8808
SWIDTH 800 0
DWIDTH 16 0
BBX 12 17 2 -2
BITMAP
0010
00E0
0700
1C00
E000
1C00
0700
00E0
0210
0400
FFF0
0400
0C00
0800
FFF0
1800
1000
ENDCHAR
STARTCHAR 2269
ENCODING 8809
SWIDTH 800 0
DWIDTH 16 0
BBX 12 17 2 -2
BITMAP
8000
7000
0E00
0380
0070
0380
0E00
7000
8100
0300
FFF0
0200
0600
0400
FFF0
0400
0800
ENDCHAR
STARTCHAR 226A
ENCODING 8810
SWIDTH 1100 0
DWIDTH 22 0
BBX 19 11 2 0
BITMAP
001020
0060C0
018300
0E1C00
306000
C18000
306000
0C1800
038700
0060C0
001020
ENDCHAR
STARTCHAR 226B
ENCODING 8811
SWIDTH 1100 0
DWIDTH 22 0
BBX 19 11 2 0
BITMAP
810000
60C000
183000
070E00
00C180
003060
00C180
030600
1C3800
60C000
810000
ENDCHAR
STARTCHAR 226C
ENCODING 8812
SWIDTH 550 0
DWIDTH 11 0
BBX 7 18 2 -3
BITMAP
44
38
10
28
44
44
82
82
82
82
82
82
44
44
28
10
38
44
ENDCHAR
STARTCHAR 226D
ENCODING 8813
SWIDTH 800 0
DWIDTH 16 0
BBX 12 14 2 -1
BITMAP
0200
0200
0200
C210
2260
1F80
0200
0200
0200
1F80
2260
C210
0200
0200
ENDCHAR
STARTCHAR 226E
ENCODING 8814
SWIDTH 800 0
DWIDTH 16 0
BBX 12 15 2 -1
BITMAP
0080
0180
0100
0110
03E0
0300
0E00
3600
C400
3400
0C00
0B80
0860
1810
1000
ENDCHAR
STARTCHAR 226F
ENCODING 8815
SWIDTH 800 0
DWIDTH 16 0
BBX 12 15 2 -1
BITMAP
0080
0180
0100
8100
6300
1A00
0600
07C0
0430
05C0
0F00
1800
6800
8800
1000
ENDCHAR
STARTCHAR 2270
ENCODING 8816
SWIDTH 800 0
DWIDTH 16 0
BBX 12 15 2 -1
BITMAP
0040
0080
0090
00E0
0700
1900
E200
1A00
8700
74E0
1C10
0B80
08E0
0810
1000
ENDCHAR
STARTCHAR 2271
ENCODING 8817
SWIDTH 800 0
DWIDTH 16 0
BBX 12 16 2 -2
BITMAP
0100
0300
8200
7200
0E00
0780
0470
0780
0C10
78E0
8B80
1C00
7000
9000
3000
2000
ENDCHAR
STARTCHAR 2272
ENCODING 8818
SWIDTH 800 0
DWIDTH 16 0
BBX 12 13 2 0
BITMAP
0010
00E0
0700
1C00
E000
1C00
0700
00E0
0010
0000
7810
8710
81E0
ENDCHAR
STARTCHAR 2273
ENCODING 8819
SWIDTH 800 0
DWIDTH 16 0
BBX 12 13 2 0
BITMAP
8000
7000
0E00
0380
0070
0380
0E00
7000
8000
0000
7810
8610
81E0
ENDCHAR
STARTCHAR 2274
ENCODING 8820
SWIDTH 800 0
DWIDTH 16 0
BBX 12 15 2 -1
BITMAP
0080
0190
01E0
0300
1F00
E200
3A00
0700
04C0
0430
0C00
7810
CF10
99E0
1000
ENDCHAR
STARTCHAR 2275
ENCODING 8821
SWIDTH 800 0
DWIDTH 16 0
BBX 12 15 2 -1
BITMAP
0100
8300
7200
0E00
0780
0470
0580
0E00
7800
8800
1800
7810
9710
B1E0
2000
ENDCHAR
STARTCHAR 2276
ENCODING 8822
SWIDTH 800 0
DWIDTH 16 0
BBX 12 16 2 -2
BITMAP
0010
00E0
0700
1C00
E000
1C00
0700
80E0
7010
0E00
0380
0070
0380
0E00
7000
8000
ENDCHAR
STARTCHAR 2277
ENCODING 8823
SWIDTH 800 0
DWIDTH 16 0
BBX 12 16 2 -2
BITMAP
8000
7000
0E00
0380
0070
0380
0E00
7010
80E0
0700
1C00
E000
1C00
0700
00E0
0010
ENDCHAR
STARTCHAR 2278
ENCODING 8824
SWIDTH 800 0
DWIDTH 16 0
BBX 12 17 2 -2
BITMAP
0200
0210
02E0
0300
1E00
E200
1E00
0300
82E0
7210
0E00
03C0
0270
03C0
0E00
7200
8200
ENDCHAR
STARTCHAR 2279
ENCODING 8825
SWIDTH 800 0
DWIDTH 16 0
BBX 12 17 2 -2
BITMAP
0200
8200
7200
0E00
03C0
0270
03C0
0E00
7210
82E0
0300
1E00
E200
1E00
0300
02E0
0210
ENDCHAR
STARTCHAR 227A
ENCODING 8826
SWIDTH 800 0
DWIDTH 16 0
BBX 12 11 2 0
BITMAP
0010
0020
0040
0180
0600
F800
0F00
0180
0040
0020
0010
ENDCHAR
STARTCHAR 227B
ENCODING 8827
SWIDTH 800 0
DWIDTH 16 0
BBX 12 11 2 0
BITMAP
8000
4000
2000
1800
0600
01F0
0700
1800
2000
4000
8000
ENDCHAR
STARTCHAR 227C
ENCODING 8828
SWIDTH 800 0
DWIDTH 16 0
BBX 12 12 2 -1
BITMAP
0010
0020
0040
0180
0600
F800
0F00
F180
0E40
0120
0090
0040
ENDCHAR
STARTCHAR 227D
ENCODING 8829
SWIDTH 800 0
DWIDTH 16 0
BBX 12 12 2 -1
BITMAP
8000
4000
2000
1800
0600
01F0
0700
18F0
2700
4800
9000
2000
ENDCHAR
STARTCHAR 227E
ENCODING 8830
SWIDTH 800 0
DWIDTH 16 0
BBX 12 15 2 0
BITMAP
0010
0020
0040
0180
0600
F800
0F00
0180
0040
0020
0010
0000
7810
8610
81E0
ENDCHAR
STARTCHAR 227F
ENCODING 8831
SWIDTH 800 0
DWIDTH 16 0
BBX 12 15 2 0
BITMAP
8000
4000
2000
1800
0600
01F0
0F00
1800
2000
4000
8000
0000
7810
8610
81E0
ENDCHAR
STARTCHAR 2280
ENCODING 8832
SWIDTH 800 0
DWIDTH 16 0
BBX 12 14 2 -1
BITMAP
0100
0100
0110
0120
0140
0180
0F00
F100
0F00
0180
0140
0120
0110
0100
ENDCHAR
STARTCHAR 2281
ENCODING 8833
SWIDTH 800 0
DWIDTH 16 0
BBX 12 14 2 -1
BITMAP
0800
0800
8800
4800
2800
1800
0E00
09F0
0F00
1800
2800
4800
8800
0800
ENDCHAR
STARTCHAR 2282
ENCODING 8834
SWIDTH 800 0
DWIDTH 16 0
BBX 12 12 2 0
BITMAP
0FF0
3000
4000
4000
8000
8000
8000
8000
4000
4000
3000
0FF0
ENDCHAR
STARTCHAR 2283
ENCODING 8835
SWIDTH 800 0
DWIDTH 16 0
BBX 12 12 2 0
BITMAP
FF00
00C0
0020
0020
0010
0010
0010
0010
0020
0020
00C0
FF00
ENDCHAR
STARTCHAR 2284
ENCODING 8836
SWIDTH 800 0
DWIDTH 16 0
BBX 12 16 2 -2
BITMAP
0020
0040
0FF0
3040
4080
4080
8080
8100
8100
8200
4200
4200
3400
1FF0
0400
0800
ENDCHAR
STARTCHAR 2285
ENCODING 8837
SWIDTH 800 0
DWIDTH 16 0
BBX 12 16 2 -2
BITMAP
0100
0200
FF80
02C0
0420
0420
0410
0810
0810
1010
1020
1020
20C0
FF00
2000
4000
ENDCHAR
STARTCHAR 2286
ENCODING 8838
SWIDTH 800 0
DWIDTH 16 0
BBX 12 12 2 0
BITMAP
3FF0
4000
8000
8000
8000
8000
4000
3FF0
0000
0000
0000
FFF0
ENDCHAR
STARTCHAR 2287
ENCODING 8839
SWIDTH 800 0
DWIDTH 16 0
BBX 12 12 2 0
BITMAP
FFC0
0020
0010
0010
0010
0010
0020
FFC0
0000
0000
0000
FFF0
ENDCHAR
STARTCHAR 2288
ENCODING 8840
SWIDTH 800 0
DWIDTH 16 0
BBX 12 16 2 -2
BITMAP
0080
0180
3FF0
4100
8100
8200
8200
8200
6400
3FF0
0400
0800
0800
FFF0
1800
1000
ENDCHAR
STARTCHAR 2289
ENCODING 8841
SWIDTH 800 0
DWIDTH 16 0
BBX 12 16 2 -2
BITMAP
0100
0300
FFC0
0220
0210
0410
0410
0410
0820
FFC0
0800
1000
1000
FFF0
3000
2000
ENDCHAR
STARTCHAR 228A
ENCODING 8842
SWIDTH 800 0
DWIDTH 16 0
BBX 12 14 2 -2
BITMAP
3FF0
4000
8000
8000
8000
8000
4000
3FF0
0000
0200
0400
FFF0
0400
0800
ENDCHAR
STARTCHAR 228B
ENCODING 8843
SWIDTH 800 0
DWIDTH 16 0
BBX 12 14 2 -2
BITMAP
FFC0
0020
0010
0010
0010
0010
0020
FFC0
0000
0200
0400
FFF0
0400
0800
ENDCHAR
STARTCHAR 228C
ENCODING 8844
SWIDTH 800 0
DWIDTH 16 0
BBX 12 12 2 0
BITMAP
8010
8010
8010
8010
8210
87F0
8210
8010
4020
4020
30C0
0F00
ENDCHAR
STARTCHAR 228D
ENCODING 8845
SWIDTH 800 0
DWIDTH 16 0
BBX 12 12 2 0
BITMAP
8010
8010
8010
8010
8610
8610
8010
8010
4020
4020
30C0
0F00
ENDCHAR
STARTCHAR 228E
ENCODING 8846
SWIDTH 800 0
DWIDTH 16 0
BBX 12 12 2 0
BITMAP
8010
8010
8010
8210
8210
8F90
8210
8210
4020
4020
30C0
0F00
ENDCHAR
STARTCHAR 228F
ENCODING 8847
SWIDTH 800 0
DWIDTH 16 0
BBX 12 12 2 0
BITMAP
FFF0
8000
8000
8000
8000
8000
8000
8000
8000
8000
8000
FFF0
ENDCHAR
STARTCHAR 2290
ENCODING 8848
SWIDTH 800 0
DWIDTH 16 0
BBX 12 12 2 0
BITMAP
FFF0
0010
0010
0010
0010
0010
0010
0010
0010
0010
0010
FFF0
ENDCHAR
STARTCHAR 2291
ENCODING 8849
SWIDTH 800 0
DWIDTH 16 0
BBX 12 12 2 0
BITMAP
FFF0
8000
8000
8000
8000
8000
8000
FFF0
0000
0000
0000
FFF0
ENDCHAR
STARTCHAR 2292
ENCODING 8850
SWIDTH 800 0
DWIDTH 16 0
BBX 12 12 2 0
BITMAP
FFF0
0010
0010
0010
0010
0010
0010
FFF0
0000
0000
0000
FFF0
ENDCHAR
STARTCHAR 2293
ENCODING 8851
SWIDTH 800 0
DWIDTH 16 0
BBX 12 12 2 0
BITMAP
FFF0
8010
8010
8010
8010
8010
8010
8010
8010
8010
8010
8010
ENDCHAR
STARTCHAR 2294
ENCODING 8852
SWIDTH 800 0
DWIDTH 16 0
BBX 12 13 2 0
BITMAP
8010
8010
8010
8010
8010
8010
8010
8010
8010
8010
8010
8010
FFF0
ENDCHAR
STARTCHAR 2295
ENCODING 8853
SWIDTH 800 0
DWIDTH 16 0
BBX 12 12 2 0
BITMAP
0F00
32C0
6220
4220
8210
8210
FFF0
8210
4220
4220
3240
0F80
ENDCHAR
STARTCHAR 2296
ENCODING 8854
SWIDTH 800 0
DWIDTH 16 0
BBX 12 12 2 0
BITMAP
0F00
30C0
6060
4020
8010
8010
FFF0
8010
8020
4020
30C0
0F00
ENDCHAR
STARTCHAR 2297
ENCODING 8855
SWIDTH 800 0
DWIDTH 16 0
BBX 12 12 2 0
BITMAP
0F00
30C0
6060
50A0
8910
8610
8610
8910
50A0
6060
30C0
0F00
ENDCHAR
STARTCHAR 2298
ENCODING 8856
SWIDTH 800 0
DWIDTH 16 0
BBX 12 12 2 0
BITMAP
0F00
30C0
4060
40A0
8110
8210
8410
8810
5020
6020
30C0
0F00
ENDCHAR
STARTCHAR 2299
ENCODING 8857
SWIDTH 800 0
DWIDTH 16 0
BBX 12 12 2 0
BITMAP
0F00
30C0
4020
4020
8010
8610
8610
8010
4020
4020
30C0
0F00
ENDCHAR
STARTCHAR 229A
ENCODING 8858
SWIDTH 800 0
DWIDTH 16 0
BBX 12 12 2 0
BITMAP
0F00
30C0
4020
4020
8610
8910
8910
8610
4020
4020
30C0
0F00
ENDCHAR
STARTCHAR 229B
ENCODING 8859
SWIDTH 800 0
DWIDTH 16 0
BBX 12 12 2 0
BITMAP
0F00
30C0
4020
4220
8A90
8710
8F90
8210
4020
4020
30C0
0F00
ENDCHAR
STARTCHAR 229C
ENCODING 8860
SWIDTH 800 0
DWIDTH 16 0
BBX 12 12 2 0
BITMAP
0F00
30C0
4020
4020
FFF0
8010
8010
FFF0
4020
4020
30C0
0F00
ENDCHAR
STARTCHAR 229D
ENCODING 8861
SWIDTH 800 0
DWIDTH 16 0
BBX 12 12 2 0
BITMAP
0F00
30C0
4020
4020
8010
BFD0
8010
8010
4020
4020
30C0
0F00
ENDCHAR
STARTCHAR 229E
ENCODING 8862
SWIDTH 800 0
DWIDTH 16 0
BBX 12 12 2 0
BITMAP
FFF0
8210
8210
8210
8210
FFF0
8210
8210
8210
8210
8210
FFF0
ENDCHAR
STARTCHAR 229F
ENCODING 8863
SWIDTH 800 0
DWIDTH 16 0
BBX 12 12 2 0
BITMAP
FFF0
8010
8010
8010
8010
FFF0
8010
8010
8010
8010
8010
FFF0
ENDCHAR
STARTCHAR 22A0
ENCODING 8864
SWIDTH 800 0
DWIDTH 16 0
BBX 12 12 2 0
BITMAP
FFF0
C030
A050
9090
8910
8610
8610
8910
9090
A050
C030
FFF0
ENDCHAR
STARTCHAR 22A1
ENCODING 8865
SWIDTH 800 0
DWIDTH 16 0
BBX 12 12 2 0
BITMAP
FFF0
8010
8010
8010
8010
8610
8610
8010
8010
8010
8010
FFF0
ENDCHAR
STARTCHAR 22A2
ENCODING 8866
SWIDTH 800 0
DWIDTH 16 0
BBX 12 12 2 0
BITMAP
8000
8000
8000
8000
8000
FFF0
8000
8000
8000
8000
8000
8000
ENDCHAR
STARTCHAR 22A3
ENCODING 8867
SWIDTH 800 0
DWIDTH 16 0
BBX 12 12 2 0
BITMAP
0010
0010
0010
0010
0010
FFF0
0010
0010
0010
0010
0010
0010
ENDCHAR
STARTCHAR 22A4
ENCODING 8868
SWIDTH 800 0
DWIDTH 16 0
BBX 12 12 2 0
BITMAP
FFF0
0200
0200
0200
0200
0200
0200
0200
0200
0200
0200
0200
ENDCHAR
STARTCHAR 22A5
ENCODING 8869
SWIDTH 800 0
DWIDTH 16 0
BBX 12 12 2 0
BITMAP
0200
0200
0200
0200
0200
0200
0200
0200
0200
0200
0200
FFF0
ENDCHAR
STARTCHAR 22A6
ENCODING 8870
SWIDTH 600 0
DWIDTH 12 0
BBX 6 12 3 0
BITMAP
80
80
80
80
80
FC
80
80
80
80
80
80
ENDCHAR
STARTCHAR 22A7
ENCODING 8871
SWIDTH 600 0
DWIDTH 12 0
BBX 6 12 3 0
BITMAP
80
80
80
FC
80
80
80
FC
80
80
80
80
ENDCHAR
STARTCHAR 22A8
ENCODING 8872
SWIDTH 800 0
DWIDTH 16 0
BBX 12 12 2 0
BITMAP
8000
8000
8000
FFF0
8000
8000
8000
FFF0
8000
8000
8000
8000
ENDCHAR
STARTCHAR 22A9
ENCODING 8873
SWIDTH 800 0
DWIDTH 16 0
BBX 12 12 2 0
BITMAP
9000
9000
9000
9000
9000
9FF0
9000
9000
9000
9000
9000
9000
ENDCHAR
STARTCHAR 22AA
ENCODING 8874
SWIDTH 800 0
DWIDTH 16 0
BBX 12 12 2 0
BITMAP
9200
9200
9200
9200
9200
93F0
9200
9200
9200
9200
9200
9200
ENDCHAR
STARTCHAR 22AB
ENCODING 8875
SWIDTH 800 0
DWIDTH 16 0
BBX 12 12 2 0
BITMAP
9000
9000
9000
9FF0
9000
9000
9000
9FF0
9000
9000
9000
9000
ENDCHAR
STARTCHAR 22AC
ENCODING 8876
SWIDTH 800 0
DWIDTH 16 0
BBX 12 14 2 -1
BITMAP
0080
8100
8100
8100
8200
8200
FFF0
8400
8400
8400
8800
8800
8800
1000
ENDCHAR
STARTCHAR 22AD
ENCODING 8877
SWIDTH 800 0
DWIDTH 16 0
BBX 12 14 2 -1
BITMAP
0080
8100
8100
8100
FFF0
8200
8200
8400
FFF0
8400
8800
8800
8800
1000
ENDCHAR
STARTCHAR 22AE
ENCODING 8878
SWIDTH 800 0
DWIDTH 16 0
BBX 12 14 2 -1
BITMAP
0040
9080
9080
9080
9100
9100
9FF0
9200
9200
9200
9400
9400
9400
0800
ENDCHAR
STARTCHAR 22AF
ENCODING 8879
SWIDTH 800 0
DWIDTH 16 0
BBX 12 14 2 -1
BITMAP
0040
9080
9080
9080
9FF0
9100
9100
9200
9FF0
9200
9400
9400
9400
0800
ENDCHAR
STARTCHAR 22B0
ENCODING 8880
SWIDTH 800 0
DWIDTH 16 0
BBX 12 15 2 0
BITMAP
00E0
0010
0010
0020
00C0
0380
1E00
E000
1E00
0380
0040
0020
0010
0010
00E0
ENDCHAR
STARTCHAR 22B1
ENCODING 8881
SWIDTH 800 0
DWIDTH 16 0
BBX 12 15 2 0
BITMAP
7000
8000
8000
4000
3000
1C00
0780
0070
0780
1C00
2000
4000
8000
8000
7000
ENDCHAR
STARTCHAR 22B2
ENCODING 8882
SWIDTH 800 0
DWIDTH 16 0
BBX 11 12 2 0
BITMAP
8000
E000
9800
8600
8180
8060
8060
8180
8600
9800
E000
8000
ENDCHAR
STARTCHAR 22B3
ENCODING 8883
SWIDTH 800 0
DWIDTH 16 0
BBX 11 12 3 0
BITMAP
0020
00E0
0320
0C20
3020
C020
C020
3020
0C20
0320
00E0
0020
ENDCHAR
STARTCHAR 22B4
ENCODING 8884
SWIDTH 800 0
DWIDTH 16 0
BBX 12 11 2 0
BITMAP
0010
00F0
0710
1C10
E010
1C10
0710
00F0
0010
0000
FFF0
ENDCHAR
STARTCHAR 22B5
ENCODING 8885
SWIDTH 800 0
DWIDTH 16 0
BBX 12 11 2 0
BITMAP
8000
F000
8E00
8380
8070
8380
8E00
F000
8000
0000
FFF0
ENDCHAR
STARTCHAR 22B6
ENCODING 8886
SWIDTH 950 0
DWIDTH 19 0
BBX 14 5 2 3
BITMAP
7038
887C
8FFC
887C
7038
ENDCHAR
STARTCHAR 22B7
ENCODING 8887
SWIDTH 950 0
DWIDTH 19 0
BBX 14 5 2 3
BITMAP
7038
F844
FFC4
F844
7038
ENDCHAR
STARTCHAR 22B8
ENCODING 8888
SWIDTH 800 0
DWIDTH 16 0
BBX 12 5 2 3
BITMAP
00E0
0110
FF10
0110
00E0
ENDCHAR
STARTCHAR 22B9
ENCODING 8889
SWIDTH 800 0
DWIDTH 16 0
BBX 11 11 2 0
BITMAP
0400
0400
0400
0400
0000
F1E0
0000
0400
0400
0400
0400
ENDCHAR
STARTCHAR 22BA
ENCODING 8890
SWIDTH 650 0
DWIDTH 13 0
BBX 7 11 3 -4
BITMAP
FE
10
10
10
10
10
10
10
10
10
10
ENDCHAR
STARTCHAR 22BB
ENCODING 8891
SWIDTH 800 0
DWIDTH 16 0
BBX 12 12 2 0
BITMAP
2020
1040
1040
0880
0880
0500
0500
0200
0200
0000
0000
FFF0
ENDCHAR
STARTCHAR 22BC
ENCODING 8892
SWIDTH 800 0
DWIDTH 16 0
BBX 12 12 2 0
BITMAP
FFF0
0000
0000
0400
0400
0A00
0A00
1100
1100
2080
2080
4040
ENDCHAR
STARTCHAR 22BD
ENCODING 8893
SWIDTH 800 0
DWIDTH 16 0
BBX 12 12 2 0
BITMAP
FFF0
0000
0000
4040
2080
2080
1100
1100
0A00
0A00
0400
0400
ENDCHAR
STARTCHAR 22BE
ENCODING 8894
SWIDTH 800 0
DWIDTH 16 0
BBX 12 12 2 0
BITMAP
8000
8000
8000
8000
E000
9800
8400
8200
8200
8100
8100
FFF0
ENDCHAR
STARTCHAR 22BF
ENCODING 8895
SWIDTH 800 0
DWIDTH 16 0
BBX 12 12 2 0
BITMAP
0010
0030
0070
00B0
0130
0230
0430
0830
1030
2030
7FF0
FFF0
ENDCHAR
STARTCHAR 22C0
ENCODING 8896
SWIDTH 800 0
DWIDTH 16 0
BBX 11 12 2 0
BITMAP
0400
0400
0E00
0E00
1B00
1B00
1100
3180
3180
60C0
60C0
C060
ENDCHAR
STARTCHAR 22C1
ENCODING 8897
SWIDTH 800 0
DWIDTH 16 0
BBX 11 12 2 0
BITMAP
C060
60C0
60C0
3180
3180
1100
1B00
1B00
0E00
0E00
0400
0400
ENDCHAR
STARTCHAR 22C2
ENCODING 8898
SWIDTH 800 0
DWIDTH 16 0
BBX 12 12 2 0
BITMAP
0F00
3FC0
70E0
6060
C030
C030
C030
C030
C030
C030
C030
C030
ENDCHAR
STARTCHAR 22C3
ENCODING 8899
SWIDTH 800 0
DWIDTH 16 0
BBX 12 12 2 0
BITMAP
C030
C030
C030
C030
C030
C030
C030
C030
6060
70E0
3FC0
0F00
ENDCHAR
STARTCHAR 22C4
ENCODING 8900
SWIDTH 800 0
DWIDTH 16 0
BBX 11 11 2 0
BITMAP
0400
0E00
1B00
3180
60C0
C060
60C0
3180
1B00
0E00
0400
ENDCHAR
STARTCHAR 22C5
ENCODING 8901
SWIDTH 450 0
DWIDTH 9 0
BBX 2 2 3 5
BITMAP
C0
C0
ENDCHAR
STARTCHAR 22C6
ENCODING 8902
SWIDTH 800 0
DWIDTH 16 0
BBX 9 10 3 2
BITMAP
0800
0800
0800
0800
FF80
3E00
1C00
3600
2200
4100
ENDCHAR
STARTCHAR 22C7
ENCODING 8903
SWIDTH 800 0
DWIDTH 16 0
BBX 11 11 2 0
BITMAP
8020
4640
2680
1100
0A00
FFE0
0A00
1100
2680
4640
8020
ENDCHAR
STARTCHAR 22C8
ENCODING 8904
SWIDTH 1000 0
DWIDTH 20 0
BBX 16 12 2 0
BITMAP
8001
C003
B00D
9819
8661
83C1
83C1
8661
9819
B00D
C003
8001
ENDCHAR
STARTCHAR 22C9
ENCODING 8905
SWIDTH 800 0
DWIDTH 16 0
BBX 12 12 2 0
BITMAP
8010
C020
A040
9080
8900
8600
8600
8900
9080
A040
C020
8010
ENDCHAR
STARTCHAR 22CA
ENCODING 8906
SWIDTH 800 0
DWIDTH 16 0
BBX 12 12 2 0
BITMAP
8010
4030
2050
1090
0910
0610
0610
0910
1090
2050
4030
8010
ENDCHAR
STARTCHAR 22CB
ENCODING 8907
SWIDTH 800 0
DWIDTH 16 0
BBX 12 12 2 0
BITMAP
8000
4000
2000
1000
0800
0400
0600
0900
1080
2040
4020
8010
ENDCHAR
STARTCHAR 22CC
ENCODING 8908
SWIDTH 800 0
DWIDTH 16 0
BBX 12 12 2 0
BITMAP
0010
0020
0040
0080
0100
0200
0600
0900
1080
2040
4020
8010
ENDCHAR
STARTCHAR 22CD
ENCODING 8909
SWIDTH 800 0
DWIDTH 16 0
BBX 12 6 2 3
BITMAP
81E0
8630
7810
0000
0000
FFF0
ENDCHAR
STARTCHAR 22CE
ENCODING 8910
SWIDTH 800 0
DWIDTH 16 0
BBX 11 12 2 0
BITMAP
8020
4040
2080
1100
1B00
0A00
0A00
0C00
0400
0400
0400
0400
ENDCHAR
STARTCHAR 22CF
ENCODING 8911
SWIDTH 800 0
DWIDTH 16 0
BBX 11 12 2 0
BITMAP
0400
0400
0400
0400
0C00
0A00
0A00
1900
1100
2080
4040
8020
ENDCHAR
STARTCHAR 22D0
ENCODING 8912
SWIDTH 800 0
DWIDTH 16 0
BBX 12 12 2 0
BITMAP
0FF0
3000
4000
4FF0
9800
9000
9000
9800
4FF0
4000
3000
0FF0
ENDCHAR
STARTCHAR 22D1
ENCODING 8913
SWIDTH 800 0
DWIDTH 16 0
BBX 12 12 2 0
BITMAP
FF00
00C0
0020
FF20
0190
0090
0090
0190
FF20
0020
00C0
FF00
ENDCHAR
STARTCHAR 22D2
ENCODING 8914
SWIDTH 800 0
DWIDTH 16 0
BBX 12 12 2 0
BITMAP
9090
9090
9090
9090
9090
9090
9090
9990
4F20
4020
30C0
0F00
ENDCHAR
STARTCHAR 22D3
ENCODING 8915
SWIDTH 800 0
DWIDTH 16 0
BBX 12 12 2 0
BITMAP
0F00
30C0
4020
4F20
9990
9090
9090
9090
9090
9090
9090
9090
ENDCHAR
STARTCHAR 22D4
ENCODING 8916
SWIDTH 800 0
DWIDTH 16 0
BBX 12 15 2 0
BITMAP
0200
0200
0200
0F80
3240
6220
4230
8210
8210
8210
8210
8210
8210
8210
8210
ENDCHAR
STARTCHAR 22D5
ENCODING 8917
SWIDTH 800 0
DWIDTH 16 0
BBX 12 12 2 0
BITMAP
0900
0900
0900
0900
FFF0
0900
0900
FFF0
0900
0900
0900
0900
ENDCHAR
STARTCHAR 22D6
ENCODING 8918
SWIDTH 800 0
DWIDTH 16 0
BBX 12 11 2 0
BITMAP
0010
0060
0180
0E00
3000
C060
3060
0C00
0380
0060
0010
ENDCHAR
STARTCHAR 22D7
ENCODING 8919
SWIDTH 800 0
DWIDTH 16 0
BBX 12 11 2 0
BITMAP
8000
6000
1800
0700
00C0
6030
60C0
0300
1C00
6000
8000
ENDCHAR
ENDFONT
